<?xml version="1.0" encoding="UTF-8" standalone="no"?>
<svg
   width="135"
   height="380"
   viewBox="0 0 135 380"
   version="1.1"
   id="svg214"
   sodipodi:docname="McHammond.svg"
   inkscape:version="1.3.2 (091e20e, 2023-11-25)"
   xmlns:inkscape="http://www.inkscape.org/namespaces/inkscape"
   xmlns:sodipodi="http://sodipodi.sourceforge.net/DTD/sodipodi-0.dtd"
   xmlns="http://www.w3.org/2000/svg"
   xmlns:svg="http://www.w3.org/2000/svg"
   xmlns:rdf="http://www.w3.org/1999/02/22-rdf-syntax-ns#"
   xmlns:cc="http://creativecommons.org/ns#"
   xmlns:dc="http://purl.org/dc/elements/1.1/">
  <metadata
     id="metadata218">
    <rdf:RDF>
      <cc:Work
         rdf:about="">
        <dc:format>image/svg+xml</dc:format>
        <dc:type
           rdf:resource="http://purl.org/dc/dcmitype/StillImage" />
      </cc:Work>
    </rdf:RDF>
  </metadata>
  <sodipodi:namedview
     pagecolor="#ffffff"
     bordercolor="#666666"
     borderopacity="1"
     objecttolerance="10"
     gridtolerance="10"
     guidetolerance="10"
     inkscape:pageopacity="0"
     inkscape:pageshadow="2"
     inkscape:window-width="1280"
     inkscape:window-height="1387"
     id="namedview216"
     showgrid="false"
     inkscape:zoom="4.2581974"
     inkscape:cx="81.137619"
     inkscape:cy="211.35704"
     inkscape:window-x="867"
     inkscape:window-y="25"
     inkscape:window-maximized="0"
     inkscape:current-layer="svg214"
     inkscape:showpageshadow="2"
     inkscape:pagecheckerboard="0"
     inkscape:deskcolor="#d1d1d1"
     showguides="true">
    <sodipodi:guide
       position="67.731238,56.197152"
       orientation="1,0"
       id="guide4"
       inkscape:locked="false" />
    <sodipodi:guide
       position="5.2724658,188.08224"
       orientation="0,-1"
       id="guide7"
       inkscape:locked="false" />
    <sodipodi:guide
       position="51.459266,203.47784"
       orientation="1,0"
       id="guide8"
       inkscape:locked="false" />
    <sodipodi:guide
       position="83.361712,253.94083"
       orientation="1,0"
       id="guide9"
       inkscape:locked="false" />
    <sodipodi:guide
       position="115.57245,163.4071"
       orientation="1,0"
       id="guide10"
       inkscape:locked="false" />
    <sodipodi:guide
       position="37.572933,45.85138"
       orientation="0,-1"
       id="guide11"
       inkscape:locked="false" />
    <sodipodi:guide
       position="7.5286395,61.582835"
       orientation="0,-1"
       id="guide1"
       inkscape:locked="false" />
    <sodipodi:guide
       position="20.593043,109.41184"
       orientation="0,-1"
       id="guide2"
       inkscape:locked="false" />
    <sodipodi:guide
       position="19.543986,67.571488"
       orientation="1,0"
       id="guide31"
       inkscape:locked="false" />
    <sodipodi:guide
       position="53.096974,250.30411"
       orientation="0,-1"
       id="guide35"
       inkscape:locked="false" />
    <sodipodi:guide
       position="-1.450737,202.42979"
       orientation="0,-1"
       id="guide36"
       inkscape:locked="false" />
  </sodipodi:namedview>
  <defs
     id="defs7">
    <linearGradient
       id="e177933e-b46b-4a47-9930-05c1f1d4149c"
       x1="67.5"
       x2="67.5"
       y2="380"
       gradientUnits="userSpaceOnUse">
      <stop
         offset="0"
         stop-color="#ebebeb"
         id="stop2" />
      <stop
         offset="1"
         stop-color="#e1e1e1"
         id="stop4" />
    </linearGradient>
  </defs>
  <g
     id="ae8a9d53-7d51-4e2d-86b4-182b0f1636c5"
     data-name="FND BG"
     transform="translate(0.06881685)">
    <rect
       width="135"
       height="380"
       fill="url(#e177933e-b46b-4a47-9930-05c1f1d4149c)"
       id="rect9"
       style="fill:#ffb319;fill-opacity:1"
       x="0"
       y="0" />
  </g>
  <g
     id="aa880d18-cfe8-4bd2-bda2-afb179f11477"
     data-name="FND GRAPH"
     style="display:inline"
     transform="translate(0,-0.26922717)">
    <rect
       x="100.05434"
       y="308.26425"
       width="30.832525"
       height="39.19244"
       rx="0.70115703"
       fill="#1f1f1f"
       id="rect12"
       style="stroke-width:0.497345" />
    <line
       x1="83.503822"
       y1="299.51617"
       x2="83.503822"
       y2="308.74084"
       fill="none"
       stroke="#1f1f1f"
       stroke-linecap="round"
       stroke-linejoin="round"
       stroke-width="0.8"
       id="line24" />
    <line
       x1="39.700211"
       y1="286.66431"
       x2="33.912552"
       y2="286.66431"
       fill="none"
       stroke="#1f1f1f"
       stroke-linecap="round"
       stroke-linejoin="round"
       stroke-width="0.8"
       id="line28" />
    <g
       id="g40">
      <circle
         cx="67.50634"
         cy="166.5"
         r="26.48818"
         fill="none"
         opacity="0.69"
         style="isolation:isolate"
         id="circle32" />
      <line
         x1="78.304573"
         y1="184.60266"
         x2="67.50634"
         y2="166.5"
         fill="none"
         id="line36" />
    </g>
    <g
       id="g48">
      <circle
         cx="67.633141"
         cy="88.016998"
         r="38.445641"
         fill="none"
         opacity="0.69"
         style="isolation:isolate"
         id="circle42" />
      <path
         d="m 83.306,114.29167 a 30.40253,30.40253 0 1 0 -31.13461,0.10869"
         fill="none"
         stroke="#1f1f1f"
         stroke-linecap="round"
         stroke-miterlimit="10"
         stroke-width="0.8"
         id="path44" />
      <line
         x1="83.305969"
         y1="114.29167"
         x2="67.633141"
         y2="88.016998"
         fill="none"
         id="line46" />
    </g>
    <g
       id="g56">
      <line
         x1="19.50939"
         y1="299.53888"
         x2="19.50939"
         y2="308.74084"
         fill="none"
         stroke="#1f1f1f"
         stroke-linecap="round"
         stroke-linejoin="round"
         stroke-width="0.8"
         id="line50" />
      <line
         x1="19.50939"
         y1="275.20447"
         x2="19.50939"
         y2="286.6839"
         fill="none"
         stroke="#1f1f1f"
         stroke-linecap="round"
         stroke-linejoin="round"
         id="line52" />
      <path
         d="m 11.35593,294.81775 a 11.53074,11.53074 0 1 1 16.30692,0"
         fill="none"
         stroke="#1f1f1f"
         stroke-linecap="round"
         stroke-linejoin="round"
         id="path54" />
    </g>
    <path
       d="m 36.307918,355.66162 h 4.695983 q 1.534146,0 2.294982,0.68555 0.767073,0.68553 0.767073,1.95116 0,1.30078 -0.835673,2.0332 -0.829436,0.73241 -2.5382,0.73241 h -1.546619 v 3.1875 h -2.837546 z m 2.837546,3.6621 h 0.692237 q 0.816963,0 1.14749,-0.26367 0.330528,-0.26954 0.330528,-0.68555 0,-0.4043 -0.286872,-0.68554 -0.286874,-0.28125 -1.078892,-0.28125 h -0.804491 z"
       id="text28"
       style="font-size:12.38px;font-family:'Arial Black';-inkscape-font-specification:'Arial Black, ';stroke-width:1.03167"
       aria-label="P" />
    <path
       d="m 45.46914,355.66162 h 2.538201 v 1.62304 H 45.46914 Z m 0,2.36718 h 2.538201 v 6.22264 H 45.46914 Z"
       id="text27"
       style="font-size:12.38px;font-family:'Arial Black';-inkscape-font-specification:'Arial Black, ';stroke-width:1.03167"
       aria-label="i" />
    <path
       d="m 52.690848,355.66162 v 2.36718 h 1.396947 v 1.74022 h -1.396947 v 2.20899 q 0,0.39843 0.08107,0.52734 0.124728,0.19922 0.436546,0.19922 0.280636,0 0.785782,-0.15235 l 0.187091,1.64648 q -0.941691,0.19336 -1.758655,0.19336 -0.947927,0 -1.396946,-0.22852 -0.449018,-0.22851 -0.66729,-0.6914 -0.212038,-0.46875 -0.212038,-1.51172 v -2.1914 h -0.935454 v -1.74022 h 0.935454 v -1.14258 z"
       id="text26"
       style="font-size:12.38px;font-family:'Arial Black';-inkscape-font-specification:'Arial Black, ';stroke-width:1.03167"
       aria-label="t" />
    <path
       d="m 60.236852,361.81981 2.413473,0.2578 q -0.199564,0.70899 -0.654818,1.23047 -0.455254,0.51562 -1.166201,0.80273 -0.704709,0.28711 -1.796073,0.28711 -1.053946,0 -1.758655,-0.18164 -0.698472,-0.1875 -1.203618,-0.59765 -0.505146,-0.41602 -0.792019,-0.97266 -0.286872,-0.55664 -0.286872,-1.47656 0,-0.96093 0.349236,-1.5996 0.255691,-0.46875 0.698473,-0.83789 0.442782,-0.37499 0.910509,-0.55664 0.742128,-0.28711 1.902091,-0.28711 1.621456,0 2.469601,0.54492 0.854383,0.54493 1.197382,1.59375 l -2.388528,0.29883 q -0.112254,-0.39844 -0.4116,-0.59766 -0.293109,-0.20507 -0.792018,-0.20507 -0.629873,0 -1.022764,0.42773 -0.386654,0.42187 -0.386654,1.28319 0,0.76758 0.386654,1.16602 0.386655,0.39844 0.985346,0.39844 0.498909,0 0.835673,-0.24024 0.343,-0.24024 0.511382,-0.73827 z"
       id="text25"
       style="font-size:12.38px;font-family:'Arial Black';-inkscape-font-specification:'Arial Black, ';stroke-width:1.03167"
       aria-label="c" />
    <path
       d="m 63.707389,355.66162 h 2.5382 v 3.16405 q 0.517618,-0.5039 1.029001,-0.72069 0.511382,-0.21681 1.209855,-0.21681 1.035236,0 1.627691,0.5918 0.598691,0.5918 0.598691,1.8164 v 3.95507 h -2.550673 v -3.42187 q 0,-0.58594 -0.230746,-0.82617 -0.230745,-0.24609 -0.648582,-0.24609 -0.461491,0 -0.748364,0.32812 -0.286873,0.32812 -0.286873,1.17774 v 2.98827 h -2.5382 z"
       id="text24"
       style="font-size:12.38px;font-family:'Arial Black';-inkscape-font-specification:'Arial Black, ';stroke-width:1.03167"
       aria-label="h" />
    <path
       d="m 76.88171,361.14011 v -1.7871 h 4.365455 v 3.6621 q -1.253509,0.80273 -2.220146,1.0957 -0.9604,0.28711 -2.282509,0.28711 -1.627691,0 -2.656692,-0.52149 -1.022763,-0.52147 -1.590273,-1.55272 -0.561273,-1.03125 -0.561273,-2.36718 0,-1.40625 0.6174,-2.44335 0.617401,-1.04297 1.808547,-1.58203 0.929218,-0.41601 2.500782,-0.41601 1.515436,0 2.263801,0.25781 0.7546,0.25781 1.247272,0.80273 0.49891,0.53906 0.748364,1.37109 l -2.725291,0.45703 q -0.168382,-0.48633 -0.573746,-0.74414 -0.399127,-0.25782 -1.022764,-0.25782 -0.929218,0 -1.484254,0.60938 -0.5488,0.60351 -0.5488,1.91601 0,1.39453 0.555036,1.99218 0.561273,0.59765 1.559091,0.59765 0.473964,0 0.904273,-0.1289 0.430309,-0.1289 0.985345,-0.43946 v -0.80859 z"
       id="text23"
       style="font-size:12.38px;font-family:'Arial Black';-inkscape-font-specification:'Arial Black, ';stroke-width:1.03167"
       aria-label="G" />
    <path
       d="m 82.781312,358.0288 h 2.376055 v 1.01953 q 0.343001,-0.66211 0.704709,-0.90821 0.367946,-0.25195 0.904274,-0.25195 0.561272,0 1.228563,0.32813 l -0.785782,1.69922 q -0.449018,-0.17579 -0.710945,-0.17579 -0.49891,0 -0.773309,0.38672 -0.392891,0.54492 -0.392891,2.03906 v 2.08593 h -2.550674 z"
       id="text22"
       style="font-size:12.38px;font-family:'Arial Black';-inkscape-font-specification:'Arial Black, ';stroke-width:1.03167"
       aria-label="r" />
    <path
       d="m 88.518769,355.66162 h 2.538201 v 1.62304 h -2.538201 z m 0,2.36718 h 2.538201 v 6.22264 h -2.538201 z"
       id="text21"
       style="font-size:12.38px;font-family:'Arial Black';-inkscape-font-specification:'Arial Black, ';stroke-width:1.03167"
       aria-label="i" />
    <path
       d="m 99.650684,355.66162 v 8.58982 h -2.376061 v -0.91992 q -0.498908,0.58593 -0.910508,0.79101 -0.5488,0.26953 -1.222328,0.26953 -1.353291,0 -2.070473,-0.9668 -0.710946,-0.96679 -0.710946,-2.3496 0,-1.54687 0.785782,-2.36718 0.792018,-0.82031 2.00811,-0.82031 0.592454,0 1.072654,0.1875 0.486437,0.18751 0.860619,0.5625 v -2.97655 z m -2.544442,5.46092 q 0,-0.73243 -0.330527,-1.08985 -0.330527,-0.36327 -0.835673,-0.36327 -0.442782,0 -0.742128,0.3457 -0.299345,0.3457 -0.299345,1.16015 0,0.76172 0.305581,1.11914 0.311818,0.35156 0.767074,0.35156 0.486436,0 0.810726,-0.35742 0.324292,-0.35742 0.324292,-1.16601 z"
       id="text20"
       style="font-size:12.38px;font-family:'Arial Black';-inkscape-font-specification:'Arial Black, ';stroke-width:1.03167"
       aria-label="d" />
    <path
       d="m 7.3856824,22.314838 h 4.5661516 l 1.762105,6.833904 1.754445,-6.833904 h 4.550829 V 33.546345 H 17.184521 V 24.98098 l -2.198801,8.565365 h -2.566545 l -2.19114,-8.565365 v 8.565365 H 7.3856824 Z"
       id="text19"
       style="font-size:15.6904px;font-family:'Arial Black';-inkscape-font-specification:'Arial Black, ';stroke-width:1.30754"
       aria-label="M"
       transform="scale(1.3075294,0.76480114)" />
    <path
       d="m 22.1414,22.314838 h 3.118161 v 2.122188 H 22.1414 Z m 0,3.095176 h 3.118161 v 8.136331 H 22.1414 Z"
       id="text18"
       style="font-size:15.6904px;font-family:'Arial Black';-inkscape-font-specification:'Arial Black, ';stroke-width:1.30754"
       transform="scale(1.3075294,0.76480114)"
       aria-label="i" />
    <path
       d="m 33.319277,30.366894 2.964934,0.337098 q -0.245162,0.927021 -0.804439,1.608879 -0.559277,0.674197 -1.432668,1.049602 -0.86573,0.375405 -2.206463,0.375405 -1.294764,0 -2.160494,-0.237501 -0.858069,-0.245163 -1.478637,-0.781456 -0.620567,-0.543954 -0.972988,-1.27178 -0.352422,-0.727826 -0.352422,-1.930655 0,-1.256458 0.429035,-2.091542 0.314114,-0.612907 0.858069,-1.09557 0.543954,-0.490325 1.118553,-0.727827 0.911699,-0.375405 2.336706,-0.375405 1.991945,0 3.033886,0.712504 1.049601,0.712503 1.470975,2.083881 l -2.934289,0.390728 q -0.137904,-0.52097 -0.505648,-0.781456 -0.360082,-0.268146 -0.972988,-0.268146 -0.773795,0 -1.256458,0.559277 -0.475003,0.551615 -0.475003,1.677831 0,1.003634 0.475003,1.524604 0.475002,0.52097 1.21049,0.52097 0.612906,0 1.026618,-0.314114 0.421373,-0.314115 0.628228,-0.965327 z"
       id="text17"
       style="font-size:15.6904px;font-family:'Arial Black';-inkscape-font-specification:'Arial Black, ';stroke-width:1.30754"
       transform="scale(1.3075294,0.76480114)"
       aria-label="c" />
    <path
       d="m 37.747525,25.410014 h 2.918966 v 1.333071 q 0.421373,-0.86573 0.86573,-1.187506 0.452018,-0.329437 1.110893,-0.329437 0.689519,0 1.509281,0.429035 l -0.965327,2.221785 q -0.551616,-0.22984 -0.873392,-0.22984 -0.612906,0 -0.950004,0.505648 -0.482664,0.712503 -0.482664,2.666142 v 2.727433 h -3.133483 z"
       id="text16"
       style="font-size:15.6904px;font-family:'Arial Black';-inkscape-font-specification:'Arial Black, ';stroke-width:1.30754"
       transform="scale(1.3075294,0.76480114)"
       aria-label="r" />
    <path
       d="m 44.42437,29.501163 q 0,-1.861702 1.256458,-3.064531 1.256458,-1.21049 3.393968,-1.21049 2.443964,0 3.692761,1.417346 1.003634,1.141538 1.003634,2.811708 0,1.877025 -1.248797,3.079853 -1.241135,1.195168 -3.439936,1.195168 -1.9613,0 -3.17179,-0.995973 Q 44.42437,31.50077 44.42437,29.501163 Z m 3.125822,-0.0077 q 0,1.087909 0.436696,1.608879 0.444357,0.52097 1.110892,0.52097 0.674197,0 1.103232,-0.513309 0.436695,-0.513309 0.436695,-1.647185 0,-1.057263 -0.436695,-1.570572 -0.436696,-0.520971 -1.080248,-0.520971 -0.681858,0 -1.126215,0.528632 -0.444357,0.52097 -0.444357,1.593556 z"
       id="text15"
       style="font-size:15.6904px;font-family:'Arial Black';-inkscape-font-specification:'Arial Black, ';stroke-width:1.30754"
       transform="scale(1.3075294,0.76480114)"
       aria-label="o" />
    <path
       d="m 59.160938,22.314838 v 3.095176 h 1.716137 v 2.275415 h -1.716137 v 2.88832 q 0,0.520971 0.0996,0.68952 0.153227,0.260485 0.536293,0.260485 0.34476,0 0.965328,-0.199194 l 0.229839,2.152833 q -1.15686,0.252824 -2.160494,0.252824 -1.164522,0 -1.716138,-0.298792 -0.551615,-0.298792 -0.819762,-0.904037 -0.260485,-0.612906 -0.260485,-1.976623 V 27.685429 H 54.88592 v -2.275415 h 1.149199 v -1.493959 z"
       id="text14"
       style="font-size:15.6904px;font-family:'Arial Black';-inkscape-font-specification:'Arial Black, ';stroke-width:1.30754"
       transform="scale(1.3075294,0.76480114)"
       aria-label="t" />
    <path
       d="m 61.980305,29.501163 q 0,-1.861702 1.256458,-3.064531 1.256458,-1.21049 3.393968,-1.21049 2.443964,0 3.69276,1.417346 1.003634,1.141538 1.003634,2.811708 0,1.877025 -1.248796,3.079853 -1.241135,1.195168 -3.439936,1.195168 -1.9613,0 -3.17179,-0.995973 -1.486298,-1.233474 -1.486298,-3.233081 z m 3.125822,-0.0077 q 0,1.087909 0.436696,1.608879 0.444357,0.52097 1.110892,0.52097 0.674197,0 1.103232,-0.513309 0.436695,-0.513309 0.436695,-1.647185 0,-1.057263 -0.436695,-1.570572 -0.436696,-0.520971 -1.080248,-0.520971 -0.681858,0 -1.126215,0.528632 -0.444357,0.52097 -0.444357,1.593556 z"
       id="text13"
       style="font-size:15.6904px;font-family:'Arial Black';-inkscape-font-specification:'Arial Black, ';stroke-width:1.30754"
       transform="scale(1.3075294,0.76480114)"
       aria-label="o" />
    <path
       d="m 72.828742,25.410014 h 2.903643 v 1.32541 q 0.651213,-0.812101 1.317749,-1.156861 0.666535,-0.352421 1.624201,-0.352421 1.294765,0 2.022591,0.773794 0.735487,0.766133 0.735487,2.375012 v 5.171397 H 78.29893 v -4.474216 q 0,-0.766133 -0.283469,-1.080247 -0.283469,-0.321776 -0.796778,-0.321776 -0.566939,0 -0.91936,0.429034 -0.352421,0.429035 -0.352421,1.539927 v 3.907278 h -3.11816 z"
       id="text12"
       style="font-size:15.6904px;font-family:'Arial Black';-inkscape-font-specification:'Arial Black, ';stroke-width:1.30754"
       transform="scale(1.3075294,0.76480114)"
       aria-label="n" />
    <path
       d="m 86.136472,28.045511 -2.980256,-0.314114 q 0.168549,-0.781456 0.482663,-1.225813 0.321776,-0.452018 0.91936,-0.781455 0.429034,-0.237501 1.179844,-0.367744 0.75081,-0.130243 1.624202,-0.130243 1.402023,0 2.25243,0.160888 0.850408,0.153227 1.417346,0.651213 0.398389,0.34476 0.628229,0.98065 0.22984,0.628229 0.22984,1.202829 v 3.593163 q 0,0.574599 0.06895,0.904036 0.07661,0.321776 0.321775,0.827424 H 89.35423 q -0.17621,-0.314115 -0.22984,-0.475003 -0.05363,-0.168549 -0.107258,-0.52097 -0.612907,0.589922 -1.218152,0.842746 -0.827423,0.337099 -1.922993,0.337099 -1.455652,0 -2.214124,-0.674197 -0.75081,-0.674197 -0.75081,-1.662508 0,-0.927021 0.543954,-1.524605 0.543955,-0.597583 2.007268,-0.888714 1.754445,-0.352421 2.275415,-0.490325 0.52097,-0.145565 1.103231,-0.375405 0,-0.5746 -0.237501,-0.804439 -0.237501,-0.22984 -0.835085,-0.22984 -0.766133,0 -1.149199,0.245162 -0.298792,0.191533 -0.482664,0.720165 z m 2.704449,1.639524 q -0.643551,0.22984 -1.340732,0.406051 -0.950005,0.252824 -1.202829,0.497986 -0.260485,0.252824 -0.260485,0.5746 0,0.367743 0.252824,0.605245 0.260485,0.229839 0.758471,0.229839 0.520971,0 0.965328,-0.252823 0.452018,-0.252824 0.63589,-0.612907 0.191533,-0.367743 0.191533,-0.950004 z"
       id="text11"
       style="font-size:15.6904px;font-family:'Arial Black';-inkscape-font-specification:'Arial Black, ';stroke-width:1.30754"
       transform="scale(1.3075294,0.76480114)"
       aria-label="a" />
    <path
       d="M 93.866748,22.314838 H 96.99257 V 33.546345 H 93.866748 Z"
       id="text10"
       style="font-size:15.6904px;font-family:'Arial Black';-inkscape-font-specification:'Arial Black, ';stroke-width:1.30754"
       transform="scale(1.3075294,0.76480114)"
       aria-label="l" />
    <path
       d="m 9.7271188,30.255475 h 4.5378872 v 3.005869 h 4.958619 v -3.005869 h 4.557922 v 8.589869 h -4.557922 v -3.474619 h -4.958619 v 3.474619 H 9.7271188 Z"
       id="text9"
       style="font-size:15.6904px;font-family:'Arial Black';-inkscape-font-specification:'Arial Black, ';stroke-width:1.30754"
       aria-label="H" />
    <path
       d="m 30.24278,34.638301 -3.896774,-0.240235 q 0.220383,-0.597658 0.631097,-0.937503 0.420731,-0.345704 1.202089,-0.597658 0.560975,-0.181641 1.542682,-0.281251 0.981707,-0.09961 2.123691,-0.09961 1.833186,0 2.94512,0.123048 1.111932,0.117187 1.85322,0.498048 0.520905,0.263672 0.821428,0.750002 0.300522,0.480471 0.300522,0.919925 v 2.748055 q 0,0.439455 0.09015,0.691408 0.100169,0.246095 0.420731,0.632814 h -3.826649 q -0.2304,-0.240234 -0.300522,-0.363282 -0.07012,-0.128906 -0.140244,-0.398438 -0.801393,0.451173 -1.592768,0.644533 -1.081881,0.257813 -2.514371,0.257813 -1.903308,0 -2.895031,-0.515627 -0.981708,-0.515626 -0.981708,-1.271488 0,-0.708986 0.711237,-1.166019 0.711236,-0.457032 2.624562,-0.679689 2.293987,-0.269532 2.975171,-0.375001 0.681185,-0.111329 1.442507,-0.28711 0,-0.439455 -0.31054,-0.615237 -0.310539,-0.175782 -1.091896,-0.175782 -1.001742,0 -1.502613,0.187501 -0.39068,0.146485 -0.631096,0.550783 z m 3.536145,1.25391 q -0.841462,0.175782 -1.753046,0.310547 -1.24216,0.19336 -1.572735,0.380861 -0.340592,0.19336 -0.340592,0.439454 0,0.281251 0.330575,0.462892 0.340592,0.175782 0.991725,0.175782 0.681183,0 1.262193,-0.19336 0.591027,-0.19336 0.831445,-0.468751 0.250435,-0.281251 0.250435,-0.726565 z"
       id="text8"
       style="font-size:15.6904px;font-family:'Arial Black';-inkscape-font-specification:'Arial Black, ';stroke-width:1.30754"
       aria-label="a" />
    <path
       d="m 40.240153,32.62267 h 3.806617 v 0.908206 q 0.821428,-0.568361 1.652873,-0.808597 0.841462,-0.240235 2.023517,-0.240235 1.272212,0 2.0135,0.263673 0.741288,0.263672 1.212107,0.785159 0.961671,-0.609377 1.753046,-0.826175 0.791376,-0.222657 1.953396,-0.222657 1.712977,0 2.674649,0.597658 0.961671,0.591799 0.961671,1.857428 v 3.908214 h -4.087104 v -3.544932 q 0,-0.421876 -0.280487,-0.626955 -0.410714,-0.322266 -1.021776,-0.322266 -0.721254,0 -1.162019,0.304688 -0.440767,0.304689 -0.440767,0.978518 v 3.210947 H 47.212272 V 35.4176 q 0,-0.410158 -0.08014,-0.556642 -0.13023,-0.234376 -0.450784,-0.375001 -0.320558,-0.146485 -0.751306,-0.146485 -0.701219,0 -1.152002,0.310547 -0.450783,0.310549 -0.450783,1.019535 v 3.17579 h -4.087105 z"
       id="text7"
       style="font-size:15.6904px;font-family:'Arial Black';-inkscape-font-specification:'Arial Black, ';stroke-width:1.30754"
       aria-label="m" />
    <path
       d="m 60.755814,32.62267 h 3.806617 v 0.908206 q 0.821428,-0.568361 1.652873,-0.808597 0.841462,-0.240235 2.023517,-0.240235 1.272211,0 2.013499,0.263673 0.741288,0.263672 1.212108,0.785159 0.96167,-0.609377 1.753046,-0.826175 0.791376,-0.222657 1.953395,-0.222657 1.712978,0 2.67465,0.597658 0.961671,0.591799 0.961671,1.857428 v 3.908214 h -4.087104 v -3.544932 q 0,-0.421876 -0.280488,-0.626955 -0.410713,-0.322266 -1.021775,-0.322266 -0.721254,0 -1.16202,0.304688 -0.440767,0.304689 -0.440767,0.978518 v 3.210947 H 67.727932 V 35.4176 q 0,-0.410158 -0.08014,-0.556642 -0.13023,-0.234376 -0.450784,-0.375001 -0.320557,-0.146485 -0.751307,-0.146485 -0.701218,0 -1.152001,0.310547 -0.450784,0.310549 -0.450784,1.019535 v 3.17579 h -4.087104 z"
       id="text6"
       style="font-size:15.6904px;font-family:'Arial Black';-inkscape-font-specification:'Arial Black, ';stroke-width:1.30754"
       aria-label="m" />
    <path
       d="m 80.740555,35.751585 q 0,-1.423832 1.642854,-2.343756 1.642856,-0.925785 4.437715,-0.925785 3.195553,0 4.828392,1.083988 1.312281,0.87305 1.312281,2.150397 0,1.435551 -1.632839,2.355476 -1.62282,0.914065 -4.497817,0.914065 -2.564458,0 -4.147209,-0.761721 -1.943377,-0.943362 -1.943377,-2.472664 z m 4.087103,-0.0059 q 0,0.832034 0.570993,1.230473 0.58101,0.398438 1.452525,0.398438 0.881532,0 1.442507,-0.392579 0.570993,-0.392579 0.570993,-1.25977 0,-0.808596 -0.570993,-1.201175 -0.570993,-0.398438 -1.412455,-0.398438 -0.891549,0 -1.472559,0.404297 -0.581011,0.398439 -0.581011,1.218754 z"
       id="text5"
       style="font-size:15.6904px;font-family:'Arial Black';-inkscape-font-specification:'Arial Black, ';stroke-width:1.30754"
       aria-label="o" />
    <path
       d="m 94.925204,32.62267 h 3.7966 v 1.013675 q 0.851479,-0.621096 1.722996,-0.884769 0.87151,-0.269532 2.12369,-0.269532 1.69294,0 2.6446,0.591799 0.96167,0.585939 0.96167,1.816412 v 3.955089 h -4.09712 V 35.42346 q 0,-0.58594 -0.37065,-0.826175 -0.37064,-0.246094 -1.04181,-0.246094 -0.741287,0 -1.202088,0.328126 -0.460801,0.328125 -0.460801,1.177738 v 2.988289 h -4.077087 z"
       id="text4"
       style="font-size:15.6904px;font-family:'Arial Black';-inkscape-font-specification:'Arial Black, ';stroke-width:1.30754"
       aria-label="n" />
    <path
       d="m 123.25484,30.255455 v 12.734268 h -4.93988 v -1.363765 q -1.03724,0.86864 -1.89297,1.172664 -1.14097,0.399575 -2.54125,0.399575 -2.81353,0 -4.30457,-1.433257 -1.47807,-1.433256 -1.47807,-3.483248 0,-2.29321 1.63366,-3.509307 1.64662,-1.216096 4.17491,-1.216096 1.23173,0 2.23008,0.277965 1.01131,0.277965 1.78924,0.833894 v -4.412693 z m -5.28995,8.095729 q 0,-1.085801 -0.68717,-1.615672 -0.68718,-0.538557 -1.73739,-0.538557 -0.92055,0 -1.5429,0.512499 -0.62235,0.512497 -0.62235,1.719907 0,1.129233 0.63531,1.659103 0.64828,0.521184 1.59477,0.521184 1.01131,0 1.68552,-0.52987 0.67421,-0.529871 0.67421,-1.728594 z"
       id="text2"
       style="font-size:21.7343px;font-family:'Arial Black';-inkscape-font-specification:'Arial Black, ';stroke-width:1.8112"
       aria-label="d" />
  </g>
  <g
     id="ea3a177d-3d4f-428c-a0c9-a5628575e869"
     data-name="FND TXT">
    <path
       d="m 73.933963,268.94027 1.402995,-0.0879 q 0.04557,0.34179 0.185547,0.52083 0.227865,0.28971 0.651042,0.28971 0.315755,0 0.485026,-0.14648 0.172526,-0.14974 0.172526,-0.34505 0,-0.18555 -0.16276,-0.33204 -0.162761,-0.14648 -0.755209,-0.27669 -0.970052,-0.2181 -1.383464,-0.57943 -0.416667,-0.36132 -0.416667,-0.92122 0,-0.36784 0.211589,-0.69336 0.214844,-0.32878 0.641276,-0.51432 0.429688,-0.1888 1.175131,-0.1888 0.914714,0 1.39323,0.34179 0.481771,0.33854 0.572917,1.08073 l -1.389975,0.0814 q -0.05534,-0.32226 -0.234375,-0.46875 -0.175781,-0.14648 -0.488282,-0.14648 -0.257161,0 -0.38737,0.11067 -0.130208,0.10743 -0.130208,0.26368 0,0.11393 0.107422,0.20507 0.104167,0.0944 0.494792,0.17579 0.966797,0.20833 1.383464,0.42317 0.419922,0.21159 0.608724,0.52735 0.192058,0.31575 0.192058,0.70638 0,0.45898 -0.253907,0.84635 -0.253906,0.38737 -0.709635,0.5892 -0.45573,0.19856 -1.149089,0.19856 -1.217449,0 -1.686199,-0.46875 -0.46875,-0.46875 -0.530599,-1.1914 z m 4.88607,-0.80404 q 0,-1.16862 0.651042,-1.81966 0.651042,-0.65104 1.813152,-0.65104 1.191406,0 1.835938,0.64127 0.644532,0.63802 0.644532,1.79037 0,0.83659 -0.283204,1.3737 -0.279948,0.53385 -0.813802,0.83333 -0.530599,0.29622 -1.324871,0.29622 -0.807292,0 -1.337891,-0.25716 -0.527344,-0.25716 -0.85612,-0.8138 -0.328776,-0.55664 -0.328776,-1.39323 z m 1.47461,0.007 q 0,0.72266 0.266927,1.03841 0.270182,0.31576 0.732422,0.31576 0.475261,0 0.735678,-0.30925 0.260416,-0.30924 0.260416,-1.11002 0,-0.67383 -0.273437,-0.98308 -0.270183,-0.3125 -0.735678,-0.3125 -0.445963,0 -0.716146,0.31576 -0.270182,0.31575 -0.270182,1.04492 z m 4.270835,-2.39583 h 3.645835 v 1.02539 h -2.164714 v 0.83333 h 1.848959 v 0.96354 h -1.848959 v 1.94987 h -1.481121 z m 4.10482,0 h 4.482424 v 1.17838 h -1.503907 v 3.59375 h -1.47461 v -3.59375 h -1.503907 z"
       id="text33"
       style="font-size:6.66667px;font-family:'Arial Black';-inkscape-font-specification:'Arial Black, ';fill:#2b1100"
       aria-label="SOFT" />
    <g
       id="g163" />
    <g
       id="g171" />
    <g
       id="g179"
       transform="translate(94.973984,-1.1487889)">
      <path
         d="m 11.085311,316.50394 q 0,-1.40235 0.78125,-2.1836 0.78125,-0.78125 2.175781,-0.78125 1.429688,0 2.203125,0.76953 0.773438,0.76563 0.773438,2.14844 0,1.00391 -0.339844,1.64844 -0.335938,0.64062 -0.976563,1 -0.636718,0.35547 -1.589843,0.35547 -0.96875,0 -1.605469,-0.3086 -0.632813,-0.30859 -1.027344,-0.97656 -0.394531,-0.66797 -0.394531,-1.67187 z m 1.769531,0.008 q 0,0.86719 0.320313,1.24609 0.324218,0.37891 0.878906,0.37891 0.570312,0 0.882812,-0.37109 0.3125,-0.3711 0.3125,-1.33204 0,-0.80859 -0.328125,-1.17968 -0.324218,-0.375 -0.882812,-0.375 -0.535156,0 -0.859375,0.3789 -0.324219,0.37891 -0.324219,1.25391 z m 8.84375,-2.875 h 1.765625 v 3.41406 q 0,0.50781 -0.160156,0.96094 -0.15625,0.44922 -0.496094,0.78906 -0.335937,0.33594 -0.707031,0.47266 -0.515625,0.1914 -1.238281,0.1914 -0.417969,0 -0.914063,-0.0586 -0.492187,-0.0586 -0.824219,-0.23047 -0.332031,-0.17578 -0.609375,-0.49609 -0.273437,-0.32031 -0.375,-0.66016 -0.164062,-0.54687 -0.164062,-0.96875 v -3.41406 h 1.765625 v 3.49609 q 0,0.46875 0.257812,0.73438 0.261719,0.26172 0.722657,0.26172 0.457031,0 0.714843,-0.25782 0.261719,-0.26171 0.261719,-0.73828 z m 2.535156,0 h 5.378907 v 1.41406 h -1.804688 v 4.3125 h -1.769531 v -4.3125 h -1.804688 z"
         id="text1"
         style="font-size:8px;font-family:'Arial Black';-inkscape-font-specification:'Arial Black, ';fill:#ffffff"
         aria-label="OUT" />
    </g>
    <path
       d="m 73.373805,316.7546 1.402995,-0.0879 q 0.04557,0.34179 0.185547,0.52083 0.227865,0.28971 0.651042,0.28971 0.315756,0 0.485027,-0.14648 0.172526,-0.14974 0.172526,-0.34505 0,-0.18555 -0.162761,-0.33203 -0.16276,-0.14649 -0.755209,-0.2767 -0.970052,-0.2181 -1.383464,-0.57942 -0.416667,-0.36133 -0.416667,-0.92123 0,-0.36784 0.211589,-0.69336 0.214844,-0.32877 0.641276,-0.51432 0.429688,-0.1888 1.175131,-0.1888 0.914714,0 1.39323,0.34179 0.481771,0.33854 0.572917,1.08073 l -1.389975,0.0814 q -0.05534,-0.32226 -0.234375,-0.46875 -0.175781,-0.14648 -0.488281,-0.14648 -0.257162,0 -0.38737,0.11068 -0.130209,0.10742 -0.130209,0.26367 0,0.11393 0.107422,0.20508 0.104167,0.0944 0.494792,0.17578 0.966797,0.20833 1.383464,0.42317 0.419922,0.21159 0.608725,0.52735 0.192057,0.31575 0.192057,0.70638 0,0.45898 -0.253906,0.84635 -0.253907,0.38737 -0.709636,0.5892 -0.45573,0.19856 -1.149089,0.19856 -1.217449,0 -1.686199,-0.46875 -0.46875,-0.46875 -0.530599,-1.1914 z m 4.589846,-3.19336 h 1.63737 l 0.963543,1.61133 0.963542,-1.61133 h 1.627605 l -1.85547,2.77344 v 1.99869 h -1.477865 v -1.99869 z m 5.677086,0 h 1.376954 l 1.796875,2.63997 v -2.63997 h 1.389975 v 4.77213 h -1.389975 l -1.78711,-2.62044 v 2.62044 h -1.386719 z m 8.720707,2.82226 1.292318,0.39063 q -0.130208,0.54362 -0.410156,0.9082 -0.279948,0.36459 -0.696615,0.55013 -0.413412,0.18555 -1.054688,0.18555 -0.777996,0 -1.272787,-0.22461 -0.491537,-0.22786 -0.84961,-0.79753 -0.358073,-0.56966 -0.358073,-1.45833 0,-1.1849 0.628255,-1.81966 0.631511,-0.63802 1.783855,-0.63802 0.901693,0 1.416017,0.36458 0.517578,0.36458 0.768229,1.11979 l -1.302084,0.28972 q -0.06836,-0.2181 -0.143229,-0.31902 -0.123698,-0.16927 -0.302735,-0.26041 -0.179036,-0.0911 -0.40039,-0.0911 -0.501303,0 -0.76823,0.40365 -0.201823,0.29948 -0.201823,0.94075 0,0.79428 0.240886,1.0905 0.240885,0.29297 0.677083,0.29297 0.423177,0 0.638021,-0.23763 0.218099,-0.23763 0.315756,-0.69011 z"
       id="text29"
       style="font-size:6.66667px;font-family:'Arial Black';-inkscape-font-specification:'Arial Black, ';fill:#2b1100"
       aria-label="SYNC" />
    <path
       d="M 40.274131,313.57894 H 41.8171 l 1.074219,3.43424 1.057943,-3.43424 h 1.497397 l -1.770834,4.77213 h -1.598308 z m 6.363935,-0.0814 h 0.677083 l -1.197917,4.93164 h -0.670573 z m 0.960287,2.4707 q 0,-1.16862 0.651042,-1.81966 0.651042,-0.65104 1.813151,-0.65104 1.191407,0 1.835939,0.64127 0.644531,0.63802 0.644531,1.79037 0,0.83659 -0.283203,1.3737 -0.279948,0.53385 -0.813802,0.83333 -0.5306,0.29622 -1.324871,0.29622 -0.807292,0 -1.337891,-0.25716 -0.527344,-0.25716 -0.85612,-0.8138 -0.328776,-0.55664 -0.328776,-1.39323 z m 1.47461,0.007 q 0,0.72266 0.266927,1.03841 0.270182,0.31576 0.732422,0.31576 0.475261,0 0.735678,-0.30925 0.260416,-0.30924 0.260416,-1.11002 0,-0.67383 -0.273437,-0.98308 -0.270183,-0.3125 -0.735678,-0.3125 -0.445964,0 -0.716146,0.31576 -0.270182,0.31575 -0.270182,1.04492 z m 7.44141,0.42643 1.292318,0.39063 q -0.130208,0.54362 -0.410156,0.9082 -0.279948,0.36459 -0.696615,0.55013 -0.413412,0.18555 -1.054688,0.18555 -0.777995,0 -1.272787,-0.22461 -0.491537,-0.22786 -0.84961,-0.79753 -0.358073,-0.56966 -0.358073,-1.45833 0,-1.1849 0.628256,-1.81966 0.63151,-0.63802 1.783855,-0.63802 0.901693,0 1.416016,0.36458 0.517578,0.36458 0.768229,1.11979 l -1.302084,0.28972 q -0.06836,-0.2181 -0.143229,-0.31901 -0.123698,-0.16928 -0.302734,-0.26042 -0.179037,-0.0912 -0.400391,-0.0912 -0.501302,0 -0.76823,0.40365 -0.201823,0.29948 -0.201823,0.94075 0,0.79428 0.240886,1.0905 0.240885,0.29297 0.677083,0.29297 0.423178,0 0.638022,-0.23763 0.218099,-0.23763 0.315755,-0.69011 z m 1.673177,-2.82226 h 4.482424 v 1.17838 h -1.503907 v 3.59375 h -1.47461 v -3.59375 H 58.18755 Z"
       id="text30"
       style="font-size:6.66667px;font-family:'Arial Black';-inkscape-font-specification:'Arial Black, ';fill:#2b1100"
       aria-label="V/OCT" />
    <path
       d="m 14.529125,313.64345 h 3.645835 v 1.02539 h -2.164714 v 0.83334 h 1.848959 v 0.96354 h -1.848959 v 1.94987 h -1.481121 z m 4.42383,0 h 1.940105 l 0.748699,2.90365 0.745443,-2.90365 h 1.933594 v 4.77214 h -1.204427 v -3.63933 l -0.934245,3.63933 h -1.090496 l -0.93099,-3.63933 v 3.63933 h -1.207683 z"
       id="text31"
       style="font-size:6.66667px;font-family:'Arial Black';-inkscape-font-specification:'Arial Black, ';fill:#2b1100"
       aria-label="FM" />
    <path
       d="m 44.324612,265.88454 h 1.47461 v 3.59701 h 2.301433 v 1.17513 h -3.776043 z m 4.453127,0 h 3.645835 v 1.02539 h -2.164715 v 0.83333 h 1.84896 v 0.96355 h -1.84896 v 1.94987 h -1.48112 z m 4.42383,0 h 1.940105 l 0.748699,2.90365 0.745443,-2.90365 h 1.933594 v 4.77214 h -1.204427 v -3.63933 l -0.934246,3.63933 h -1.090495 l -0.93099,-3.63933 v 3.63933 h -1.207683 z"
       id="text32"
       style="font-size:6.66667px;font-family:'Arial Black';-inkscape-font-specification:'Arial Black, ';fill:#2b1100"
       aria-label="LFM" />
    <path
       d="m 57.968108,48.656516 h 3.645835 v 1.025391 h -2.164714 v 0.833334 h 1.848959 v 0.963542 h -1.848959 v 1.949871 h -1.481121 z m 4.459638,4.772138 v -4.772138 h 2.457683 q 0.683594,0 1.044922,0.117188 0.361329,0.117187 0.582683,0.436198 0.221354,0.315755 0.221354,0.771484 0,0.397136 -0.169271,0.68685 -0.169271,0.286458 -0.465495,0.465495 -0.188802,0.113932 -0.517578,0.188802 0.263672,0.08789 0.384115,0.175781 0.08138,0.05859 0.234375,0.250651 0.15625,0.192058 0.208333,0.296225 l 0.712891,1.383464 H 65.455091 L 64.66733,51.97032 q -0.14974,-0.283204 -0.266927,-0.367839 -0.159506,-0.110677 -0.361329,-0.110677 h -0.130208 v 1.93685 z m 1.48112,-2.838543 h 0.621745 q 0.100912,0 0.390625,-0.06511 0.146485,-0.0293 0.237631,-0.149739 0.0944,-0.120443 0.0944,-0.276693 0,-0.23112 -0.146485,-0.354818 -0.146484,-0.123698 -0.55013,-0.123698 h -0.647787 z m 3.681642,-1.933595 h 3.951825 v 1.018881 h -2.473959 v 0.758464 h 2.294923 v 0.973307 h -2.294923 v 0.940756 h 2.545574 v 1.08073 h -4.02344 z m 9.055994,4.075523 q 0.276693,0.192057 0.361328,0.240885 0.126953,0.07162 0.341797,0.166016 l -0.410156,0.826823 q -0.309245,-0.149739 -0.61198,-0.358073 -0.302734,-0.205078 -0.423177,-0.309245 -0.488281,0.211589 -1.223959,0.211589 -1.08724,0 -1.715495,-0.566407 -0.742188,-0.670573 -0.742188,-1.884766 0,-1.178386 0.647786,-1.829428 0.651042,-0.654297 1.816408,-0.654297 1.188151,0 1.832683,0.638021 0.647786,0.638021 0.647786,1.826173 0,1.057943 -0.520833,1.692709 z M 75.516944,51.97683 q 0.175781,-0.315755 0.175781,-0.944011 0,-0.722656 -0.270182,-1.031901 -0.266927,-0.309245 -0.738933,-0.309245 -0.439453,0 -0.712891,0.315755 -0.273437,0.315755 -0.273437,0.986329 0,0.78125 0.266927,1.097005 0.266927,0.315756 0.732422,0.315756 0.14974,0 0.283203,-0.0293 -0.185547,-0.179037 -0.585937,-0.338542 l 0.23112,-0.530599 q 0.195312,0.03581 0.302734,0.08789 0.110677,0.05208 0.426433,0.273437 0.07487,0.05208 0.16276,0.107422 z"
       id="text34"
       style="font-size:6.66667px;font-family:'Arial Black';-inkscape-font-specification:'Arial Black, ';fill:#2b1100"
       aria-label="FREQ" />
  </g>
  <g
     id="fa53a534-7e67-46f9-bb82-6d4962d493ba"
     data-name="components"
     inkscape:groupmode="layer"
     style="display:none">
    <circle
       id="eeb44770-dee8-418f-8dcd-f36b7f0f00a1"
       data-name="Freq#SmallLight"
       cx="91.796944"
       cy="48.5079"
       r="3"
       style="fill:#ff00ff" />
    <circle
       id="a2b7d26d-cf28-4002-b799-20b6cfdb0d84"
       data-name="Soft#LEDButton"
       cx="83.509338"
       cy="286"
       r="5"
       style="fill:#ff0000" />
    <circle
       id="e0311624-14c1-4e8e-8557-36d615817f1d"
       data-name="Lfm#LEDButton"
       cx="51.509338"
       cy="286"
       r="5"
       style="fill:#ff0000" />
    <circle
       id="afe7ff05-809e-4034-9f5e-9a74f4549133"
       data-name="Sync#PJ301MPort"
       cx="83.509338"
       cy="334"
       r="5"
       style="fill:#00ff00" />
    <circle
       id="a315d13b-dc53-4eaf-bde6-30eac39fcbdf"
       data-name="Pitch#PJ301MPort"
       cx="51.509338"
       cy="334"
       r="5"
       style="fill:#00ff00" />
    <circle
       id="b3a627e6-2c38-4022-9965-f762a4bf17a9"
       data-name="Sqr#PJ301MPort"
       cx="115.50934"
       cy="334"
       r="5"
       style="fill:#0000ff" />
    <circle
       id="ac17fe1a-f789-4784-aa3a-781fc99ae73a"
       data-name="Freq#RoundHugeBlackKnob"
       cx="67.633141"
       cy="88.016998"
       r="5"
       style="fill:#ff0000" />
    <circle
       id="fe499126-b4fb-4162-8957-38fadff3f33e"
       data-name="Fm#PJ301MPort"
       cx="19.50939"
       cy="334"
       r="5"
       style="fill:#00ff00" />
    <circle
       id="acc0b878-9356-4555-9f39-64d69ce4b4b8"
       data-name="FmCv#Trimpot"
       cx="19.50939"
       cy="286"
       r="5"
       style="fill:#ff0000" />
    <circle
       id="acc0b878-9356-4555-9f39-64d69ce4b4b8-8"
       data-name="FmCv#Trimpot"
       cx="19.481524"
       cy="192.00938"
       r="5"
       style="display:inline;fill:#ff0000" />
    <circle
       id="acc0b878-9356-4555-9f39-64d69ce4b4b8-8-1"
       data-name="FmCv#Trimpot"
       cx="51.274563"
       cy="191.99997"
       r="5"
       style="display:inline;fill:#ff0000" />
    <circle
       id="acc0b878-9356-4555-9f39-64d69ce4b4b8-8-15"
       data-name="FmCv#Trimpot"
       cx="115.43307"
       cy="192.26537"
       r="5"
       style="display:inline;fill:#ff0000" />
    <circle
       id="acc0b878-9356-4555-9f39-64d69ce4b4b8-8-0"
       data-name="FmCv#Trimpot"
       cx="83.478394"
       cy="191.89803"
       r="5"
       style="display:inline;fill:#ff0000"
       inkscape:transform-center-x="27.838619"
       inkscape:transform-center-y="-1.2653918" />
    <circle
       id="acc0b878-9356-4555-9f39-64d69ce4b4b8-8-4"
       data-name="FmCv#Trimpot"
       cx="19.547802"
       cy="144.40167"
       r="5"
       style="display:inline;fill:#ff0000" />
    <circle
       id="acc0b878-9356-4555-9f39-64d69ce4b4b8-8-1-5"
       data-name="FmCv#Trimpot"
       cx="51.340839"
       cy="144.39226"
       r="5"
       style="display:inline;fill:#ff0000" />
    <circle
       id="acc0b878-9356-4555-9f39-64d69ce4b4b8-8-15-8"
       data-name="FmCv#Trimpot"
       cx="115.49933"
       cy="144.65765"
       r="5"
       style="display:inline;fill:#ff0000" />
    <circle
       id="acc0b878-9356-4555-9f39-64d69ce4b4b8-8-0-8"
       data-name="FmCv#Trimpot"
       cx="83.54467"
       cy="144.29031"
       r="5"
       style="display:inline;fill:#ff0000"
       inkscape:transform-center-x="27.838619"
       inkscape:transform-center-y="-1.2653918" />
  </g>
  <path
     d="m 16.369963,124.78555 v 4.85352 h -1.341146 v -3.18034 q -0.325521,0.24739 -0.631511,0.40039 -0.302735,0.15299 -0.761719,0.29297 v -1.08724 q 0.677083,-0.2181 1.051432,-0.52409 0.37435,-0.30599 0.585938,-0.75521 z m 2.363282,0 h 0.677084 l -1.197917,4.93164 h -0.670574 z m 4.8112,4.85352 h -3.977866 q 0.06836,-0.58919 0.413412,-1.10677 0.348307,-0.52084 1.302084,-1.22722 0.582682,-0.43294 0.745443,-0.65755 0.16276,-0.22461 0.16276,-0.42643 0,-0.2181 -0.16276,-0.3711 -0.159506,-0.15625 -0.403646,-0.15625 -0.253907,0 -0.416667,0.15951 -0.159506,0.1595 -0.214844,0.56315 l -1.328126,-0.10742 q 0.07813,-0.5599 0.286459,-0.8724 0.208333,-0.31575 0.585937,-0.48177 0.38086,-0.16927 1.051433,-0.16927 0.69987,0 1.08724,0.15951 0.390626,0.1595 0.61198,0.49153 0.224609,0.32878 0.224609,0.73894 0,0.43619 -0.257161,0.83333 -0.253907,0.39713 -0.927735,0.8724 -0.400391,0.27669 -0.53711,0.38737 -0.133463,0.11067 -0.315755,0.28971 h 2.070313 z m 0.569663,-4.77214 h 1.321615 v 0.78776 l -0.208334,0.9668 h -0.898438 l -0.214843,-0.9668 z"
     id="text35"
     style="font-size:6.66667px;font-family:'Arial Black';-inkscape-font-specification:'Arial Black, ';fill:#2b1100"
     aria-label="1/2'" />
  <path
     d="m 19.014268,176.64521 h -2.415366 v -1.09049 l 2.415366,-2.8711 h 1.155599 v 2.93295 h 0.598959 v 1.02864 h -0.598959 v 0.89193 h -1.155599 z m 0,-1.02864 v -1.50066 l -1.276043,1.50066 z m 2.171224,-2.85157 h 1.321616 v 0.78776 l -0.208334,0.9668 h -0.898438 l -0.214844,-0.9668 z"
     id="text35-0"
     style="font-size:6.66667px;font-family:'Arial Black';-inkscape-font-specification:'Arial Black, ';fill:#2b1100"
     aria-label="4'" />
  <path
     d="m 46.662647,126.22062 -1.253256,-0.22461 q 0.15625,-0.59896 0.598959,-0.91797 0.445963,-0.31901 1.259766,-0.31901 0.934245,0 1.350912,0.34831 0.416667,0.34831 0.416667,0.87565 0,0.30924 -0.169271,0.5599 -0.169271,0.25065 -0.511068,0.43945 0.276693,0.0684 0.423177,0.1595 0.23763,0.14649 0.367839,0.38737 0.133463,0.23763 0.133463,0.56967 0,0.41666 -0.218099,0.80078 -0.218099,0.38086 -0.628255,0.58919 -0.410157,0.20508 -1.077475,0.20508 -0.651042,0 -1.028646,-0.153 -0.374349,-0.15299 -0.61849,-0.44596 -0.240885,-0.29622 -0.371094,-0.74219 l 1.324871,-0.17578 q 0.07813,0.40039 0.240885,0.55664 0.166016,0.153 0.419922,0.153 0.266928,0 0.442709,-0.19532 0.179036,-0.19531 0.179036,-0.52083 0,-0.33203 -0.172526,-0.51432 -0.169271,-0.18229 -0.46224,-0.18229 -0.15625,0 -0.429687,0.0781 l 0.06836,-0.94727 q 0.110677,0.0163 0.172526,0.0163 0.260417,0 0.432943,-0.16601 0.175782,-0.16602 0.175782,-0.39389 0,-0.21809 -0.130209,-0.3483 -0.130208,-0.13021 -0.358073,-0.13021 -0.234375,0 -0.380859,0.14323 -0.146485,0.13997 -0.198568,0.49479 z m 4.082033,-1.46159 h 0.677084 l -1.197918,4.93164 h -0.670573 z m 4.8112,4.85352 h -3.977866 q 0.06836,-0.58919 0.413411,-1.10677 0.348308,-0.52084 1.302084,-1.22722 0.582683,-0.43294 0.745443,-0.65755 0.162761,-0.22461 0.162761,-0.42643 0,-0.2181 -0.162761,-0.3711 -0.159505,-0.15625 -0.403646,-0.15625 -0.253906,0 -0.416667,0.15951 -0.159505,0.15951 -0.214844,0.56315 l -1.328125,-0.10742 q 0.07813,-0.5599 0.286458,-0.8724 0.208334,-0.31575 0.585938,-0.48177 0.38086,-0.16927 1.051433,-0.16927 0.69987,0 1.08724,0.15951 0.390625,0.1595 0.611979,0.49153 0.22461,0.32878 0.22461,0.73894 0,0.43619 -0.257162,0.83333 -0.253906,0.39713 -0.927735,0.8724 -0.40039,0.27669 -0.537109,0.38737 -0.133464,0.11067 -0.315756,0.28971 h 2.070314 z m 0.569662,-4.77214 h 1.321615 v 0.78776 l -0.208333,0.9668 h -0.898438 l -0.214844,-0.9668 z"
     id="text35-4"
     style="font-size:6.66667px;font-family:'Arial Black';-inkscape-font-specification:'Arial Black, ';fill:#2b1100"
     aria-label="3/2'" />
  <path
     d="m 49.114411,172.72475 h 3.147788 v 1.05794 h -2.132163 l -0.113932,0.71615 q 0.221354,-0.10417 0.436198,-0.15625 0.218099,-0.0521 0.429688,-0.0521 0.716146,0 1.16211,0.43294 0.445963,0.43294 0.445963,1.09049 0,0.46224 -0.231119,0.88868 -0.227865,0.42643 -0.651042,0.65104 -0.419923,0.22461 -1.077475,0.22461 -0.472005,0 -0.810547,-0.0879 -0.335287,-0.0911 -0.572917,-0.26693 -0.234375,-0.17904 -0.38086,-0.40365 -0.146484,-0.22461 -0.24414,-0.55989 l 1.341146,-0.14649 q 0.04883,0.32227 0.227865,0.49154 0.179036,0.16602 0.426432,0.16602 0.276693,0 0.45573,-0.20834 0.182291,-0.21159 0.182291,-0.62825 0,-0.42644 -0.182291,-0.625 -0.182292,-0.19857 -0.485027,-0.19857 -0.192057,0 -0.371094,0.0944 -0.133463,0.0684 -0.292968,0.2474 l -1.129558,-0.16277 z m 3.912762,0 h 1.321615 v 0.78776 l -0.208333,0.9668 h -0.898438 l -0.214844,-0.9668 z"
     id="text35-4-2"
     style="font-size:6.66667px;font-family:'Arial Black';-inkscape-font-specification:'Arial Black, ';fill:#2b1100"
     aria-label="5'" />
  <path
     d="m 84.307238,173.79868 -1.31836,0.16276 q -0.05208,-0.27669 -0.175782,-0.39063 -0.120442,-0.11393 -0.299479,-0.11393 -0.322266,0 -0.501302,0.32552 -0.130209,0.23438 -0.192058,1.00261 0.237631,-0.24089 0.488282,-0.35482 0.250651,-0.11719 0.579427,-0.11719 0.638021,0 1.077475,0.45573 0.442708,0.45573 0.442708,1.1556 0,0.47201 -0.224609,0.86263 -0.221355,0.39063 -0.61849,0.59245 -0.393881,0.19857 -0.989584,0.19857 -0.716146,0 -1.149089,-0.24414 -0.432943,-0.24414 -0.69336,-0.778 -0.257161,-0.53711 -0.257161,-1.41927 0,-1.29232 0.54362,-1.89128 0.54362,-0.60221 1.507162,-0.60221 0.569662,0 0.898438,0.13346 0.332031,0.13021 0.55013,0.38412 0.218099,0.2539 0.332032,0.63802 z m -2.441408,2.12565 q 0,0.38737 0.195313,0.60873 0.195312,0.21809 0.478516,0.21809 0.260417,0 0.436198,-0.19856 0.175781,-0.19857 0.175781,-0.59245 0,-0.40365 -0.182292,-0.61524 -0.182291,-0.21159 -0.452474,-0.21159 -0.276693,0 -0.465495,0.20508 -0.185547,0.20508 -0.185547,0.58594 z m 3.053387,-3.19987 h 1.321615 v 0.78776 l -0.208333,0.9668 h -0.898438 l -0.214844,-0.9668 z"
     id="text35-4-9"
     style="font-size:6.66667px;font-family:'Arial Black';-inkscape-font-specification:'Arial Black, ';fill:#2b1100"
     aria-label="6'" />
  <path
     d="m 113.96444,126.26118 -1.25326,-0.22461 q 0.15625,-0.59896 0.59896,-0.91797 0.44596,-0.31901 1.25976,-0.31901 0.93425,0 1.35092,0.34831 0.41666,0.3483 0.41666,0.87565 0,0.30924 -0.16927,0.55989 -0.16927,0.25065 -0.51107,0.43946 0.2767,0.0684 0.42318,0.1595 0.23763,0.14649 0.36784,0.38737 0.13346,0.23763 0.13346,0.56966 0,0.41667 -0.2181,0.80079 -0.21809,0.38086 -0.62825,0.58919 -0.41016,0.20508 -1.07748,0.20508 -0.65104,0 -1.02864,-0.153 -0.37435,-0.15299 -0.61849,-0.44596 -0.24089,-0.29623 -0.3711,-0.74219 l 1.32488,-0.17578 q 0.0781,0.40039 0.24088,0.55664 0.16602,0.15299 0.41992,0.15299 0.26693,0 0.44271,-0.19531 0.17904,-0.19531 0.17904,-0.52083 0,-0.33203 -0.17253,-0.51432 -0.16927,-0.1823 -0.46224,-0.1823 -0.15625,0 -0.42969,0.0781 l 0.0684,-0.94727 q 0.11068,0.0163 0.17253,0.0163 0.26042,0 0.43294,-0.16602 0.17578,-0.16601 0.17578,-0.39388 0,-0.2181 -0.1302,-0.3483 -0.13021,-0.13021 -0.35808,-0.13021 -0.23437,0 -0.38086,0.14323 -0.14648,0.13997 -0.19856,0.49479 z m 3.16406,-1.38021 h 1.32161 v 0.78776 l -0.20833,0.9668 h -0.89844 l -0.21484,-0.9668 z"
     id="text35-4-0"
     style="font-size:6.66667px;font-family:'Arial Black';-inkscape-font-specification:'Arial Black, ';fill:#2b1100"
     aria-label="3'" />
  <path
     d="m 113.49414,175.07936 q -0.3125,-0.16601 -0.45573,-0.37109 -0.19531,-0.27995 -0.19531,-0.64453 0,-0.59896 0.56315,-0.97982 0.43946,-0.29297 1.16211,-0.29297 0.95703,0 1.41276,0.36459 0.45899,0.36458 0.45899,0.91796 0,0.32227 -0.18229,0.60222 -0.13672,0.20833 -0.42969,0.40364 0.38737,0.18555 0.57617,0.49154 0.19206,0.30599 0.19206,0.67709 0,0.35807 -0.16602,0.67057 -0.16276,0.30924 -0.40364,0.47851 -0.23763,0.16928 -0.59571,0.2474 -0.35481,0.0814 -0.75846,0.0814 -0.75846,0 -1.15886,-0.17904 -0.40039,-0.17903 -0.60872,-0.52734 -0.20833,-0.34831 -0.20833,-0.778 0,-0.41992 0.19531,-0.70963 0.19531,-0.29297 0.60221,-0.45248 z m 0.59571,-0.9375 q 0,0.2474 0.15299,0.4004 0.15625,0.14973 0.41341,0.14973 0.22787,0 0.37435,-0.14973 0.14649,-0.14974 0.14649,-0.38737 0,-0.2474 -0.153,-0.4004 -0.15299,-0.15625 -0.39062,-0.15625 -0.24089,0 -0.39388,0.153 -0.14974,0.14974 -0.14974,0.39062 z m -0.0716,2.05404 q 0,0.31576 0.19206,0.51758 0.19206,0.19857 0.43945,0.19857 0.23763,0 0.42644,-0.20183 0.1888,-0.20507 0.1888,-0.51757 0,-0.31576 -0.19206,-0.51758 -0.1888,-0.20182 -0.43945,-0.20182 -0.2474,0 -0.43295,0.19531 -0.18229,0.19531 -0.18229,0.52734 z m 3.12826,-3.32357 h 1.32161 v 0.78776 l -0.20833,0.9668 h -0.89844 l -0.21484,-0.9668 z"
     id="text35-4-98"
     style="font-size:6.66667px;font-family:'Arial Black';-inkscape-font-specification:'Arial Black, ';fill:#2b1100"
     aria-label="8'" />
  <path
     d="m 84.359886,129.73297 h -3.977867 q 0.06836,-0.58919 0.413412,-1.10677 0.348307,-0.52083 1.302084,-1.22721 0.582682,-0.43295 0.745443,-0.65756 0.16276,-0.22461 0.16276,-0.42643 0,-0.2181 -0.16276,-0.37109 -0.159505,-0.15625 -0.403646,-0.15625 -0.253907,0 -0.416667,0.1595 -0.159505,0.15951 -0.214844,0.56315 l -1.328126,-0.10742 q 0.07813,-0.55989 0.286459,-0.87239 0.208333,-0.31576 0.585938,-0.48178 0.380859,-0.16927 1.051432,-0.16927 0.699871,0 1.087241,0.15951 0.390625,0.1595 0.611979,0.49154 0.22461,0.32877 0.22461,0.73893 0,0.4362 -0.257162,0.83333 -0.253906,0.39714 -0.927735,0.8724 -0.400391,0.27669 -0.53711,0.38737 -0.133463,0.11067 -0.315755,0.28971 h 2.070314 z m 0.569661,-4.77214 h 1.321615 v 0.78776 l -0.208333,0.9668 h -0.898438 l -0.214844,-0.9668 z"
     id="text35-3"
     style="font-size:6.66667px;font-family:'Arial Black';-inkscape-font-specification:'Arial Black, ';fill:#2b1100"
     aria-label="2'" />
</svg>
