<?xml version="1.0" encoding="UTF-8" standalone="no"?>
<svg
   width="135"
   height="380"
   viewBox="0 0 135 380"
   version="1.1"
   id="svg67"
   sodipodi:docname="McHammond-dark.svg"
   inkscape:version="1.3.2 (091e20e, 2023-11-25)"
   xmlns:inkscape="http://www.inkscape.org/namespaces/inkscape"
   xmlns:sodipodi="http://sodipodi.sourceforge.net/DTD/sodipodi-0.dtd"
   xmlns="http://www.w3.org/2000/svg"
   xmlns:svg="http://www.w3.org/2000/svg">
  <sodipodi:namedview
     id="namedview67"
     pagecolor="#ffffff"
     bordercolor="#000000"
     borderopacity="0.25"
     inkscape:showpageshadow="2"
     inkscape:pageopacity="0.0"
     inkscape:pagecheckerboard="0"
     inkscape:deskcolor="#d1d1d1"
     inkscape:zoom="4.0102955"
     inkscape:cx="126.54928"
     inkscape:cy="329.40216"
     inkscape:window-width="1280"
     inkscape:window-height="1387"
     inkscape:window-x="1280"
     inkscape:window-y="25"
     inkscape:window-maximized="0"
     inkscape:current-layer="svg67" />
  <defs
     id="defs2">
    <linearGradient
       id="uuid-542e9d6e-db0d-43bf-a934-cf57106f22aa"
       x1="67.5"
       y1="0"
       x2="67.5"
       y2="380"
       gradientUnits="userSpaceOnUse">
      <stop
         offset="0"
         stop-color="#2a2a2b"
         id="stop1" />
      <stop
         offset="1"
         stop-color="#171717"
         id="stop2" />
    </linearGradient>
  </defs>
  <g
     id="uuid-8a3e00ab-3a8f-4654-b6ea-60d5cd9d4ff0"
     data-name="FND BG">
    <rect
       width="135"
       height="380"
       fill="url(#uuid-542e9d6e-db0d-43bf-a934-cf57106f22aa)"
       id="rect2" />
  </g>
  <g
     id="uuid-a89de6aa-81a4-4570-b3f8-7ce0439fc845"
     data-name="FND GRAPH">
    <rect
       x="5.17486"
       y="309.03011"
       width="124.65028"
       height="39.19244"
       rx="2.83465"
       ry="2.83465"
       fill="#ededed"
       id="rect3" />
    <line
       x1="83.50382"
       y1="250.85185"
       x2="83.50382"
       y2="260.07654"
       fill="none"
       stroke="#ededed"
       stroke-linecap="round"
       stroke-linejoin="round"
       stroke-width=".8"
       id="line5" />
    <line
       x1="115.50934"
       y1="289.73853"
       x2="115.50934"
       y2="309.87506"
       fill="none"
       stroke="#ededed"
       stroke-linecap="round"
       stroke-linejoin="round"
       stroke-width=".8"
       id="line6" />
    <line
       x1="39.70021"
       y1="238"
       x2="33.91255"
       y2="238"
       fill="none"
       stroke="#ededed"
       stroke-linecap="round"
       stroke-linejoin="round"
       stroke-width=".8"
       id="line7" />
    <line
       x1="15.00384"
       y1="202"
       x2="120.00384"
       y2="202"
       fill="none"
       stroke="#ededed"
       stroke-linecap="round"
       stroke-linejoin="round"
       stroke-width=".8"
       id="line8" />
    <g
       id="g10">
      <circle
         cx="67.50634"
         cy="166.5"
         r="26.48818"
         fill="none"
         isolation="isolate"
         opacity=".69"
         id="circle8" />
      <path
         d="m78.30457,184.60266c6.2955-3.78272,10.15833-10.61025,10.15833-17.95479,0-11.491-9.45566-20.94666-20.94666-20.94666s-20.94666,9.45566-20.94666,20.94666c0,7.39639,3.91756,14.2646,10.28394,18.02967"
         fill="none"
         stroke="#ededed"
         stroke-linecap="round"
         stroke-miterlimit="10"
         stroke-width=".8"
         id="path8" />
      <line
         x1="78.30457"
         y1="184.60266"
         x2="67.50634"
         y2="166.5"
         fill="none"
         id="line9" />
      <line
         x1="67.51624"
         y1="145.70121"
         x2="67.51624"
         y2="159.12279"
         fill="none"
         stroke="#ededed"
         stroke-linecap="round"
         stroke-miterlimit="10"
         stroke-width=".8"
         id="line10" />
    </g>
    <g
       id="g11">
      <circle
         cx="67.63314"
         cy="88.017"
         r="38.44564"
         fill="none"
         isolation="isolate"
         opacity=".69"
         id="circle10" />
      <path
         d="m83.30597,114.29167c9.13745-5.49034,14.74407-15.4,14.74407-26.06006,0-16.67834-13.7242-30.40253-30.40253-30.40253s-30.40253,13.7242-30.40253,30.40253c0,10.73531,5.68605,20.70402,14.92638,26.16874"
         fill="none"
         stroke="#ededed"
         stroke-linecap="round"
         stroke-miterlimit="10"
         stroke-width=".8"
         id="path10" />
      <line
         x1="83.30597"
         y1="114.29167"
         x2="67.63314"
         y2="88.017"
         fill="none"
         id="line11" />
    </g>
    <g
       id="g13">
      <line
         x1="19.50939"
         y1="250.87459"
         x2="19.50939"
         y2="260.07654"
         fill="none"
         stroke="#ededed"
         stroke-linecap="round"
         stroke-linejoin="round"
         stroke-width=".8"
         id="line12" />
      <line
         x1="19.50939"
         y1="226.54018"
         x2="19.50939"
         y2="238.01957"
         fill="none"
         stroke="#ededed"
         stroke-linecap="round"
         stroke-linejoin="round"
         id="line13" />
      <path
         d="m11.35593,246.15346c-2.1616-2.1616-3.37728-5.09649-3.37728-8.15346,0-6.32558,5.20516-11.53074,11.53074-11.53074s11.53074,5.20516,11.53074,11.53074c0,3.05697-1.21567,5.99186-3.37728,8.15346"
         fill="none"
         stroke="#ededed"
         stroke-linecap="round"
         stroke-linejoin="round"
         id="path13" />
    </g>
    <line
       x1="27.66285"
       y1="246.15346"
       x2="19.50939"
       y2="238"
       fill="none"
       id="line14" />
    <line
       x1="19.50939"
       y1="238"
       x2="11.35593"
       y2="246.15346"
       fill="none"
       id="line15" />
    <g
       id="g17">
      <line
         x1="115.50638"
         y1="250.87459"
         x2="115.50638"
         y2="260.07654"
         fill="none"
         stroke="#ededed"
         stroke-linecap="round"
         stroke-linejoin="round"
         stroke-width=".8"
         id="line16" />
      <line
         x1="115.50638"
         y1="226.54018"
         x2="115.50638"
         y2="238.01957"
         fill="none"
         stroke="#ededed"
         stroke-linecap="round"
         stroke-linejoin="round"
         id="line17" />
      <path
         d="m107.35292,246.15346c-2.1616-2.1616-3.37728-5.09649-3.37728-8.15346,0-6.32558,5.20516-11.53074,11.53074-11.53074s11.53074,5.20516,11.53074,11.53074c0,3.05697-1.21567,5.99186-3.37728,8.15346"
         fill="none"
         stroke="#ededed"
         stroke-linecap="round"
         stroke-linejoin="round"
         id="path17" />
    </g>
  </g>
  <g
     id="uuid-8b54a38b-799b-4896-806d-263b029f6387"
     data-name="FND TXT">
    <g
       id="g21">
      <path
         d="m74.19824,221.52686c-.09473-.06787-.16211-.18311-.16211-.31836,0-.2168.17578-.38623.39258-.38623.11523,0,.18945.03418.24414.07471.39258.31152.8125.48779,1.32812.48779.51465,0,.83984-.24414.83984-.59619v-.01367c0-.33838-.18945-.52148-1.07031-.7251-1.00977-.24365-1.5791-.54199-1.5791-1.41602v-.01318c0-.81299.67773-1.37549,1.61914-1.37549.59668,0,1.07764.15625,1.50439.44043.09521.0542.18311.16943.18311.33203,0,.2168-.17627.38623-.39307.38623-.08154,0-.14893-.02051-.2168-.06104-.36572-.2373-.71826-.35938-1.09082-.35938-.48779,0-.77197.25098-.77197.5625v.01367c0,.36572.2168.52832,1.13086.74512,1.00293.24414,1.51758.60303,1.51758,1.38867v.01367c0,.8877-.69727,1.41602-1.69336,1.41602-.64355,0-1.25391-.20312-1.78223-.59619Z"
         fill="#ebebeb"
         id="path18" />
      <path
         d="m78.59375,219.69775v-.01367c0-1.33447,1.03027-2.45264,2.48633-2.45264,1.45703,0,2.47314,1.10449,2.47314,2.43945v.01318c0,1.33447-1.02979,2.45264-2.48633,2.45264s-2.47314-1.10449-2.47314-2.43896Zm4.08594,0v-.01367c0-.92139-.6709-1.68701-1.61279-1.68701s-1.59912.75195-1.59912,1.67383v.01318c0,.92139.6709,1.68018,1.6123,1.68018.94238,0,1.59961-.74512,1.59961-1.6665Z"
         fill="#ebebeb"
         id="path19" />
      <path
         d="m84.77051,217.73291c0-.23682.18262-.41992.41992-.41992h2.76416c.20996,0,.37939.16943.37939.37939s-.16943.37939-.37939.37939h-2.35107v1.29395h2.0459c.20996,0,.37988.16943.37988.37939s-.16992.37939-.37988.37939h-2.0459v1.55127c0,.23047-.18262.41357-.41309.41357-.2373,0-.41992-.18311-.41992-.41357v-3.94287Z"
         fill="#ebebeb"
         id="path20" />
      <path
         d="m90.68848,218.08545h-1.15186c-.2168,0-.38623-.17627-.38623-.38623s.16943-.38623.38623-.38623h3.15039c.20996,0,.37939.17627.37939.38623s-.16943.38623-.37939.38623h-1.15869v3.59033c0,.23047-.18945.41357-.41992.41357s-.41992-.18311-.41992-.41357v-3.59033Z"
         fill="#ebebeb"
         id="path21" />
    </g>
    <g
       id="g24">
      <path
         d="m44.7085,218.73584c0-.23047.18262-.41357.41992-.41357.23047,0,.41309.18311.41309.41357v3.604h2.14795c.20996,0,.37939.16943.37939.37939s-.16943.37939-.37939.37939h-2.56104c-.2373,0-.41992-.18311-.41992-.41992v-3.94287Z"
         fill="#ebebeb"
         id="path22" />
      <path
         d="m49.06152,218.77637c0-.2373.18262-.42041.41992-.42041h2.76416c.20996,0,.37939.16943.37939.37988,0,.20996-.16943.37891-.37939.37891h-2.35107v1.29443h2.04639c.20996,0,.37939.16943.37939.37939s-.16943.37939-.37939.37939h-2.04639v1.55127c0,.23047-.18262.41309-.41309.41309-.2373,0-.41992-.18262-.41992-.41309v-3.94287Z"
         fill="#ebebeb"
         id="path23" />
      <path
         d="m53.64404,218.74902c0-.22998.18262-.41992.41992-.41992h.08789c.18311,0,.30518.09473.38623.22363l1.43652,2.24902,1.44287-2.25586c.08838-.14209.20996-.2168.37939-.2168h.08789c.2373,0,.42041.18994.42041.41992v3.97021c0,.23047-.18311.41309-.42041.41309-.22314,0-.41309-.18945-.41309-.41309v-2.8457l-1.1582,1.74121c-.08838.13574-.19678.2168-.35254.2168-.14893,0-.25732-.08105-.3457-.2168l-1.15137-1.72754v2.83887c0,.23047-.18311.40625-.41357.40625-.22998,0-.40625-.17578-.40625-.40625v-3.97705Z"
         fill="#ebebeb"
         id="path24" />
    </g>
    <g
       id="g28">
      <path
         d="m55.99561,45.78955c0-.29199.22559-.51758.51758-.51758h3.40576c.2583,0,.46729.20898.46729.46777s-.20898.46729-.46729.46729h-2.89648v1.59424h2.52051c.25879,0,.46777.2085.46777.46729s-.20898.46729-.46777.46729h-2.52051v1.91162c0,.28369-.22559.50879-.50928.50879-.29199,0-.51758-.2251-.51758-.50879v-4.85791Z"
         fill="#ebebeb"
         id="path25" />
      <path
         d="m61.56982,45.78955c0-.29199.22559-.51758.51758-.51758h2.08691c.73438,0,1.31006.21729,1.68604.58447.30859.31738.48389.75098.48389,1.26025v.0166c0,.93506-.54248,1.50244-1.32715,1.74463l1.11865,1.41064c.1001.125.16699.2334.16699.39209,0,.28369-.24219.47559-.49268.47559-.23389,0-.38379-.1084-.50098-.26709l-1.41846-1.81104h-1.29395v1.56934c0,.28369-.22559.50879-.50928.50879-.29199,0-.51758-.2251-.51758-.50879v-4.85791Zm2.5293,2.37891c.73438,0,1.20166-.38379,1.20166-.97656v-.0166c0-.62598-.45068-.96826-1.20996-.96826h-1.49414v1.96143h1.50244Z"
         fill="#ebebeb"
         id="path26" />
      <path
         d="m67.8252,50.59717v-4.80762c0-.29199.22559-.51758.51758-.51758h3.39697c.25049,0,.45947.20898.45947.45947,0,.2583-.20898.45898-.45947.45898h-2.8877v1.51904h2.51221c.25049,0,.45898.2085.45898.46729,0,.25049-.2085.45068-.45898.45068h-2.51221v1.56934h2.92969c.25049,0,.45898.2085.45898.45898,0,.25879-.2085.45898-.45898.45898h-3.43896c-.29199,0-.51758-.22559-.51758-.51758Z"
         fill="#ebebeb"
         id="path27" />
      <path
         d="m73.18506,48.20996v-.0166c0-1.64404,1.26855-3.02148,3.06299-3.02148s3.04639,1.36084,3.04639,3.00488v.0166c0,.65967-.2168,1.28564-.59229,1.79443l.37549.30908c.1167.1001.19189.2251.19189.40039,0,.26709-.21729.49268-.48438.49268-.1499,0-.26709-.05859-.35889-.15039l-.41699-.37549c-.49268.35059-1.10205.55078-1.77783.55078-1.79443,0-3.04639-1.36035-3.04639-3.00488Zm3.15479.76807c0-.26709.2168-.49268.48389-.49268.15039,0,.24219.05029.35889.15039l.75146.68457c.18359-.31738.28369-.69287.28369-1.11035v-.0166c0-1.13525-.82617-2.07812-1.98633-2.07812s-1.96973.92627-1.96973,2.06152v.0166c0,1.13525.82617,2.06982,1.98633,2.06982.38379,0,.72607-.1001,1.00977-.26709l-.72607-.61719c-.1167-.10059-.19189-.22559-.19189-.40088Z"
         fill="#ebebeb"
         id="path28" />
    </g>
    <g
       id="g38">
      <path
         d="m37.40771,133.29443c0-.29199.22559-.51758.51758-.51758h1.78613c1.36914,0,2.22021.77637,2.22021,1.95312v.01709c0,1.31006-1.05176,1.99463-2.33691,1.99463h-1.16016v1.41064c0,.28369-.22559.50879-.50928.50879-.29199,0-.51758-.2251-.51758-.50879v-4.85791Zm2.22021,2.521c.77637,0,1.26074-.43408,1.26074-1.04346v-.0166c0-.68457-.49268-1.04346-1.26074-1.04346h-1.19336v2.10352h1.19336Z"
         fill="#ebebeb"
         id="path29" />
      <path
         d="m43.0498,136.14062v-2.896c0-.28418.22559-.50928.51758-.50928.28369,0,.50928.2251.50928.50928v2.85449c0,1.08496.55908,1.66064,1.47754,1.66064.90967,0,1.46875-.54248,1.46875-1.61914v-2.896c0-.28418.22559-.50928.51758-.50928.28369,0,.50928.2251.50928.50928v2.84619c0,1.74414-.98535,2.62061-2.5127,2.62061-1.51904,0-2.4873-.87646-2.4873-2.5708Z"
         fill="#ebebeb"
         id="path30" />
      <path
         d="m49.71094,133.24463c0-.28418.22559-.50928.51758-.50928.28369,0,.50928.2251.50928.50928v4.43994h2.646c.25879,0,.46729.20898.46729.46777s-.2085.46729-.46729.46729h-3.15527c-.29199,0-.51758-.22559-.51758-.51758v-4.85742Z"
         fill="#ebebeb"
         id="path31" />
      <path
         d="m54.97852,137.96875c-.11719-.0835-.2002-.22559-.2002-.39258,0-.26709.2168-.47559.48389-.47559.14209,0,.23389.0415.30029.0918.48438.38379,1.00195.60107,1.63623.60107s1.03467-.30078,1.03467-.73486v-.0166c0-.41699-.2334-.64258-1.31836-.89307-1.24365-.30029-1.94482-.66748-1.94482-1.74414v-.01709c0-1.00146.83447-1.69434,1.99463-1.69434.73438,0,1.32715.19238,1.85303.54297.1167.06641.2251.2085.2251.40869,0,.26709-.2168.47559-.48389.47559-.1001,0-.18359-.0249-.26709-.07471-.45068-.29248-.88477-.44238-1.34375-.44238-.60107,0-.95166.30859-.95166.69238v.01709c0,.45068.26709.65088,1.39404.91797,1.23535.30029,1.86963.74268,1.86963,1.71094v.0166c0,1.09375-.85986,1.74463-2.08691,1.74463-.79248,0-1.54395-.25049-2.19482-.73438Z"
         fill="#ebebeb"
         id="path32" />
      <path
         d="m60.68359,138.10205v-4.80762c0-.29199.22559-.51758.51758-.51758h3.39697c.25049,0,.45947.20898.45947.45947,0,.2583-.20898.45898-.45947.45898h-2.8877v1.51904h2.51221c.25049,0,.45898.2085.45898.46729,0,.25049-.2085.45068-.45898.45068h-2.51221v1.56934h2.92969c.25049,0,.45898.2085.45898.45898,0,.25879-.2085.45898-.45898.45898h-3.43896c-.29199,0-.51758-.22559-.51758-.51758Z"
         fill="#ebebeb"
         id="path33" />
      <path
         d="m68.42432,133.43652c-.0249-.05859-.0415-.13379-.0415-.2002,0-.28418.24219-.50098.52588-.50098.25049,0,.44238.15869.50928.37549l1.34375,4.01465,1.31836-3.99805c.0835-.2417.25879-.40869.51758-.40869h.0752c.25879,0,.44238.16699.51758.40869l1.31885,3.99805,1.34375-4.02295c.0752-.2085.25049-.36719.50049-.36719.27588,0,.50928.2168.50928.49219,0,.06689-.0249.15039-.0498.20898l-1.72803,4.84082c-.0918.25879-.28369.42578-.53418.42578h-.1001c-.25049,0-.43408-.15869-.52588-.42578l-1.30176-3.81445-1.30225,3.81445c-.0918.26709-.28369.42578-.53418.42578h-.1001c-.25049,0-.43408-.15869-.53418-.42578l-1.72803-4.84082Z"
         fill="#ebebeb"
         id="path34" />
      <path
         d="m78.09619,133.24463c0-.28418.22559-.50928.51758-.50928.28369,0,.50928.2251.50928.50928v4.90771c0,.28369-.22559.50879-.50928.50879-.29199,0-.51758-.2251-.51758-.50879v-4.90771Z"
         fill="#ebebeb"
         id="path35" />
      <path
         d="m80.87402,133.29443c0-.29199.22559-.51758.51758-.51758h1.66113c1.83643,0,3.10498,1.26074,3.10498,2.90479v.0166c0,1.64453-1.26855,2.92139-3.10498,2.92139h-1.66113c-.29199,0-.51758-.22559-.51758-.51758v-4.80762Zm2.17871,4.39014c1.22705,0,2.02832-.82617,2.02832-1.96973v-.0166c0-1.14355-.80127-1.98633-2.02832-1.98633h-1.15186v3.97266h1.15186Z"
         fill="#ebebeb"
         id="path36" />
      <path
         d="m88.67041,133.72852h-1.41895c-.26709,0-.47607-.2168-.47607-.47559s.20898-.47607.47607-.47607h3.88086c.25879,0,.46729.21729.46729.47607s-.2085.47559-.46729.47559h-1.42725v4.42383c0,.28369-.2334.50879-.51758.50879-.28369,0-.51709-.2251-.51709-.50879v-4.42383Z"
         fill="#ebebeb"
         id="path37" />
      <path
         d="m92.76172,133.24463c0-.28418.22559-.50928.51758-.50928.28369,0,.50928.2251.50928.50928v1.96143h2.7876v-1.96143c0-.28418.22559-.50928.50928-.50928.29199,0,.51758.2251.51758.50928v4.90771c0,.28369-.22559.50879-.51758.50879-.28369,0-.50928-.2251-.50928-.50879v-1.99512h-2.7876v1.99512c0,.28369-.22559.50879-.50928.50879-.29199,0-.51758-.2251-.51758-.50879v-4.90771Z"
         fill="#ebebeb"
         id="path38" />
    </g>
    <g
       id="g43">
      <path
         d="m14.88525,266.64209c0-.23682.18311-.41992.41992-.41992h2.76416c.20996,0,.37939.16943.37939.37939s-.16943.37939-.37939.37939h-2.35059v1.29395h2.0459c.20996,0,.37891.16943.37891.37939s-.16895.37939-.37891.37939h-2.0459v1.55127c0,.23047-.18311.41357-.41357.41357-.23682,0-.41992-.18311-.41992-.41357v-3.94287Z"
         fill="#ebebeb"
         id="path42" />
      <path
         d="m19.46777,266.61523c0-.23047.18262-.41992.41992-.41992h.08789c.18311,0,.30518.09473.38623.22363l1.43652,2.24902,1.44287-2.25586c.08789-.14258.20996-.2168.37939-.2168h.08838c.23682,0,.41992.18945.41992.41992v3.96973c0,.23047-.18311.41357-.41992.41357-.22363,0-.41357-.18994-.41357-.41357v-2.84521l-1.15869,1.74121c-.08789.13525-.19629.2168-.35205.2168-.14893,0-.25732-.08154-.34521-.2168l-1.15234-1.72754v2.83838c0,.23047-.18262.40674-.41309.40674s-.40625-.17627-.40625-.40674v-3.97656Z"
         fill="#ebebeb"
         id="path43" />
    </g>
    <g
       id="g48">
      <path
         d="m41.6875,270.69336l-1.66016-3.90234c-.02734-.06055-.04736-.12158-.04736-.19629,0-.22363.18311-.40625.41992-.40625.2168,0,.35889.12207.42725.29785l1.36816,3.42139,1.38867-3.44873c.05469-.14209.20312-.27051.3999-.27051.22998,0,.41357.17578.41357.39941,0,.06104-.02051.12891-.04102.17627l-1.6665,3.9292c-.08838.20996-.24365.33887-.48096.33887h-.04785c-.22998,0-.38574-.12891-.47363-.33887Z"
         fill="#ebebeb"
         id="path44" />
      <path
         d="m44.37988,271.3916l2.77148-5.67773c.06055-.12207.16211-.18945.29785-.18945.17627,0,.31836.14209.31836.31152,0,.06104-.02051.12207-.03369.1626l-2.77783,5.67725c-.06055.12207-.15576.18994-.29102.18994-.17676,0-.3252-.14209-.3252-.31201,0-.06055.02002-.12158.04004-.16211Z"
         fill="#ebebeb"
         id="path45" />
      <path
         d="m48.14014,268.60693v-.01367c0-1.33447,1.02979-2.45264,2.48682-2.45264,1.45605,0,2.47266,1.10449,2.47266,2.43945v.01318c0,1.33447-1.03027,2.45264-2.48633,2.45264-1.45703,0-2.47314-1.10449-2.47314-2.43896Zm4.08545,0v-.01367c0-.92139-.6709-1.68701-1.6123-1.68701-.94189,0-1.59912.75195-1.59912,1.67383v.01318c0,.92139.67041,1.68018,1.61279,1.68018.94141,0,1.59863-.74512,1.59863-1.6665Z"
         fill="#ebebeb"
         id="path46" />
      <path
         d="m54.0791,268.60693v-.01367c0-1.34814,1.00928-2.45264,2.44531-2.45264.73193,0,1.21289.2168,1.62598.53516.08838.06836.16309.18311.16309.33203,0,.23047-.18311.40674-.41357.40674-.11475,0-.19678-.04053-.25049-.08154-.3252-.26367-.67773-.42676-1.13184-.42676-.90039,0-1.56445.74512-1.56445,1.67383v.01318c0,.92822.65723,1.68018,1.56445,1.68018.50195,0,.84033-.1626,1.18555-.4541.06152-.05371.14941-.09473.25098-.09473.20996,0,.39307.17627.39307.38623,0,.12891-.06104.23047-.13525.29834-.44727.39258-.95557.63672-1.72119.63672-1.38232,0-2.41162-1.07715-2.41162-2.43896Z"
         fill="#ebebeb"
         id="path47" />
      <path
         d="m60.69824,266.99463h-1.15186c-.2168,0-.38623-.17627-.38623-.38623s.16943-.38623.38623-.38623h3.15039c.20996,0,.37939.17627.37939.38623s-.16943.38623-.37939.38623h-1.15869v3.59033c0,.23047-.18945.41357-.41992.41357s-.41992-.18311-.41992-.41357v-3.59033Z"
         fill="#ebebeb"
         id="path48" />
    </g>
    <g
       id="g52">
      <path
         d="m74.0166,270.43604c-.09473-.06787-.16211-.18311-.16211-.31836,0-.2168.17578-.38623.39258-.38623.11523,0,.18945.03418.24414.07471.39258.31152.8125.48779,1.32812.48779.51465,0,.83984-.24414.83984-.59619v-.01367c0-.33838-.18945-.52148-1.07031-.7251-1.00977-.24365-1.5791-.54199-1.5791-1.41602v-.01318c0-.81299.67773-1.37549,1.61914-1.37549.59668,0,1.07764.15625,1.50439.44043.09521.0542.18311.16943.18311.33203,0,.2168-.17627.38623-.39307.38623-.08154,0-.14893-.02051-.2168-.06104-.36572-.2373-.71826-.35938-1.09082-.35938-.48779,0-.77197.25098-.77197.5625v.01367c0,.36572.2168.52832,1.13086.74512,1.00293.24414,1.51758.60303,1.51758,1.38867v.01367c0,.8877-.69727,1.41602-1.69336,1.41602-.64355,0-1.25391-.20312-1.78223-.59619Z"
         fill="#ebebeb"
         id="path49" />
      <path
         d="m79.98828,269.12207l-1.63281-2.24268c-.05371-.08154-.09473-.17627-.09473-.2915,0-.22363.18262-.39941.41992-.39941.18311,0,.30469.10156.40625.25049l1.32129,1.90381,1.3418-1.91064c.10156-.14893.22363-.25049.39941-.25049.24414,0,.40625.18262.40625.40625,0,.11523-.05371.2168-.11475.29834l-1.61963,2.21533v1.4834c0,.23047-.18262.41357-.41992.41357-.23047,0-.41309-.18311-.41309-.41357v-1.46289Z"
         fill="#ebebeb"
         id="path50" />
      <path
         d="m83.53809,266.61523c0-.23047.18359-.41992.42041-.41992h.08838c.20312,0,.31836.10156.43359.24365l2.37109,3.06885v-2.91309c0-.22363.18262-.40625.40625-.40625.23047,0,.41309.18262.41309.40625v3.9834c0,.23047-.17578.41357-.40625.41357h-.03418c-.19629,0-.31836-.10156-.43359-.25049l-2.43848-3.15723v3.00781c0,.22363-.18311.40674-.40674.40674-.22998,0-.41357-.18311-.41357-.40674v-3.97656Z"
         fill="#ebebeb"
         id="path51" />
      <path
         d="m88.88574,268.60693v-.01367c0-1.34814,1.00928-2.45264,2.44531-2.45264.73193,0,1.21289.2168,1.62598.53516.08838.06836.16309.18311.16309.33203,0,.23047-.18311.40674-.41357.40674-.11475,0-.19678-.04053-.25049-.08154-.3252-.26367-.67773-.42676-1.13184-.42676-.90039,0-1.56445.74512-1.56445,1.67383v.01318c0,.92822.65723,1.68018,1.56445,1.68018.50195,0,.84033-.1626,1.18555-.4541.06152-.05371.14941-.09473.25098-.09473.20996,0,.39307.17627.39307.38623,0,.12891-.06104.23047-.13525.29834-.44727.39258-.95557.63672-1.72119.63672-1.38232,0-2.41162-1.07715-2.41162-2.43896Z"
         fill="#ebebeb"
         id="path52" />
    </g>
    <g
       id="g55">
      <path
         d="m107.02441,266.64209c0-.23682.18262-.41992.41992-.41992h1.44971c1.11133,0,1.80225.63037,1.80225,1.58545v.01367c0,1.06348-.85352,1.61914-1.89697,1.61914h-.94189v1.14453c0,.23047-.18262.41357-.41309.41357-.2373,0-.41992-.18311-.41992-.41357v-3.94287Zm1.80176,2.04639c.63037,0,1.02344-.35254,1.02344-.84717v-.01318c0-.55566-.3999-.84717-1.02344-.84717h-.96875v1.70752h.96875Z"
         fill="#ebebeb"
         id="path53" />
      <path
         d="m111.44385,266.75732c-.02002-.04736-.03369-.1084-.03369-.1626,0-.23047.19629-.40625.42676-.40625.20312,0,.35889.12842.41309.30469l1.09082,3.25879,1.07031-3.24512c.06787-.19629.20996-.33203.41992-.33203h.06152c.20996,0,.35889.13574.41992.33203l1.07031,3.24512,1.09082-3.26562c.06104-.16943.20312-.29785.40625-.29785.22363,0,.41357.17578.41357.39941,0,.0542-.02051.12207-.04053.16943l-1.40234,3.9292c-.07471.21045-.23047.3457-.43359.3457h-.08154c-.20361,0-.35205-.12891-.42676-.3457l-1.05713-3.0957-1.05664,3.0957c-.07471.2168-.23047.3457-.43359.3457h-.08154c-.20312,0-.35205-.12891-.43359-.3457l-1.40234-3.9292Z"
         fill="#ebebeb"
         id="path54" />
      <path
         d="m119.32861,266.61523c0-.23047.18311-.41992.41992-.41992h.08838c.18262,0,.30469.09473.38574.22363l1.43652,2.24902,1.44287-2.25586c.08838-.14258.20996-.2168.37939-.2168h.08789c.2373,0,.42041.18945.42041.41992v3.96973c0,.23047-.18311.41357-.42041.41357-.22363,0-.41309-.18994-.41309-.41357v-2.84521l-1.1582,1.74121c-.08838.13525-.19678.2168-.35254.2168-.14893,0-.25732-.08154-.3457-.2168l-1.15137-1.72754v2.83838c0,.23047-.18311.40674-.41357.40674-.22998,0-.40625-.17627-.40625-.40674v-3.97656Z"
         fill="#ebebeb"
         id="path55" />
    </g>
    <g
       id="g58">
      <path
         d="m47.20801,315.12891h-1.00244c-.26465,0-.48145-.2168-.48145-.48096s.2168-.48096.48145-.48096h3.04834c.26416,0,.48096.2168.48096.48096s-.2168.48096-.48096.48096h-1.00244v3.2998c0,.29102-.23047.52148-.52148.52148-.2915,0-.52197-.23047-.52197-.52148v-3.2998Z"
         fill="#1f1f1f"
         id="path56" />
      <path
         d="m50.64404,314.68848c0-.29102.22998-.52148.52148-.52148h1.64648c.60254,0,1.07031.16943,1.38184.48096.26416.26416.40625.63721.40625,1.08398v.01367c0,.74512-.37256,1.20557-.94824,1.44287l.7251.88086c.10156.12891.16943.2373.16943.39941,0,.2915-.24414.48145-.49463.48145-.2373,0-.39307-.11523-.51514-.271l-1.01611-1.2876h-.8335v1.03711c0,.29102-.23047.52148-.52148.52148-.2915,0-.52148-.23047-.52148-.52148v-3.74023Zm2.1001,1.78223c.50781,0,.79932-.27148.79932-.6709v-.01367c0-.44727-.31152-.67773-.81982-.67773h-1.03662v1.3623h1.05713Z"
         fill="#1f1f1f"
         id="path57" />
      <path
         d="m55.82324,314.64795c0-.2915.22998-.52148.52148-.52148s.52148.22998.52148.52148v3.78076c0,.29102-.22998.52148-.52148.52148s-.52148-.23047-.52148-.52148v-3.78076Z"
         fill="#1f1f1f"
         id="path58" />
    </g>
    <g
       id="g61">
      <path
         d="m13.78174,318.4082c-.11523-.08154-.19629-.23047-.19629-.39307,0-.271.2168-.48096.48779-.48096.13525,0,.23047.04736.29785.09473.35938.26416.75244.42676,1.21289.42676.42676,0,.68408-.16895.68408-.44727v-.01318c0-.26416-.1626-.3999-.95508-.60303-.95508-.24414-1.57178-.5083-1.57178-1.4502v-.01318c0-.86035.69092-1.42969,1.65967-1.42969.57617,0,1.07715.14893,1.50439.42041.11475.06738.22998.20996.22998.41309,0,.271-.2168.48096-.48779.48096-.10156,0-.18262-.02686-.26416-.07471-.34521-.20312-.67041-.31836-.99561-.31836-.3999,0-.60986.18311-.60986.41309v.01367c0,.31152.20312.41357,1.02295.62354.96191.25049,1.50391.59619,1.50391,1.42236v.01367c0,.94189-.71826,1.47021-1.74121,1.47021-.62305,0-1.25342-.18945-1.78174-.56885Z"
         fill="#1f1f1f"
         id="path59" />
      <path
         d="m18.47461,314.64795c0-.2915.22998-.52148.52148-.52148s.52148.22998.52148.52148v3.78076c0,.29102-.22998.52148-.52148.52148s-.52148-.23047-.52148-.52148v-3.78076Z"
         fill="#1f1f1f"
         id="path60" />
      <path
         d="m20.92334,314.66162c0-.2915.23047-.52197.52197-.52197h.1084c.25049,0,.3999.12207.54199.30518l2.01221,2.64209v-2.4458c0-.28467.23047-.51465.51465-.51465.28467,0,.51514.22998.51514.51465v3.77393c0,.29102-.23047.52148-.52197.52148h-.03369c-.25049,0-.3999-.12207-.54199-.30469l-2.08643-2.7373v2.54053c0,.28467-.23047.51514-.51514.51514s-.51514-.23047-.51514-.51514v-3.77344Z"
         fill="#1f1f1f"
         id="path61" />
    </g>
    <g
       id="g64">
      <path
         d="m75.47217,318.4082c-.11523-.08154-.19629-.23047-.19629-.39307,0-.271.2168-.48096.48779-.48096.13525,0,.23047.04736.29785.09473.35938.26416.75244.42676,1.21289.42676.42676,0,.68408-.16895.68408-.44727v-.01318c0-.26416-.1626-.3999-.95508-.60303-.95508-.24414-1.57178-.5083-1.57178-1.4502v-.01318c0-.86035.69092-1.42969,1.65967-1.42969.57617,0,1.07715.14893,1.50439.42041.11475.06738.22998.20996.22998.41309,0,.271-.2168.48096-.48779.48096-.10156,0-.18262-.02686-.26416-.07471-.34521-.20312-.67041-.31836-.99561-.31836-.3999,0-.60986.18311-.60986.41309v.01367c0,.31152.20312.41357,1.02295.62354.96191.25049,1.50391.59619,1.50391,1.42236v.01367c0,.94189-.71826,1.47021-1.74121,1.47021-.62305,0-1.25342-.18945-1.78174-.56885Z"
         fill="#1f1f1f"
         id="path62" />
      <path
         d="m79.7876,318.23877l1.65332-3.73291c.11523-.25781.3252-.41309.60986-.41309h.06104c.28418,0,.4873.15527.60254.41309l1.65332,3.73291c.03369.07471.0542.14209.0542.20996,0,.27783-.2168.50146-.49463.50146-.24414,0-.40625-.14258-.50146-.35938l-.31836-.74512h-2.08643l-.33203.7793c-.08838.20312-.26416.3252-.48096.3252-.271,0-.48096-.2168-.48096-.48779,0-.07471.02686-.14893.06055-.22363Zm2.93359-1.31445l-.65723-1.56494-.65723,1.56494h1.31445Z"
         fill="#1f1f1f"
         id="path63" />
      <path
         d="m84.84668,314.83105c-.02051-.06104-.04053-.13574-.04053-.19629,0-.2915.24365-.5083.53516-.5083.24365,0,.44043.15576.50781.37256l.94189,2.90625.94873-2.87891c.08105-.24414.26416-.41357.52832-.41357h.08105c.26465,0,.44727.1626.52881.41357l.94824,2.87891.94189-2.90625c.06738-.20312.24365-.37256.50098-.37256.28467,0,.51514.2168.51514.50146,0,.06055-.02051.14209-.04053.20312l-1.32812,3.72607c-.09473.26416-.29102.42676-.54199.42676h-.1084c-.25049,0-.44043-.15576-.53516-.42676l-.93506-2.7168-.93457,2.7168c-.09521.271-.28467.42676-.53564.42676h-.1084c-.25049,0-.44678-.1626-.54199-.42676l-1.32764-3.72607Z"
         fill="#1f1f1f"
         id="path64" />
    </g>
    <g
       id="g67">
      <path
         d="m108.26807,318.4082c-.11523-.08154-.19629-.23047-.19629-.39307,0-.271.2168-.48096.48779-.48096.13525,0,.23047.04736.29785.09473.35938.26416.75244.42676,1.21289.42676.42676,0,.68408-.16895.68408-.44727v-.01318c0-.26416-.1626-.3999-.95508-.60303-.95508-.24414-1.57178-.5083-1.57178-1.4502v-.01318c0-.86035.69092-1.42969,1.65967-1.42969.57617,0,1.07715.14893,1.50439.42041.11475.06738.22998.20996.22998.41309,0,.271-.2168.48096-.48779.48096-.10156,0-.18262-.02686-.26416-.07471-.34521-.20312-.67041-.31836-.99561-.31836-.3999,0-.60986.18311-.60986.41309v.01367c0,.31152.20312.41357,1.02295.62354.96191.25049,1.50391.59619,1.50391,1.42236v.01367c0,.94189-.71826,1.47021-1.74121,1.47021-.62305,0-1.25342-.18945-1.78174-.56885Z"
         fill="#1f1f1f"
         id="path65" />
      <path
         d="m112.64746,316.55176v-.01367c0-1.34814,1.06396-2.45215,2.52734-2.45215s2.51318,1.09082,2.51318,2.43848v.01367c0,.50146-.15576.96875-.41992,1.36182l.20312.16943c.1084.09473.18994.22363.18994.39307,0,.271-.2168.49463-.48779.49463-.14258,0-.26416-.06104-.3457-.14258l-.25732-.23047c-.3999.25781-.88086.40674-1.40918.40674-1.46338,0-2.51367-1.09082-2.51367-2.43896Zm2.46631.53516c0-.271.2168-.49463.48779-.49463.14209,0,.23682.04736.34521.14209l.52197.46777c.08105-.18945.12842-.41309.12842-.65039v-.01367c0-.81299-.5957-1.49023-1.43604-1.49023s-1.42285.66406-1.42285,1.47656v.01367c0,.81299.59619,1.49072,1.43652,1.49072.22998,0,.44043-.04053.62305-.12891l-.49463-.41992c-.1084-.09521-.18945-.22363-.18945-.39307Z"
         fill="#1f1f1f"
         id="path66" />
      <path
         d="m118.89209,314.68848c0-.29102.22998-.52148.52148-.52148h1.64648c.60254,0,1.07031.16943,1.38184.48096.26416.26416.40625.63721.40625,1.08398v.01367c0,.74512-.37256,1.20557-.94824,1.44287l.7251.88086c.10156.12891.16943.2373.16943.39941,0,.2915-.24414.48145-.49463.48145-.2373,0-.39307-.11523-.51514-.271l-1.01611-1.2876h-.8335v1.03711c0,.29102-.23047.52148-.52148.52148-.2915,0-.52148-.23047-.52148-.52148v-3.74023Zm2.1001,1.78223c.50781,0,.79932-.27148.79932-.6709v-.01367c0-.44727-.31152-.67773-.81982-.67773h-1.03662v1.3623h1.05713Z"
         fill="#1f1f1f"
         id="path67" />
    </g>
    <text
       xml:space="preserve"
       style="fill:#000000"
       x="7.3037357"
       y="23.626173"
       id="text1"><tspan
         sodipodi:role="line"
         x="7.3037357"
         y="23.626173"
         id="tspan2"
         style="fill:#ffffff;fill-opacity:1">MicrotonalHammond</tspan></text>
  </g>
  <text
     xml:space="preserve"
     style="fill:#000000"
     x="38.007828"
     y="362.04532"
     id="text3"><tspan
       sodipodi:role="line"
       id="tspan3"
       x="38.007828"
       y="362.04532"
       style="fill:#ffffff;fill-opacity:1">PitchGrid</tspan></text>
</svg>
