<?xml version="1.0" encoding="UTF-8" standalone="no"?>
<svg
   width="135"
   height="380"
   viewBox="0 0 135 380"
   version="1.1"
   id="svg214"
   sodipodi:docname="McHammond.svg"
   inkscape:version="1.3.2 (091e20e, 2023-11-25)"
   xmlns:inkscape="http://www.inkscape.org/namespaces/inkscape"
   xmlns:sodipodi="http://sodipodi.sourceforge.net/DTD/sodipodi-0.dtd"
   xmlns="http://www.w3.org/2000/svg"
   xmlns:svg="http://www.w3.org/2000/svg"
   xmlns:rdf="http://www.w3.org/1999/02/22-rdf-syntax-ns#"
   xmlns:cc="http://creativecommons.org/ns#"
   xmlns:dc="http://purl.org/dc/elements/1.1/">
  <metadata
     id="metadata218">
    <rdf:RDF>
      <cc:Work
         rdf:about="">
        <dc:format>image/svg+xml</dc:format>
        <dc:type
           rdf:resource="http://purl.org/dc/dcmitype/StillImage" />
      </cc:Work>
    </rdf:RDF>
  </metadata>
  <sodipodi:namedview
     pagecolor="#ffffff"
     bordercolor="#666666"
     borderopacity="1"
     objecttolerance="10"
     gridtolerance="10"
     guidetolerance="10"
     inkscape:pageopacity="0"
     inkscape:pageshadow="2"
     inkscape:window-width="1280"
     inkscape:window-height="1387"
     id="namedview216"
     showgrid="false"
     inkscape:zoom="4.5160882"
     inkscape:cx="54.139775"
     inkscape:cy="242.90934"
     inkscape:window-x="36"
     inkscape:window-y="43"
     inkscape:window-maximized="0"
     inkscape:current-layer="g56"
     inkscape:showpageshadow="2"
     inkscape:pagecheckerboard="0"
     inkscape:deskcolor="#d1d1d1"
     showguides="true">
    <sodipodi:guide
       position="67.731238,56.197152"
       orientation="1,0"
       id="guide4"
       inkscape:locked="false" />
    <sodipodi:guide
       position="5.2724658,188.08224"
       orientation="0,-1"
       id="guide7"
       inkscape:locked="false" />
    <sodipodi:guide
       position="51.459266,203.47784"
       orientation="1,0"
       id="guide8"
       inkscape:locked="false" />
    <sodipodi:guide
       position="83.515858,153.28397"
       orientation="1,0"
       id="guide9"
       inkscape:locked="false" />
    <sodipodi:guide
       position="115.57245,163.4071"
       orientation="1,0"
       id="guide10"
       inkscape:locked="false" />
    <sodipodi:guide
       position="37.572933,45.85138"
       orientation="0,-1"
       id="guide11"
       inkscape:locked="false" />
  </sodipodi:namedview>
  <defs
     id="defs7">
    <linearGradient
       id="e177933e-b46b-4a47-9930-05c1f1d4149c"
       x1="67.5"
       x2="67.5"
       y2="380"
       gradientUnits="userSpaceOnUse">
      <stop
         offset="0"
         stop-color="#ebebeb"
         id="stop2" />
      <stop
         offset="1"
         stop-color="#e1e1e1"
         id="stop4" />
    </linearGradient>
  </defs>
  <g
     id="ae8a9d53-7d51-4e2d-86b4-182b0f1636c5"
     data-name="FND BG">
    <rect
       width="135"
       height="380"
       fill="url(#e177933e-b46b-4a47-9930-05c1f1d4149c)"
       id="rect9"
       style="fill:#ffb319;fill-opacity:1" />
    <path
       d="m 84.866346,172.92831 -0.699218,0.0547 q -0.09375,-0.41406 -0.265625,-0.60156 -0.285157,-0.30078 -0.703125,-0.30078 -0.335938,0 -0.589844,0.1875 -0.332031,0.24218 -0.523438,0.70703 -0.191406,0.46484 -0.199218,1.32422 0.253906,-0.38672 0.621093,-0.57422 0.367188,-0.1875 0.769532,-0.1875 0.703125,0 1.195312,0.51953 0.496094,0.51562 0.496094,1.33594 0,0.53906 -0.234375,1.0039 -0.230469,0.46094 -0.636719,0.70703 -0.40625,0.2461 -0.921875,0.2461 -0.878906,0 -1.433594,-0.64453 -0.554687,-0.64844 -0.554687,-2.13282 0,-1.66015 0.613281,-2.41406 0.535156,-0.65625 1.441406,-0.65625 0.675782,0 1.105469,0.37891 0.433594,0.3789 0.519531,1.04687 z m -2.871093,2.46875 q 0,0.36328 0.152343,0.69531 0.15625,0.33204 0.433594,0.50782 0.277344,0.17187 0.582031,0.17187 0.445313,0 0.765625,-0.35937 0.320313,-0.35938 0.320313,-0.97657 0,-0.59375 -0.316406,-0.93359 -0.316407,-0.34375 -0.796875,-0.34375 -0.476563,0 -0.808594,0.34375 -0.332031,0.33984 -0.332031,0.89453 z"
       id="text3"
       style="font-size:8px;font-family:Arial;-inkscape-font-specification:Arial;fill:#483737"
       aria-label="6" />
    <path
       d="m 114.73508,174.28351 q -0.4375,-0.16016 -0.64844,-0.45703 -0.21093,-0.29688 -0.21093,-0.71094 0,-0.625 0.44921,-1.05078 0.44922,-0.42578 1.19532,-0.42578 0.75,0 1.20703,0.4375 0.45703,0.43359 0.45703,1.05859 0,0.39844 -0.21094,0.69531 -0.20703,0.29297 -0.63281,0.45313 0.52734,0.17187 0.80078,0.55469 0.27734,0.38281 0.27734,0.91406 0,0.73437 -0.51953,1.23437 -0.51953,0.5 -1.36718,0.5 -0.84766,0 -1.36719,-0.5 -0.51953,-0.5039 -0.51953,-1.2539 0,-0.5586 0.28125,-0.9336 0.28515,-0.3789 0.80859,-0.51562 z m -0.14062,-1.19141 q 0,0.40625 0.26171,0.66406 0.26172,0.25782 0.67969,0.25782 0.40625,0 0.66406,-0.25391 0.26172,-0.25781 0.26172,-0.62891 0,-0.38671 -0.26953,-0.64843 -0.26562,-0.26563 -0.66406,-0.26563 -0.40234,0 -0.66797,0.25781 -0.26562,0.25782 -0.26562,0.61719 z m -0.22657,2.64453 q 0,0.30078 0.14063,0.58203 0.14453,0.28125 0.42578,0.4375 0.28125,0.15235 0.60547,0.15235 0.5039,0 0.83203,-0.32422 0.32812,-0.32422 0.32812,-0.82422 0,-0.50781 -0.33984,-0.83984 -0.33594,-0.33203 -0.84375,-0.33203 -0.49609,0 -0.82422,0.32812 -0.32422,0.32813 -0.32422,0.82031 z"
       id="text3-2"
       style="font-size:8px;font-family:Arial;-inkscape-font-specification:Arial;fill:#483737"
       aria-label="8" />
    <path
       d="m 85.055475,128.8008 v 0.67578 h -3.785156 q -0.0078,-0.2539 0.08203,-0.48828 0.144532,-0.38672 0.460938,-0.76172 0.320312,-0.375 0.921875,-0.86718 0.933594,-0.76563 1.261719,-1.21094 0.328125,-0.44922 0.328125,-0.84766 0,-0.41797 -0.300782,-0.70312 -0.296875,-0.28907 -0.777343,-0.28907 -0.507813,0 -0.8125,0.30469 -0.304688,0.30469 -0.308594,0.84375 l -0.722656,-0.0742 q 0.07422,-0.80859 0.558593,-1.23047 0.484375,-0.42578 1.300782,-0.42578 0.824218,0 1.304687,0.45703 0.480469,0.45704 0.480469,1.13282 0,0.34375 -0.140625,0.67578 -0.140625,0.33203 -0.46875,0.69922 -0.324219,0.36718 -1.082031,1.00781 -0.632813,0.53125 -0.8125,0.72266 -0.179688,0.1875 -0.296875,0.3789 z"
       id="text3-4"
       style="font-size:8px;font-family:Arial;-inkscape-font-specification:Arial;fill:#483737"
       aria-label="2" />
    <path
       d="m 113.79919,128.10131 0.70313,-0.0937 q 0.12109,0.59766 0.41016,0.86328 0.29296,0.26172 0.71093,0.26172 0.4961,0 0.83594,-0.34375 0.34375,-0.34375 0.34375,-0.85156 0,-0.48438 -0.31641,-0.79688 -0.3164,-0.3164 -0.80468,-0.3164 -0.19922,0 -0.4961,0.0781 l 0.0781,-0.61719 q 0.0703,0.008 0.11328,0.008 0.44922,0 0.80859,-0.23438 0.35938,-0.23437 0.35938,-0.72265 0,-0.38672 -0.26172,-0.64063 -0.26172,-0.25391 -0.67578,-0.25391 -0.41016,0 -0.6836,0.25782 -0.27343,0.25781 -0.35156,0.77343 l -0.70312,-0.125 q 0.1289,-0.70703 0.58593,-1.09375 0.45704,-0.39062 1.13672,-0.39062 0.46875,0 0.86328,0.20312 0.39454,0.19922 0.60157,0.54688 0.21093,0.34766 0.21093,0.73828 0,0.37109 -0.19921,0.67578 -0.19922,0.30469 -0.58985,0.48438 0.50781,0.11718 0.78906,0.48828 0.28125,0.36719 0.28125,0.92187 0,0.75 -0.54687,1.27344 -0.54688,0.51953 -1.38281,0.51953 -0.75391,0 -1.25391,-0.44922 -0.49609,-0.44922 -0.56641,-1.16406 z"
       id="text3-2-1"
       style="font-size:8px;font-family:Arial;-inkscape-font-specification:Arial;fill:#483737"
       aria-label="3" />
    <path
       d="m 19.74774,177.49925 v -1.3711 h -2.484375 v -0.64453 l 2.613281,-3.71094 h 0.574219 v 3.71094 h 0.773437 v 0.64453 h -0.773437 v 1.3711 z m 0,-2.01563 v -2.58203 l -1.792969,2.58203 z"
       id="text3-3"
       style="font-size:8px;font-family:Arial;-inkscape-font-specification:Arial;fill:#483737"
       aria-label="4" />
    <path
       d="m 49.338562,175.84048 0.738282,-0.0625 q 0.08203,0.53907 0.378906,0.8125 0.300781,0.26953 0.722656,0.26953 0.507813,0 0.859375,-0.38281 0.351563,-0.38281 0.351563,-1.01562 0,-0.60157 -0.339844,-0.94922 -0.335938,-0.34766 -0.882813,-0.34766 -0.339843,0 -0.613281,0.15625 -0.273437,0.15235 -0.429687,0.39844 l -0.660157,-0.0859 0.554688,-2.9414 h 2.847656 v 0.67187 H 50.58075 l -0.308594,1.53906 q 0.515625,-0.35937 1.082031,-0.35937 0.75,0 1.265625,0.51953 0.515625,0.51953 0.515625,1.33594 0,0.77734 -0.453125,1.34375 -0.550781,0.69531 -1.503906,0.69531 -0.78125,0 -1.277344,-0.4375 -0.492187,-0.4375 -0.5625,-1.16016 z"
       id="text3-2-2"
       style="font-size:8px;font-family:Arial;-inkscape-font-specification:Arial;fill:#483737"
       aria-label="5" />
    <path
       d="m 16.579723,129.72329 h -0.703125 v -4.48047 q -0.253906,0.24219 -0.667968,0.48438 -0.410157,0.24219 -0.738282,0.36328 v -0.67969 q 0.589844,-0.27734 1.03125,-0.67187 0.441407,-0.39453 0.625,-0.76563 h 0.453125 z m 1.46875,0.0977 1.660157,-5.92188 h 0.5625 l -1.65625,5.92188 z m 6.25,-0.77344 v 0.67578 h -3.785156 q -0.0078,-0.2539 0.08203,-0.48828 0.144532,-0.38672 0.460938,-0.76172 0.320312,-0.375 0.921875,-0.86719 0.933594,-0.76562 1.261719,-1.21093 0.328125,-0.44922 0.328125,-0.84766 0,-0.41797 -0.300782,-0.70312 -0.296875,-0.28907 -0.777343,-0.28907 -0.507813,0 -0.8125,0.30469 -0.304688,0.30469 -0.308594,0.84375 l -0.722656,-0.0742 q 0.07422,-0.80859 0.558593,-1.23047 0.484375,-0.42578 1.300782,-0.42578 0.824218,0 1.304687,0.45703 0.480469,0.45703 0.480469,1.13282 0,0.34375 -0.140625,0.67578 -0.140625,0.33203 -0.46875,0.69922 -0.324219,0.36718 -1.082031,1.00781 -0.632813,0.53125 -0.8125,0.72265 -0.179688,0.1875 -0.296875,0.37891 z"
       id="text3-4-6"
       style="font-size:8px;font-family:Arial;-inkscape-font-specification:Arial;fill:#483737"
       aria-label="1/2" />
    <path
       d="m 46.075135,128.05281 0.703125,-0.0937 q 0.121093,0.59766 0.410156,0.86328 0.292969,0.26172 0.710937,0.26172 0.496094,0 0.835938,-0.34375 0.34375,-0.34375 0.34375,-0.85156 0,-0.48438 -0.316406,-0.79688 -0.316407,-0.3164 -0.804688,-0.3164 -0.199219,0 -0.496094,0.0781 l 0.07813,-0.61719 q 0.07031,0.008 0.113282,0.008 0.449218,0 0.808593,-0.23438 0.359375,-0.23437 0.359375,-0.72266 0,-0.38671 -0.261718,-0.64062 -0.261719,-0.25391 -0.675782,-0.25391 -0.410156,0 -0.683593,0.25782 -0.273438,0.25781 -0.351563,0.77343 l -0.703125,-0.125 q 0.128906,-0.70703 0.585938,-1.09375 0.457031,-0.39062 1.136718,-0.39062 0.46875,0 0.863282,0.20312 0.394531,0.19922 0.601562,0.54688 0.210938,0.34765 0.210938,0.73828 0,0.37109 -0.199219,0.67578 -0.199219,0.30469 -0.589844,0.48438 0.507813,0.11718 0.789063,0.48828 0.28125,0.36718 0.28125,0.92187 0,0.75 -0.546875,1.27344 -0.546875,0.51953 -1.382813,0.51953 -0.753906,0 -1.253906,-0.44922 -0.496094,-0.44922 -0.566406,-1.16406 z m 4.113281,1.60937 1.660156,-5.92187 h 0.5625 l -1.65625,5.92187 z m 6.25,-0.77343 v 0.67578 H 52.65326 q -0.0078,-0.25391 0.08203,-0.48828 0.144531,-0.38672 0.460937,-0.76172 0.320313,-0.375 0.921875,-0.86719 0.933594,-0.76562 1.261719,-1.21094 0.328125,-0.44922 0.328125,-0.84765 0,-0.41797 -0.300781,-0.70313 -0.296875,-0.28906 -0.777344,-0.28906 -0.507812,0 -0.8125,0.30469 -0.304687,0.30468 -0.308594,0.84375 l -0.722656,-0.0742 q 0.07422,-0.8086 0.558594,-1.23047 0.484375,-0.42578 1.300781,-0.42578 0.824219,0 1.304688,0.45703 0.480468,0.45703 0.480468,1.13281 0,0.34375 -0.140625,0.67578 -0.140625,0.33203 -0.46875,0.69922 -0.324218,0.36719 -1.082031,1.00781 -0.632812,0.53125 -0.8125,0.72266 -0.179687,0.1875 -0.296875,0.37891 z"
       id="text3-2-1-7"
       style="font-size:8px;font-family:Arial;-inkscape-font-specification:Arial;fill:#483737"
       aria-label="3/2" />
  </g>
  <g
     id="aa880d18-cfe8-4bd2-bda2-afb179f11477"
     data-name="FND GRAPH"
     style="display:inline"
     transform="translate(0,-0.26922717)">
    <rect
       x="100.05434"
       y="308.26425"
       width="30.832525"
       height="39.19244"
       rx="0.70115703"
       fill="#1f1f1f"
       id="rect12"
       style="stroke-width:0.497345" />
    <line
       x1="83.503822"
       y1="299.51617"
       x2="83.503822"
       y2="308.74084"
       fill="none"
       stroke="#1f1f1f"
       stroke-linecap="round"
       stroke-linejoin="round"
       stroke-width="0.8"
       id="line24" />
    <line
       x1="39.700211"
       y1="286.66431"
       x2="33.912552"
       y2="286.66431"
       fill="none"
       stroke="#1f1f1f"
       stroke-linecap="round"
       stroke-linejoin="round"
       stroke-width="0.8"
       id="line28" />
    <g
       id="g40">
      <circle
         cx="67.50634"
         cy="166.5"
         r="26.48818"
         fill="none"
         opacity="0.69"
         style="isolation:isolate"
         id="circle32" />
      <line
         x1="78.304573"
         y1="184.60266"
         x2="67.50634"
         y2="166.5"
         fill="none"
         id="line36" />
    </g>
    <g
       id="g48">
      <circle
         cx="67.633141"
         cy="88.016998"
         r="38.445641"
         fill="none"
         opacity="0.69"
         style="isolation:isolate"
         id="circle42" />
      <path
         d="m 83.306,114.29167 a 30.40253,30.40253 0 1 0 -31.13461,0.10869"
         fill="none"
         stroke="#1f1f1f"
         stroke-linecap="round"
         stroke-miterlimit="10"
         stroke-width="0.8"
         id="path44" />
      <line
         x1="83.305969"
         y1="114.29167"
         x2="67.633141"
         y2="88.016998"
         fill="none"
         id="line46" />
    </g>
    <g
       id="g56">
      <line
         x1="19.50939"
         y1="299.53888"
         x2="19.50939"
         y2="308.74084"
         fill="none"
         stroke="#1f1f1f"
         stroke-linecap="round"
         stroke-linejoin="round"
         stroke-width="0.8"
         id="line50" />
      <line
         x1="19.50939"
         y1="275.20447"
         x2="19.50939"
         y2="286.6839"
         fill="none"
         stroke="#1f1f1f"
         stroke-linecap="round"
         stroke-linejoin="round"
         id="line52" />
      <path
         d="m 11.35593,294.81775 a 11.53074,11.53074 0 1 1 16.30692,0"
         fill="none"
         stroke="#1f1f1f"
         stroke-linecap="round"
         stroke-linejoin="round"
         id="path54" />
    </g>
    <path
       d="m 36.307918,355.66162 h 4.695983 q 1.534146,0 2.294982,0.68555 0.767073,0.68553 0.767073,1.95116 0,1.30078 -0.835673,2.0332 -0.829436,0.73241 -2.5382,0.73241 h -1.546619 v 3.1875 h -2.837546 z m 2.837546,3.6621 h 0.692237 q 0.816963,0 1.14749,-0.26367 0.330528,-0.26954 0.330528,-0.68555 0,-0.4043 -0.286872,-0.68554 -0.286874,-0.28125 -1.078892,-0.28125 h -0.804491 z"
       id="text28"
       style="font-size:12.38px;font-family:'Arial Black';-inkscape-font-specification:'Arial Black, ';stroke-width:1.03167"
       aria-label="P" />
    <path
       d="m 45.46914,355.66162 h 2.538201 v 1.62304 H 45.46914 Z m 0,2.36718 h 2.538201 v 6.22264 H 45.46914 Z"
       id="text27"
       style="font-size:12.38px;font-family:'Arial Black';-inkscape-font-specification:'Arial Black, ';stroke-width:1.03167"
       aria-label="i" />
    <path
       d="m 52.690848,355.66162 v 2.36718 h 1.396947 v 1.74022 h -1.396947 v 2.20899 q 0,0.39843 0.08107,0.52734 0.124728,0.19922 0.436546,0.19922 0.280636,0 0.785782,-0.15235 l 0.187091,1.64648 q -0.941691,0.19336 -1.758655,0.19336 -0.947927,0 -1.396946,-0.22852 -0.449018,-0.22851 -0.66729,-0.6914 -0.212038,-0.46875 -0.212038,-1.51172 v -2.1914 h -0.935454 v -1.74022 h 0.935454 v -1.14258 z"
       id="text26"
       style="font-size:12.38px;font-family:'Arial Black';-inkscape-font-specification:'Arial Black, ';stroke-width:1.03167"
       aria-label="t" />
    <path
       d="m 60.236852,361.81981 2.413473,0.2578 q -0.199564,0.70899 -0.654818,1.23047 -0.455254,0.51562 -1.166201,0.80273 -0.704709,0.28711 -1.796073,0.28711 -1.053946,0 -1.758655,-0.18164 -0.698472,-0.1875 -1.203618,-0.59765 -0.505146,-0.41602 -0.792019,-0.97266 -0.286872,-0.55664 -0.286872,-1.47656 0,-0.96093 0.349236,-1.5996 0.255691,-0.46875 0.698473,-0.83789 0.442782,-0.37499 0.910509,-0.55664 0.742128,-0.28711 1.902091,-0.28711 1.621456,0 2.469601,0.54492 0.854383,0.54493 1.197382,1.59375 l -2.388528,0.29883 q -0.112254,-0.39844 -0.4116,-0.59766 -0.293109,-0.20507 -0.792018,-0.20507 -0.629873,0 -1.022764,0.42773 -0.386654,0.42187 -0.386654,1.28319 0,0.76758 0.386654,1.16602 0.386655,0.39844 0.985346,0.39844 0.498909,0 0.835673,-0.24024 0.343,-0.24024 0.511382,-0.73827 z"
       id="text25"
       style="font-size:12.38px;font-family:'Arial Black';-inkscape-font-specification:'Arial Black, ';stroke-width:1.03167"
       aria-label="c" />
    <path
       d="m 63.707389,355.66162 h 2.5382 v 3.16405 q 0.517618,-0.5039 1.029001,-0.72069 0.511382,-0.21681 1.209855,-0.21681 1.035236,0 1.627691,0.5918 0.598691,0.5918 0.598691,1.8164 v 3.95507 h -2.550673 v -3.42187 q 0,-0.58594 -0.230746,-0.82617 -0.230745,-0.24609 -0.648582,-0.24609 -0.461491,0 -0.748364,0.32812 -0.286873,0.32812 -0.286873,1.17774 v 2.98827 h -2.5382 z"
       id="text24"
       style="font-size:12.38px;font-family:'Arial Black';-inkscape-font-specification:'Arial Black, ';stroke-width:1.03167"
       aria-label="h" />
    <path
       d="m 76.88171,361.14011 v -1.7871 h 4.365455 v 3.6621 q -1.253509,0.80273 -2.220146,1.0957 -0.9604,0.28711 -2.282509,0.28711 -1.627691,0 -2.656692,-0.52149 -1.022763,-0.52147 -1.590273,-1.55272 -0.561273,-1.03125 -0.561273,-2.36718 0,-1.40625 0.6174,-2.44335 0.617401,-1.04297 1.808547,-1.58203 0.929218,-0.41601 2.500782,-0.41601 1.515436,0 2.263801,0.25781 0.7546,0.25781 1.247272,0.80273 0.49891,0.53906 0.748364,1.37109 l -2.725291,0.45703 q -0.168382,-0.48633 -0.573746,-0.74414 -0.399127,-0.25782 -1.022764,-0.25782 -0.929218,0 -1.484254,0.60938 -0.5488,0.60351 -0.5488,1.91601 0,1.39453 0.555036,1.99218 0.561273,0.59765 1.559091,0.59765 0.473964,0 0.904273,-0.1289 0.430309,-0.1289 0.985345,-0.43946 v -0.80859 z"
       id="text23"
       style="font-size:12.38px;font-family:'Arial Black';-inkscape-font-specification:'Arial Black, ';stroke-width:1.03167"
       aria-label="G" />
    <path
       d="m 82.781312,358.0288 h 2.376055 v 1.01953 q 0.343001,-0.66211 0.704709,-0.90821 0.367946,-0.25195 0.904274,-0.25195 0.561272,0 1.228563,0.32813 l -0.785782,1.69922 q -0.449018,-0.17579 -0.710945,-0.17579 -0.49891,0 -0.773309,0.38672 -0.392891,0.54492 -0.392891,2.03906 v 2.08593 h -2.550674 z"
       id="text22"
       style="font-size:12.38px;font-family:'Arial Black';-inkscape-font-specification:'Arial Black, ';stroke-width:1.03167"
       aria-label="r" />
    <path
       d="m 88.518769,355.66162 h 2.538201 v 1.62304 h -2.538201 z m 0,2.36718 h 2.538201 v 6.22264 h -2.538201 z"
       id="text21"
       style="font-size:12.38px;font-family:'Arial Black';-inkscape-font-specification:'Arial Black, ';stroke-width:1.03167"
       aria-label="i" />
    <path
       d="m 99.650684,355.66162 v 8.58982 h -2.376061 v -0.91992 q -0.498908,0.58593 -0.910508,0.79101 -0.5488,0.26953 -1.222328,0.26953 -1.353291,0 -2.070473,-0.9668 -0.710946,-0.96679 -0.710946,-2.3496 0,-1.54687 0.785782,-2.36718 0.792018,-0.82031 2.00811,-0.82031 0.592454,0 1.072654,0.1875 0.486437,0.18751 0.860619,0.5625 v -2.97655 z m -2.544442,5.46092 q 0,-0.73243 -0.330527,-1.08985 -0.330527,-0.36327 -0.835673,-0.36327 -0.442782,0 -0.742128,0.3457 -0.299345,0.3457 -0.299345,1.16015 0,0.76172 0.305581,1.11914 0.311818,0.35156 0.767074,0.35156 0.486436,0 0.810726,-0.35742 0.324292,-0.35742 0.324292,-1.16601 z"
       id="text20"
       style="font-size:12.38px;font-family:'Arial Black';-inkscape-font-specification:'Arial Black, ';stroke-width:1.03167"
       aria-label="d" />
    <path
       d="m 7.3856824,22.314838 h 4.5661516 l 1.762105,6.833904 1.754445,-6.833904 h 4.550829 V 33.546345 H 17.184521 V 24.98098 l -2.198801,8.565365 h -2.566545 l -2.19114,-8.565365 v 8.565365 H 7.3856824 Z"
       id="text19"
       style="font-size:15.6904px;font-family:'Arial Black';-inkscape-font-specification:'Arial Black, ';stroke-width:1.30754"
       aria-label="M"
       transform="scale(1.3075294,0.76480114)" />
    <path
       d="m 22.1414,22.314838 h 3.118161 v 2.122188 H 22.1414 Z m 0,3.095176 h 3.118161 v 8.136331 H 22.1414 Z"
       id="text18"
       style="font-size:15.6904px;font-family:'Arial Black';-inkscape-font-specification:'Arial Black, ';stroke-width:1.30754"
       transform="scale(1.3075294,0.76480114)"
       aria-label="i" />
    <path
       d="m 33.319277,30.366894 2.964934,0.337098 q -0.245162,0.927021 -0.804439,1.608879 -0.559277,0.674197 -1.432668,1.049602 -0.86573,0.375405 -2.206463,0.375405 -1.294764,0 -2.160494,-0.237501 -0.858069,-0.245163 -1.478637,-0.781456 -0.620567,-0.543954 -0.972988,-1.27178 -0.352422,-0.727826 -0.352422,-1.930655 0,-1.256458 0.429035,-2.091542 0.314114,-0.612907 0.858069,-1.09557 0.543954,-0.490325 1.118553,-0.727827 0.911699,-0.375405 2.336706,-0.375405 1.991945,0 3.033886,0.712504 1.049601,0.712503 1.470975,2.083881 l -2.934289,0.390728 q -0.137904,-0.52097 -0.505648,-0.781456 -0.360082,-0.268146 -0.972988,-0.268146 -0.773795,0 -1.256458,0.559277 -0.475003,0.551615 -0.475003,1.677831 0,1.003634 0.475003,1.524604 0.475002,0.52097 1.21049,0.52097 0.612906,0 1.026618,-0.314114 0.421373,-0.314115 0.628228,-0.965327 z"
       id="text17"
       style="font-size:15.6904px;font-family:'Arial Black';-inkscape-font-specification:'Arial Black, ';stroke-width:1.30754"
       transform="scale(1.3075294,0.76480114)"
       aria-label="c" />
    <path
       d="m 37.747525,25.410014 h 2.918966 v 1.333071 q 0.421373,-0.86573 0.86573,-1.187506 0.452018,-0.329437 1.110893,-0.329437 0.689519,0 1.509281,0.429035 l -0.965327,2.221785 q -0.551616,-0.22984 -0.873392,-0.22984 -0.612906,0 -0.950004,0.505648 -0.482664,0.712503 -0.482664,2.666142 v 2.727433 h -3.133483 z"
       id="text16"
       style="font-size:15.6904px;font-family:'Arial Black';-inkscape-font-specification:'Arial Black, ';stroke-width:1.30754"
       transform="scale(1.3075294,0.76480114)"
       aria-label="r" />
    <path
       d="m 44.42437,29.501163 q 0,-1.861702 1.256458,-3.064531 1.256458,-1.21049 3.393968,-1.21049 2.443964,0 3.692761,1.417346 1.003634,1.141538 1.003634,2.811708 0,1.877025 -1.248797,3.079853 -1.241135,1.195168 -3.439936,1.195168 -1.9613,0 -3.17179,-0.995973 Q 44.42437,31.50077 44.42437,29.501163 Z m 3.125822,-0.0077 q 0,1.087909 0.436696,1.608879 0.444357,0.52097 1.110892,0.52097 0.674197,0 1.103232,-0.513309 0.436695,-0.513309 0.436695,-1.647185 0,-1.057263 -0.436695,-1.570572 -0.436696,-0.520971 -1.080248,-0.520971 -0.681858,0 -1.126215,0.528632 -0.444357,0.52097 -0.444357,1.593556 z"
       id="text15"
       style="font-size:15.6904px;font-family:'Arial Black';-inkscape-font-specification:'Arial Black, ';stroke-width:1.30754"
       transform="scale(1.3075294,0.76480114)"
       aria-label="o" />
    <path
       d="m 59.160938,22.314838 v 3.095176 h 1.716137 v 2.275415 h -1.716137 v 2.88832 q 0,0.520971 0.0996,0.68952 0.153227,0.260485 0.536293,0.260485 0.34476,0 0.965328,-0.199194 l 0.229839,2.152833 q -1.15686,0.252824 -2.160494,0.252824 -1.164522,0 -1.716138,-0.298792 -0.551615,-0.298792 -0.819762,-0.904037 -0.260485,-0.612906 -0.260485,-1.976623 V 27.685429 H 54.88592 v -2.275415 h 1.149199 v -1.493959 z"
       id="text14"
       style="font-size:15.6904px;font-family:'Arial Black';-inkscape-font-specification:'Arial Black, ';stroke-width:1.30754"
       transform="scale(1.3075294,0.76480114)"
       aria-label="t" />
    <path
       d="m 61.980305,29.501163 q 0,-1.861702 1.256458,-3.064531 1.256458,-1.21049 3.393968,-1.21049 2.443964,0 3.69276,1.417346 1.003634,1.141538 1.003634,2.811708 0,1.877025 -1.248796,3.079853 -1.241135,1.195168 -3.439936,1.195168 -1.9613,0 -3.17179,-0.995973 -1.486298,-1.233474 -1.486298,-3.233081 z m 3.125822,-0.0077 q 0,1.087909 0.436696,1.608879 0.444357,0.52097 1.110892,0.52097 0.674197,0 1.103232,-0.513309 0.436695,-0.513309 0.436695,-1.647185 0,-1.057263 -0.436695,-1.570572 -0.436696,-0.520971 -1.080248,-0.520971 -0.681858,0 -1.126215,0.528632 -0.444357,0.52097 -0.444357,1.593556 z"
       id="text13"
       style="font-size:15.6904px;font-family:'Arial Black';-inkscape-font-specification:'Arial Black, ';stroke-width:1.30754"
       transform="scale(1.3075294,0.76480114)"
       aria-label="o" />
    <path
       d="m 72.828742,25.410014 h 2.903643 v 1.32541 q 0.651213,-0.812101 1.317749,-1.156861 0.666535,-0.352421 1.624201,-0.352421 1.294765,0 2.022591,0.773794 0.735487,0.766133 0.735487,2.375012 v 5.171397 H 78.29893 v -4.474216 q 0,-0.766133 -0.283469,-1.080247 -0.283469,-0.321776 -0.796778,-0.321776 -0.566939,0 -0.91936,0.429034 -0.352421,0.429035 -0.352421,1.539927 v 3.907278 h -3.11816 z"
       id="text12"
       style="font-size:15.6904px;font-family:'Arial Black';-inkscape-font-specification:'Arial Black, ';stroke-width:1.30754"
       transform="scale(1.3075294,0.76480114)"
       aria-label="n" />
    <path
       d="m 86.136472,28.045511 -2.980256,-0.314114 q 0.168549,-0.781456 0.482663,-1.225813 0.321776,-0.452018 0.91936,-0.781455 0.429034,-0.237501 1.179844,-0.367744 0.75081,-0.130243 1.624202,-0.130243 1.402023,0 2.25243,0.160888 0.850408,0.153227 1.417346,0.651213 0.398389,0.34476 0.628229,0.98065 0.22984,0.628229 0.22984,1.202829 v 3.593163 q 0,0.574599 0.06895,0.904036 0.07661,0.321776 0.321775,0.827424 H 89.35423 q -0.17621,-0.314115 -0.22984,-0.475003 -0.05363,-0.168549 -0.107258,-0.52097 -0.612907,0.589922 -1.218152,0.842746 -0.827423,0.337099 -1.922993,0.337099 -1.455652,0 -2.214124,-0.674197 -0.75081,-0.674197 -0.75081,-1.662508 0,-0.927021 0.543954,-1.524605 0.543955,-0.597583 2.007268,-0.888714 1.754445,-0.352421 2.275415,-0.490325 0.52097,-0.145565 1.103231,-0.375405 0,-0.5746 -0.237501,-0.804439 -0.237501,-0.22984 -0.835085,-0.22984 -0.766133,0 -1.149199,0.245162 -0.298792,0.191533 -0.482664,0.720165 z m 2.704449,1.639524 q -0.643551,0.22984 -1.340732,0.406051 -0.950005,0.252824 -1.202829,0.497986 -0.260485,0.252824 -0.260485,0.5746 0,0.367743 0.252824,0.605245 0.260485,0.229839 0.758471,0.229839 0.520971,0 0.965328,-0.252823 0.452018,-0.252824 0.63589,-0.612907 0.191533,-0.367743 0.191533,-0.950004 z"
       id="text11"
       style="font-size:15.6904px;font-family:'Arial Black';-inkscape-font-specification:'Arial Black, ';stroke-width:1.30754"
       transform="scale(1.3075294,0.76480114)"
       aria-label="a" />
    <path
       d="M 93.866748,22.314838 H 96.99257 V 33.546345 H 93.866748 Z"
       id="text10"
       style="font-size:15.6904px;font-family:'Arial Black';-inkscape-font-specification:'Arial Black, ';stroke-width:1.30754"
       transform="scale(1.3075294,0.76480114)"
       aria-label="l" />
    <path
       d="m 9.7271188,30.255475 h 4.5378872 v 3.005869 h 4.958619 v -3.005869 h 4.557922 v 8.589869 h -4.557922 v -3.474619 h -4.958619 v 3.474619 H 9.7271188 Z"
       id="text9"
       style="font-size:15.6904px;font-family:'Arial Black';-inkscape-font-specification:'Arial Black, ';stroke-width:1.30754"
       aria-label="H" />
    <path
       d="m 30.24278,34.638301 -3.896774,-0.240235 q 0.220383,-0.597658 0.631097,-0.937503 0.420731,-0.345704 1.202089,-0.597658 0.560975,-0.181641 1.542682,-0.281251 0.981707,-0.09961 2.123691,-0.09961 1.833186,0 2.94512,0.123048 1.111932,0.117187 1.85322,0.498048 0.520905,0.263672 0.821428,0.750002 0.300522,0.480471 0.300522,0.919925 v 2.748055 q 0,0.439455 0.09015,0.691408 0.100169,0.246095 0.420731,0.632814 h -3.826649 q -0.2304,-0.240234 -0.300522,-0.363282 -0.07012,-0.128906 -0.140244,-0.398438 -0.801393,0.451173 -1.592768,0.644533 -1.081881,0.257813 -2.514371,0.257813 -1.903308,0 -2.895031,-0.515627 -0.981708,-0.515626 -0.981708,-1.271488 0,-0.708986 0.711237,-1.166019 0.711236,-0.457032 2.624562,-0.679689 2.293987,-0.269532 2.975171,-0.375001 0.681185,-0.111329 1.442507,-0.28711 0,-0.439455 -0.31054,-0.615237 -0.310539,-0.175782 -1.091896,-0.175782 -1.001742,0 -1.502613,0.187501 -0.39068,0.146485 -0.631096,0.550783 z m 3.536145,1.25391 q -0.841462,0.175782 -1.753046,0.310547 -1.24216,0.19336 -1.572735,0.380861 -0.340592,0.19336 -0.340592,0.439454 0,0.281251 0.330575,0.462892 0.340592,0.175782 0.991725,0.175782 0.681183,0 1.262193,-0.19336 0.591027,-0.19336 0.831445,-0.468751 0.250435,-0.281251 0.250435,-0.726565 z"
       id="text8"
       style="font-size:15.6904px;font-family:'Arial Black';-inkscape-font-specification:'Arial Black, ';stroke-width:1.30754"
       aria-label="a" />
    <path
       d="m 40.240153,32.62267 h 3.806617 v 0.908206 q 0.821428,-0.568361 1.652873,-0.808597 0.841462,-0.240235 2.023517,-0.240235 1.272212,0 2.0135,0.263673 0.741288,0.263672 1.212107,0.785159 0.961671,-0.609377 1.753046,-0.826175 0.791376,-0.222657 1.953396,-0.222657 1.712977,0 2.674649,0.597658 0.961671,0.591799 0.961671,1.857428 v 3.908214 h -4.087104 v -3.544932 q 0,-0.421876 -0.280487,-0.626955 -0.410714,-0.322266 -1.021776,-0.322266 -0.721254,0 -1.162019,0.304688 -0.440767,0.304689 -0.440767,0.978518 v 3.210947 H 47.212272 V 35.4176 q 0,-0.410158 -0.08014,-0.556642 -0.13023,-0.234376 -0.450784,-0.375001 -0.320558,-0.146485 -0.751306,-0.146485 -0.701219,0 -1.152002,0.310547 -0.450783,0.310549 -0.450783,1.019535 v 3.17579 h -4.087105 z"
       id="text7"
       style="font-size:15.6904px;font-family:'Arial Black';-inkscape-font-specification:'Arial Black, ';stroke-width:1.30754"
       aria-label="m" />
    <path
       d="m 60.755814,32.62267 h 3.806617 v 0.908206 q 0.821428,-0.568361 1.652873,-0.808597 0.841462,-0.240235 2.023517,-0.240235 1.272211,0 2.013499,0.263673 0.741288,0.263672 1.212108,0.785159 0.96167,-0.609377 1.753046,-0.826175 0.791376,-0.222657 1.953395,-0.222657 1.712978,0 2.67465,0.597658 0.961671,0.591799 0.961671,1.857428 v 3.908214 h -4.087104 v -3.544932 q 0,-0.421876 -0.280488,-0.626955 -0.410713,-0.322266 -1.021775,-0.322266 -0.721254,0 -1.16202,0.304688 -0.440767,0.304689 -0.440767,0.978518 v 3.210947 H 67.727932 V 35.4176 q 0,-0.410158 -0.08014,-0.556642 -0.13023,-0.234376 -0.450784,-0.375001 -0.320557,-0.146485 -0.751307,-0.146485 -0.701218,0 -1.152001,0.310547 -0.450784,0.310549 -0.450784,1.019535 v 3.17579 h -4.087104 z"
       id="text6"
       style="font-size:15.6904px;font-family:'Arial Black';-inkscape-font-specification:'Arial Black, ';stroke-width:1.30754"
       aria-label="m" />
    <path
       d="m 80.740555,35.751585 q 0,-1.423832 1.642854,-2.343756 1.642856,-0.925785 4.437715,-0.925785 3.195553,0 4.828392,1.083988 1.312281,0.87305 1.312281,2.150397 0,1.435551 -1.632839,2.355476 -1.62282,0.914065 -4.497817,0.914065 -2.564458,0 -4.147209,-0.761721 -1.943377,-0.943362 -1.943377,-2.472664 z m 4.087103,-0.0059 q 0,0.832034 0.570993,1.230473 0.58101,0.398438 1.452525,0.398438 0.881532,0 1.442507,-0.392579 0.570993,-0.392579 0.570993,-1.25977 0,-0.808596 -0.570993,-1.201175 -0.570993,-0.398438 -1.412455,-0.398438 -0.891549,0 -1.472559,0.404297 -0.581011,0.398439 -0.581011,1.218754 z"
       id="text5"
       style="font-size:15.6904px;font-family:'Arial Black';-inkscape-font-specification:'Arial Black, ';stroke-width:1.30754"
       aria-label="o" />
    <path
       d="m 94.925204,32.62267 h 3.7966 v 1.013675 q 0.851479,-0.621096 1.722996,-0.884769 0.87151,-0.269532 2.12369,-0.269532 1.69294,0 2.6446,0.591799 0.96167,0.585939 0.96167,1.816412 v 3.955089 h -4.09712 V 35.42346 q 0,-0.58594 -0.37065,-0.826175 -0.37064,-0.246094 -1.04181,-0.246094 -0.741287,0 -1.202088,0.328126 -0.460801,0.328125 -0.460801,1.177738 v 2.988289 h -4.077087 z"
       id="text4"
       style="font-size:15.6904px;font-family:'Arial Black';-inkscape-font-specification:'Arial Black, ';stroke-width:1.30754"
       aria-label="n" />
    <path
       d="m 123.25484,30.255455 v 12.734268 h -4.93988 v -1.363765 q -1.03724,0.86864 -1.89297,1.172664 -1.14097,0.399575 -2.54125,0.399575 -2.81353,0 -4.30457,-1.433257 -1.47807,-1.433256 -1.47807,-3.483248 0,-2.29321 1.63366,-3.509307 1.64662,-1.216096 4.17491,-1.216096 1.23173,0 2.23008,0.277965 1.01131,0.277965 1.78924,0.833894 v -4.412693 z m -5.28995,8.095729 q 0,-1.085801 -0.68717,-1.615672 -0.68718,-0.538557 -1.73739,-0.538557 -0.92055,0 -1.5429,0.512499 -0.62235,0.512497 -0.62235,1.719907 0,1.129233 0.63531,1.659103 0.64828,0.521184 1.59477,0.521184 1.01131,0 1.68552,-0.52987 0.67421,-0.529871 0.67421,-1.728594 z"
       id="text2"
       style="font-size:21.7343px;font-family:'Arial Black';-inkscape-font-specification:'Arial Black, ';stroke-width:1.8112"
       aria-label="d" />
  </g>
  <g
     id="ea3a177d-3d4f-428c-a0c9-a5628575e869"
     data-name="FND TXT">
    <g
       id="g79"
       transform="translate(0.44286115,48.307491)">
      <path
         d="m 74.19824,221.52686 a 0.39116,0.39116 0 0 1 -0.16211,-0.31836 0.40312,0.40312 0 0 1 0.63672,-0.31153 2.05554,2.05554 0 0 0 1.32813,0.4878 c 0.51464,0 0.83984,-0.24415 0.83984,-0.5962 v -0.0137 c 0,-0.33838 -0.18945,-0.52148 -1.07031,-0.7251 -1.00977,-0.24365 -1.5791,-0.542 -1.5791,-1.416 v -0.0132 a 1.45075,1.45075 0 0 1 1.61914,-1.37549 2.612,2.612 0 0 1 1.50439,0.44043 0.37568,0.37568 0 0 1 0.18311,0.332 0.38765,0.38765 0 0 1 -0.39307,0.38623 0.40383,0.40383 0 0 1 -0.2168,-0.061 1.97149,1.97149 0 0 0 -1.09082,-0.35937 c -0.48779,0 -0.772,0.251 -0.772,0.5625 v 0.0137 c 0,0.36572 0.2168,0.52832 1.13086,0.74512 1.00293,0.24414 1.51758,0.603 1.51758,1.38867 v 0.0137 c 0,0.8877 -0.69727,1.416 -1.69336,1.416 a 2.95282,2.95282 0 0 1 -1.7822,-0.59619 z"
         fill="#1f1f1f"
         id="path71" />
      <path
         d="m 78.59375,219.69775 v -0.0137 a 2.48,2.48 0 0 1 4.95947,-0.0132 v 0.0132 a 2.48,2.48 0 0 1 -4.95947,0.0137 z m 4.08594,0 v -0.0137 a 1.62513,1.62513 0 0 0 -1.6128,-1.687 1.60252,1.60252 0 0 0 -1.59912,1.67383 v 0.0132 a 1.61919,1.61919 0 0 0 1.61231,1.68018 1.59671,1.59671 0 0 0 1.59961,-1.66652 z"
         fill="#1f1f1f"
         id="path73" />
      <path
         d="m 84.77051,217.73291 a 0.4135,0.4135 0 0 1 0.41992,-0.41992 h 2.76416 a 0.3794,0.3794 0 0 1 0,0.75879 h -2.35107 v 1.29394 h 2.04589 a 0.3794,0.3794 0 1 1 0,0.75879 h -2.04589 v 1.55127 a 0.41652,0.41652 0 0 1 -0.833,0 z"
         fill="#1f1f1f"
         id="path75" />
      <path
         d="m 90.68848,218.08545 h -1.15186 a 0.38623,0.38623 0 0 1 0,-0.77246 H 92.687 a 0.38629,0.38629 0 0 1 0,0.77246 h -1.15868 v 3.59033 a 0.42,0.42 0 0 1 -0.83984,0 z"
         fill="#1f1f1f"
         id="path77" />
    </g>
    <g
       id="g87"
       transform="translate(0.44286115,48.307491)">
      <path
         d="m 44.7085,218.73584 a 0.41651,0.41651 0 0 1 0.833,0 v 3.604 h 2.148 a 0.3794,0.3794 0 1 1 0,0.75879 h -2.561 a 0.4135,0.4135 0 0 1 -0.41992,-0.41992 z"
         fill="#1f1f1f"
         id="path81" />
      <path
         d="m 49.06152,218.77637 a 0.41362,0.41362 0 0 1 0.41993,-0.42041 h 2.76416 a 0.3794,0.3794 0 0 1 0,0.75879 h -2.35108 v 1.29443 h 2.04639 a 0.3794,0.3794 0 0 1 0,0.75879 h -2.04639 v 1.55127 a 0.41652,0.41652 0 0 1 -0.833,0 z"
         fill="#1f1f1f"
         id="path83" />
      <path
         d="m 53.644,218.749 a 0.41772,0.41772 0 0 1 0.41992,-0.41992 h 0.0879 a 0.43807,0.43807 0 0 1 0.38623,0.22363 l 1.43652,2.249 1.44287,-2.25586 a 0.41976,0.41976 0 0 1 0.3794,-0.2168 h 0.08789 a 0.41814,0.41814 0 0 1 0.42041,0.41992 v 3.97022 a 0.41212,0.41212 0 0 1 -0.42041,0.41308 0.41932,0.41932 0 0 1 -0.41309,-0.41308 v -2.8457 l -1.1582,1.74121 a 0.3895,0.3895 0 0 1 -0.69825,0 l -1.15136,-1.72754 v 2.83886 a 0.40484,0.40484 0 0 1 -0.41358,0.40625 0.399,0.399 0 0 1 -0.40625,-0.40625 z"
         fill="#1f1f1f"
         id="path85" />
    </g>
    <g
       id="g97"
       transform="translate(0.44286115,48.307491)">
      <path
         d="m 55.99561,45.78955 a 0.50991,0.50991 0 0 1 0.51757,-0.51758 H 59.919 a 0.46753,0.46753 0 0 1 0,0.93506 h -2.89654 v 1.59424 H 59.543 a 0.46729,0.46729 0 1 1 0,0.93457 h -2.52054 v 1.91162 a 0.51345,0.51345 0 0 1 -1.02685,0 z"
         fill="#1f1f1f"
         id="path89" />
      <path
         d="m 61.56982,45.78955 a 0.50992,0.50992 0 0 1 0.51758,-0.51758 h 2.08692 a 2.35521,2.35521 0 0 1 1.686,0.58448 1.76678,1.76678 0 0 1 0.48389,1.26025 v 0.0166 a 1.72912,1.72912 0 0 1 -1.32715,1.74463 l 1.11865,1.41064 a 0.59458,0.59458 0 0 1 0.167,0.39209 0.4842,0.4842 0 0 1 -0.49267,0.47559 0.587,0.587 0 0 1 -0.501,-0.26709 l -1.41846,-1.811 h -1.2939 v 1.56934 a 0.51345,0.51345 0 0 1 -1.02686,0 z m 2.5293,2.37891 c 0.73438,0 1.20166,-0.38379 1.20166,-0.97657 v -0.0166 c 0,-0.626 -0.45068,-0.96826 -1.21,-0.96826 h -1.4941 v 1.96143 z"
         fill="#1f1f1f"
         id="path91" />
      <path
         d="m 67.8252,50.59717 v -4.80762 a 0.50991,0.50991 0 0 1 0.51757,-0.51758 h 3.397 a 0.46374,0.46374 0 0 1 0.45947,0.45948 0.45823,0.45823 0 0 1 -0.45947,0.459 h -2.8877 v 1.519 h 2.51221 a 0.46467,0.46467 0 0 1 0.459,0.46729 0.45578,0.45578 0 0 1 -0.459,0.45068 h -2.51223 v 1.56934 h 2.92969 a 0.46287,0.46287 0 0 1 0.459,0.459 0.45751,0.45751 0 0 1 -0.459,0.459 h -3.439 A 0.50991,0.50991 0 0 1 67.8252,50.59717 Z"
         fill="#1f1f1f"
         id="path93" />
      <path
         d="m 73.18506,48.21 v -0.0166 a 3.055,3.055 0 0 1 6.10937,-0.0166 v 0.0166 a 3.02264,3.02264 0 0 1 -0.59228,1.79443 l 0.37549,0.30909 a 0.50252,0.50252 0 0 1 0.19189,0.40039 0.49,0.49 0 0 1 -0.84326,0.34228 l -0.417,-0.37549 A 3.03841,3.03841 0 0 1 76.23144,51.21488 2.96566,2.96566 0 0 1 73.18506,48.21 Z m 3.15478,0.76807 a 0.49167,0.49167 0 0 1 0.48389,-0.49268 0.49879,0.49879 0 0 1 0.35889,0.15039 l 0.75146,0.68457 A 2.19577,2.19577 0 0 0 78.21777,48.21 v -0.0166 a 2.0015,2.0015 0 0 0 -1.98632,-2.07813 1.9739,1.9739 0 0 0 -1.96973,2.06153 v 0.0166 a 1.999,1.999 0 0 0 2.99609,1.80273 L 76.53174,49.37895 A 0.50424,0.50424 0 0 1 76.33984,48.978 Z"
         fill="#1f1f1f"
         id="path95" />
    </g>
    <g
       id="g133"
       transform="translate(0.44286115,48.307491)">
      <path
         d="m 14.88525,266.64209 a 0.41381,0.41381 0 0 1 0.41993,-0.41992 h 2.76416 a 0.3794,0.3794 0 0 1 0,0.75879 h -2.35059 v 1.29394 h 2.0459 a 0.3794,0.3794 0 0 1 0,0.75879 h -2.0459 v 1.55131 a 0.41676,0.41676 0 0 1 -0.8335,0 z"
         fill="#1f1f1f"
         id="path129" />
      <path
         d="m 19.46777,266.61523 a 0.41742,0.41742 0 0 1 0.41993,-0.41992 h 0.08789 a 0.43806,0.43806 0 0 1 0.38623,0.22364 l 1.43652,2.249 1.44287,-2.25586 a 0.4183,0.4183 0 0 1 0.3794,-0.2168 H 23.709 a 0.41773,0.41773 0 0 1 0.41993,0.41992 V 270.585 A 0.41242,0.41242 0 0 1 23.709,270.99858 0.41985,0.41985 0 0 1 23.29543,270.585 v -2.84521 l -1.15871,1.74121 a 0.38872,0.38872 0 0 1 -0.69727,0 l -1.15234,-1.72754 v 2.83838 a 0.40483,0.40483 0 0 1 -0.41309,0.40674 0.39909,0.39909 0 0 1 -0.40625,-0.40674 z"
         fill="#1f1f1f"
         id="path131" />
    </g>
    <g
       id="g145"
       transform="translate(0.44286115,48.307491)">
      <path
         d="M 41.6875,270.69336 40.02734,266.791 a 0.45988,0.45988 0 0 1 -0.04736,-0.19629 0.41063,0.41063 0 0 1 0.41992,-0.40625 0.43735,0.43735 0 0 1 0.42725,0.29785 l 1.36816,3.42138 1.38869,-3.44869 a 0.42966,0.42966 0 0 1 0.39991,-0.2705 0.40375,0.40375 0 0 1 0.41357,0.39941 0.477,0.477 0 0 1 -0.041,0.17627 l -1.66651,3.9292 a 0.49651,0.49651 0 0 1 -0.481,0.33887 h -0.04785 a 0.49358,0.49358 0 0 1 -0.47362,-0.33889 z"
         fill="#1f1f1f"
         id="path135" />
      <path
         d="m 44.37988,271.3916 2.77149,-5.67773 a 0.32256,0.32256 0 0 1 0.61621,0.12207 0.53851,0.53851 0 0 1 -0.03369,0.1626 l -2.77784,5.67724 a 0.30819,0.30819 0 0 1 -0.291,0.18994 0.32223,0.32223 0 0 1 -0.3252,-0.312 0.38641,0.38641 0 0 1 0.04003,-0.16212 z"
         fill="#1f1f1f"
         id="path137" />
      <path
         d="m 48.14014,268.60693 v -0.0137 a 2.48,2.48 0 0 1 4.95947,-0.0132 v 0.0132 a 2.48,2.48 0 0 1 -4.95947,0.0137 z m 4.08545,0 v -0.0137 a 1.625,1.625 0 0 0 -1.61231,-1.687 1.60252,1.60252 0 0 0 -1.59912,1.67383 v 0.0132 a 1.619,1.619 0 0 0 1.61279,1.68018 1.59651,1.59651 0 0 0 1.59864,-1.66652 z"
         fill="#1f1f1f"
         id="path139" />
      <path
         d="m 54.0791,268.60693 v -0.0137 a 2.39977,2.39977 0 0 1 2.44531,-2.45264 2.48646,2.48646 0 0 1 1.626,0.53516 0.41709,0.41709 0 0 1 0.16309,0.332 0.4166,0.4166 0 0 1 -0.66407,0.3252 1.72349,1.72349 0 0 0 -1.13183,-0.42676 1.59617,1.59617 0 0 0 -1.56446,1.67383 v 0.0132 a 1.59778,1.59778 0 0 0 1.56446,1.68018 1.69714,1.69714 0 0 0 1.18554,-0.4541 0.38366,0.38366 0 0 1 0.251,-0.0947 0.39659,0.39659 0 0 1 0.39307,0.38623 0.40167,0.40167 0 0 1 -0.13526,0.29834 2.42559,2.42559 0 0 1 -1.72119,0.63672 2.38475,2.38475 0 0 1 -2.41166,-2.43894 z"
         fill="#1f1f1f"
         id="path141" />
      <path
         d="m 60.69824,266.99463 h -1.15185 a 0.38623,0.38623 0 0 1 0,-0.77246 h 3.15039 a 0.38629,0.38629 0 0 1 0,0.77246 h -1.15869 v 3.59037 a 0.42,0.42 0 0 1 -0.83985,0 z"
         fill="#1f1f1f"
         id="path143" />
    </g>
    <g
       id="g155"
       transform="translate(0.44286115,48.307491)">
      <path
         d="m 74.0166,270.436 a 0.39116,0.39116 0 0 1 -0.16211,-0.31836 0.40312,0.40312 0 0 1 0.63672,-0.31153 2.05554,2.05554 0 0 0 1.32813,0.4878 c 0.51464,0 0.83984,-0.24415 0.83984,-0.5962 v -0.0137 c 0,-0.33838 -0.18945,-0.52148 -1.07031,-0.7251 -1.00977,-0.24365 -1.5791,-0.542 -1.5791,-1.416 v -0.0132 a 1.45075,1.45075 0 0 1 1.61914,-1.37549 2.612,2.612 0 0 1 1.50439,0.44043 0.37568,0.37568 0 0 1 0.18311,0.332 0.38766,0.38766 0 0 1 -0.39307,0.38623 0.40383,0.40383 0 0 1 -0.2168,-0.061 1.97149,1.97149 0 0 0 -1.09082,-0.35937 c -0.48779,0 -0.772,0.251 -0.772,0.5625 v 0.0137 c 0,0.36572 0.2168,0.52832 1.13086,0.74512 1.00293,0.24414 1.51758,0.603 1.51758,1.38867 v 0.0137 c 0,0.8877 -0.69727,1.416 -1.69336,1.416 a 2.95282,2.95282 0 0 1 -1.7822,-0.5962 z"
         fill="#1f1f1f"
         id="path147" />
      <path
         d="m 79.98828,269.12207 -1.63281,-2.24268 a 0.52009,0.52009 0 0 1 -0.09473,-0.2915 0.40478,0.40478 0 0 1 0.41992,-0.39941 0.4795,0.4795 0 0 1 0.40625,0.25048 l 1.32129,1.90381 1.3418,-1.91064 a 0.47819,0.47819 0 0 1 0.39941,-0.25049 0.39458,0.39458 0 0 1 0.40625,0.40625 0.5059,0.5059 0 0 1 -0.11474,0.29834 l -1.61963,2.21533 v 1.4834 a 0.41652,0.41652 0 0 1 -0.833,0 z"
         fill="#1f1f1f"
         id="path149" />
      <path
         d="m 83.53809,266.61523 a 0.41814,0.41814 0 0 1 0.42041,-0.41992 h 0.08838 a 0.52524,0.52524 0 0 1 0.43359,0.24365 l 2.37109,3.06885 v -2.91308 a 0.40968,0.40968 0 0 1 0.81934,0 v 3.98339 a 0.40484,0.40484 0 0 1 -0.40625,0.41358 h -0.03418 a 0.52486,0.52486 0 0 1 -0.43359,-0.25049 L 84.3584,267.584 v 3.00782 a 0.41017,0.41017 0 0 1 -0.82031,0 z"
         fill="#1f1f1f"
         id="path151" />
      <path
         d="m 88.88574,268.60693 v -0.0137 a 2.39977,2.39977 0 0 1 2.44531,-2.45264 2.48644,2.48644 0 0 1 1.626,0.53516 0.41709,0.41709 0 0 1 0.16309,0.332 0.4166,0.4166 0 0 1 -0.66407,0.3252 1.72349,1.72349 0 0 0 -1.13183,-0.42676 1.59616,1.59616 0 0 0 -1.56445,1.67383 v 0.0132 a 1.59777,1.59777 0 0 0 1.56445,1.68018 1.69718,1.69718 0 0 0 1.18555,-0.4541 0.38361,0.38361 0 0 1 0.251,-0.0947 0.39659,0.39659 0 0 1 0.39307,0.38623 0.40167,0.40167 0 0 1 -0.13526,0.29834 2.42559,2.42559 0 0 1 -1.72119,0.63672 2.38475,2.38475 0 0 1 -2.41167,-2.43894 z"
         fill="#1f1f1f"
         id="path153" />
    </g>
    <g
       id="g163" />
    <g
       id="g171" />
    <g
       id="g179"
       transform="translate(94.973984,-1.1487889)">
      <path
         d="m 11.085311,316.50394 q 0,-1.40235 0.78125,-2.1836 0.78125,-0.78125 2.175781,-0.78125 1.429688,0 2.203125,0.76953 0.773438,0.76563 0.773438,2.14844 0,1.00391 -0.339844,1.64844 -0.335938,0.64062 -0.976563,1 -0.636718,0.35547 -1.589843,0.35547 -0.96875,0 -1.605469,-0.3086 -0.632813,-0.30859 -1.027344,-0.97656 -0.394531,-0.66797 -0.394531,-1.67187 z m 1.769531,0.008 q 0,0.86719 0.320313,1.24609 0.324218,0.37891 0.878906,0.37891 0.570312,0 0.882812,-0.37109 0.3125,-0.3711 0.3125,-1.33204 0,-0.80859 -0.328125,-1.17968 -0.324218,-0.375 -0.882812,-0.375 -0.535156,0 -0.859375,0.3789 -0.324219,0.37891 -0.324219,1.25391 z m 8.84375,-2.875 h 1.765625 v 3.41406 q 0,0.50781 -0.160156,0.96094 -0.15625,0.44922 -0.496094,0.78906 -0.335937,0.33594 -0.707031,0.47266 -0.515625,0.1914 -1.238281,0.1914 -0.417969,0 -0.914063,-0.0586 -0.492187,-0.0586 -0.824219,-0.23047 -0.332031,-0.17578 -0.609375,-0.49609 -0.273437,-0.32031 -0.375,-0.66016 -0.164062,-0.54687 -0.164062,-0.96875 v -3.41406 h 1.765625 v 3.49609 q 0,0.46875 0.257812,0.73438 0.261719,0.26172 0.722657,0.26172 0.457031,0 0.714843,-0.25782 0.261719,-0.26171 0.261719,-0.73828 z m 2.535156,0 h 5.378907 v 1.41406 h -1.804688 v 4.3125 h -1.769531 v -4.3125 h -1.804688 z"
         id="text1"
         style="font-size:8px;font-family:'Arial Black';-inkscape-font-specification:'Arial Black, ';fill:#ffffff"
         aria-label="OUT" />
    </g>
  </g>
  <g
     id="fa53a534-7e67-46f9-bb82-6d4962d493ba"
     data-name="components"
     inkscape:groupmode="layer"
     style="display:none">
    <circle
       id="eeb44770-dee8-418f-8dcd-f36b7f0f00a1"
       data-name="Freq#SmallLight"
       cx="91.796944"
       cy="48.5079"
       r="3"
       style="fill:#ff00ff" />
    <circle
       id="a2b7d26d-cf28-4002-b799-20b6cfdb0d84"
       data-name="Soft#LEDButton"
       cx="83.509338"
       cy="286"
       r="5"
       style="fill:#ff0000" />
    <circle
       id="e0311624-14c1-4e8e-8557-36d615817f1d"
       data-name="Lfm#LEDButton"
       cx="51.509338"
       cy="286"
       r="5"
       style="fill:#ff0000" />
    <circle
       id="afe7ff05-809e-4034-9f5e-9a74f4549133"
       data-name="Sync#PJ301MPort"
       cx="83.509338"
       cy="334"
       r="5"
       style="fill:#00ff00" />
    <circle
       id="a315d13b-dc53-4eaf-bde6-30eac39fcbdf"
       data-name="Pitch#PJ301MPort"
       cx="51.509338"
       cy="334"
       r="5"
       style="fill:#00ff00" />
    <circle
       id="b3a627e6-2c38-4022-9965-f762a4bf17a9"
       data-name="Sqr#PJ301MPort"
       cx="115.50934"
       cy="334"
       r="5"
       style="fill:#0000ff" />
    <circle
       id="ac17fe1a-f789-4784-aa3a-781fc99ae73a"
       data-name="Freq#RoundHugeBlackKnob"
       cx="67.633141"
       cy="88.016998"
       r="5"
       style="fill:#ff0000" />
    <circle
       id="fe499126-b4fb-4162-8957-38fadff3f33e"
       data-name="Fm#PJ301MPort"
       cx="19.50939"
       cy="334"
       r="5"
       style="fill:#00ff00" />
    <circle
       id="acc0b878-9356-4555-9f39-64d69ce4b4b8"
       data-name="FmCv#Trimpot"
       cx="19.50939"
       cy="286"
       r="5"
       style="fill:#ff0000" />
    <circle
       id="acc0b878-9356-4555-9f39-64d69ce4b4b8-8"
       data-name="FmCv#Trimpot"
       cx="19.481524"
       cy="192.00938"
       r="5"
       style="display:inline;fill:#ff0000" />
    <circle
       id="acc0b878-9356-4555-9f39-64d69ce4b4b8-8-1"
       data-name="FmCv#Trimpot"
       cx="51.274563"
       cy="191.99997"
       r="5"
       style="display:inline;fill:#ff0000" />
    <circle
       id="acc0b878-9356-4555-9f39-64d69ce4b4b8-8-15"
       data-name="FmCv#Trimpot"
       cx="115.43307"
       cy="192.26537"
       r="5"
       style="display:inline;fill:#ff0000" />
    <circle
       id="acc0b878-9356-4555-9f39-64d69ce4b4b8-8-0"
       data-name="FmCv#Trimpot"
       cx="83.478394"
       cy="191.89803"
       r="5"
       style="display:inline;fill:#ff0000"
       inkscape:transform-center-x="27.838619"
       inkscape:transform-center-y="-1.2653918" />
    <circle
       id="acc0b878-9356-4555-9f39-64d69ce4b4b8-8-4"
       data-name="FmCv#Trimpot"
       cx="19.547802"
       cy="144.40167"
       r="5"
       style="display:inline;fill:#ff0000" />
    <circle
       id="acc0b878-9356-4555-9f39-64d69ce4b4b8-8-1-5"
       data-name="FmCv#Trimpot"
       cx="51.340839"
       cy="144.39226"
       r="5"
       style="display:inline;fill:#ff0000" />
    <circle
       id="acc0b878-9356-4555-9f39-64d69ce4b4b8-8-15-8"
       data-name="FmCv#Trimpot"
       cx="115.49933"
       cy="144.65765"
       r="5"
       style="display:inline;fill:#ff0000" />
    <circle
       id="acc0b878-9356-4555-9f39-64d69ce4b4b8-8-0-8"
       data-name="FmCv#Trimpot"
       cx="83.54467"
       cy="144.29031"
       r="5"
       style="display:inline;fill:#ff0000"
       inkscape:transform-center-x="27.838619"
       inkscape:transform-center-y="-1.2653918" />
  </g>
</svg>
