<?xml version="1.0" encoding="UTF-8" standalone="no"?>
<svg
   width="135"
   height="380"
   viewBox="0 0 135 380"
   version="1.1"
   id="svg214"
   sodipodi:docname="MicroExquis.svg"
   inkscape:version="1.3.2 (091e20e, 2023-11-25)"
   xmlns:inkscape="http://www.inkscape.org/namespaces/inkscape"
   xmlns:sodipodi="http://sodipodi.sourceforge.net/DTD/sodipodi-0.dtd"
   xmlns="http://www.w3.org/2000/svg"
   xmlns:svg="http://www.w3.org/2000/svg"
   xmlns:rdf="http://www.w3.org/1999/02/22-rdf-syntax-ns#"
   xmlns:cc="http://creativecommons.org/ns#"
   xmlns:dc="http://purl.org/dc/elements/1.1/">
  <metadata
     id="metadata218">
    <rdf:RDF>
      <cc:Work
         rdf:about="">
        <dc:format>image/svg+xml</dc:format>
        <dc:type
           rdf:resource="http://purl.org/dc/dcmitype/StillImage" />
      </cc:Work>
    </rdf:RDF>
  </metadata>
  <sodipodi:namedview
     pagecolor="#ffffff"
     bordercolor="#666666"
     borderopacity="1"
     objecttolerance="10"
     gridtolerance="10"
     guidetolerance="10"
     inkscape:pageopacity="0"
     inkscape:pageshadow="2"
     inkscape:window-width="1280"
     inkscape:window-height="1387"
     id="namedview216"
     showgrid="false"
     inkscape:zoom="12.543357"
     inkscape:cx="115.79835"
     inkscape:cy="294.97686"
     inkscape:window-x="35"
     inkscape:window-y="25"
     inkscape:window-maximized="0"
     inkscape:current-layer="aa880d18-cfe8-4bd2-bda2-afb179f11477"
     inkscape:showpageshadow="2"
     inkscape:pagecheckerboard="0"
     inkscape:deskcolor="#d1d1d1"
     showguides="true">
    <sodipodi:guide
       position="19.48589,101.44034"
       orientation="1,0"
       id="guide4"
       inkscape:locked="false" />
    <sodipodi:guide
       position="115.57245,163.4071"
       orientation="1,0"
       id="guide10"
       inkscape:locked="false" />
    <sodipodi:guide
       position="37.572933,45.85138"
       orientation="0,-1"
       id="guide11"
       inkscape:locked="false" />
    <sodipodi:guide
       position="65.322019,61.582835"
       orientation="0,-1"
       id="guide29"
       inkscape:locked="false" />
    <sodipodi:guide
       position="53.788295,341.16748"
       orientation="0,-1"
       id="guide2"
       inkscape:locked="false" />
    <sodipodi:guide
       position="74.516467,350.61322"
       orientation="0,-1"
       id="guide3"
       inkscape:locked="false" />
    <sodipodi:guide
       position="9.4141484,353.18394"
       orientation="1,0"
       id="guide1"
       inkscape:locked="false" />
    <sodipodi:guide
       position="126.37781,325.51205"
       orientation="1,0"
       id="guide5"
       inkscape:locked="false" />
    <sodipodi:guide
       position="70.146781,326.43831"
       orientation="0,-1"
       id="guide6"
       inkscape:locked="false" />
    <sodipodi:guide
       position="66.612253,270.97341"
       orientation="0,-1"
       id="guide7"
       inkscape:locked="false" />
    <sodipodi:guide
       position="58.532212,311.27561"
       orientation="0,-1"
       id="guide12"
       inkscape:locked="false" />
  </sodipodi:namedview>
  <defs
     id="defs7">
    <linearGradient
       id="e177933e-b46b-4a47-9930-05c1f1d4149c"
       x1="67.5"
       x2="67.5"
       y2="380"
       gradientUnits="userSpaceOnUse">
      <stop
         offset="0"
         stop-color="#ebebeb"
         id="stop2" />
      <stop
         offset="1"
         stop-color="#e1e1e1"
         id="stop4" />
    </linearGradient>
  </defs>
  <g
     id="ae8a9d53-7d51-4e2d-86b4-182b0f1636c5"
     data-name="FND BG">
    <rect
       width="135"
       height="380"
       fill="url(#e177933e-b46b-4a47-9930-05c1f1d4149c)"
       id="rect9"
       style="fill:#ffb319;fill-opacity:1" />
  </g>
  <g
     id="aa880d18-cfe8-4bd2-bda2-afb179f11477"
     data-name="FND GRAPH"
     style="display:inline"
     transform="translate(0,-0.26922717)">
    <rect
       x="100.05434"
       y="308.26425"
       width="30.832525"
       height="39.19244"
       rx="0.70115703"
       fill="#1f1f1f"
       id="rect12"
       style="stroke-width:0.497345" />
    <rect
       x="99.972466"
       y="262.52823"
       width="30.832525"
       height="39.19244"
       rx="0.70115703"
       fill="#1f1f1f"
       id="rect12-7"
       style="display:inline;stroke-width:0.497345" />
    <g
       id="g40">
      <circle
         cx="67.50634"
         cy="166.5"
         r="26.48818"
         fill="none"
         opacity="0.69"
         style="isolation:isolate"
         id="circle32" />
      <line
         x1="78.304573"
         y1="184.60266"
         x2="67.50634"
         y2="166.5"
         fill="none"
         id="line36" />
    </g>
    <path
       d="m 36.307918,355.66162 h 4.695983 q 1.534146,0 2.294982,0.68555 0.767073,0.68553 0.767073,1.95116 0,1.30078 -0.835673,2.0332 -0.829436,0.73241 -2.5382,0.73241 h -1.546619 v 3.1875 h -2.837546 z m 2.837546,3.6621 h 0.692237 q 0.816963,0 1.14749,-0.26367 0.330528,-0.26954 0.330528,-0.68555 0,-0.4043 -0.286872,-0.68554 -0.286874,-0.28125 -1.078892,-0.28125 h -0.804491 z"
       id="text28"
       style="font-size:12.38px;font-family:'Arial Black';-inkscape-font-specification:'Arial Black, ';stroke-width:1.03167"
       aria-label="P" />
    <path
       d="m 45.46914,355.66162 h 2.538201 v 1.62304 H 45.46914 Z m 0,2.36718 h 2.538201 v 6.22264 H 45.46914 Z"
       id="text27"
       style="font-size:12.38px;font-family:'Arial Black';-inkscape-font-specification:'Arial Black, ';stroke-width:1.03167"
       aria-label="i" />
    <path
       d="m 52.690848,355.66162 v 2.36718 h 1.396947 v 1.74022 h -1.396947 v 2.20899 q 0,0.39843 0.08107,0.52734 0.124728,0.19922 0.436546,0.19922 0.280636,0 0.785782,-0.15235 l 0.187091,1.64648 q -0.941691,0.19336 -1.758655,0.19336 -0.947927,0 -1.396946,-0.22852 -0.449018,-0.22851 -0.66729,-0.6914 -0.212038,-0.46875 -0.212038,-1.51172 v -2.1914 h -0.935454 v -1.74022 h 0.935454 v -1.14258 z"
       id="text26"
       style="font-size:12.38px;font-family:'Arial Black';-inkscape-font-specification:'Arial Black, ';stroke-width:1.03167"
       aria-label="t" />
    <path
       d="m 60.236852,361.81981 2.413473,0.2578 q -0.199564,0.70899 -0.654818,1.23047 -0.455254,0.51562 -1.166201,0.80273 -0.704709,0.28711 -1.796073,0.28711 -1.053946,0 -1.758655,-0.18164 -0.698472,-0.1875 -1.203618,-0.59765 -0.505146,-0.41602 -0.792019,-0.97266 -0.286872,-0.55664 -0.286872,-1.47656 0,-0.96093 0.349236,-1.5996 0.255691,-0.46875 0.698473,-0.83789 0.442782,-0.37499 0.910509,-0.55664 0.742128,-0.28711 1.902091,-0.28711 1.621456,0 2.469601,0.54492 0.854383,0.54493 1.197382,1.59375 l -2.388528,0.29883 q -0.112254,-0.39844 -0.4116,-0.59766 -0.293109,-0.20507 -0.792018,-0.20507 -0.629873,0 -1.022764,0.42773 -0.386654,0.42187 -0.386654,1.28319 0,0.76758 0.386654,1.16602 0.386655,0.39844 0.985346,0.39844 0.498909,0 0.835673,-0.24024 0.343,-0.24024 0.511382,-0.73827 z"
       id="text25"
       style="font-size:12.38px;font-family:'Arial Black';-inkscape-font-specification:'Arial Black, ';stroke-width:1.03167"
       aria-label="c" />
    <path
       d="m 63.707389,355.66162 h 2.5382 v 3.16405 q 0.517618,-0.5039 1.029001,-0.72069 0.511382,-0.21681 1.209855,-0.21681 1.035236,0 1.627691,0.5918 0.598691,0.5918 0.598691,1.8164 v 3.95507 h -2.550673 v -3.42187 q 0,-0.58594 -0.230746,-0.82617 -0.230745,-0.24609 -0.648582,-0.24609 -0.461491,0 -0.748364,0.32812 -0.286873,0.32812 -0.286873,1.17774 v 2.98827 h -2.5382 z"
       id="text24"
       style="font-size:12.38px;font-family:'Arial Black';-inkscape-font-specification:'Arial Black, ';stroke-width:1.03167"
       aria-label="h" />
    <path
       d="m 76.88171,361.14011 v -1.7871 h 4.365455 v 3.6621 q -1.253509,0.80273 -2.220146,1.0957 -0.9604,0.28711 -2.282509,0.28711 -1.627691,0 -2.656692,-0.52149 -1.022763,-0.52147 -1.590273,-1.55272 -0.561273,-1.03125 -0.561273,-2.36718 0,-1.40625 0.6174,-2.44335 0.617401,-1.04297 1.808547,-1.58203 0.929218,-0.41601 2.500782,-0.41601 1.515436,0 2.263801,0.25781 0.7546,0.25781 1.247272,0.80273 0.49891,0.53906 0.748364,1.37109 l -2.725291,0.45703 q -0.168382,-0.48633 -0.573746,-0.74414 -0.399127,-0.25782 -1.022764,-0.25782 -0.929218,0 -1.484254,0.60938 -0.5488,0.60351 -0.5488,1.91601 0,1.39453 0.555036,1.99218 0.561273,0.59765 1.559091,0.59765 0.473964,0 0.904273,-0.1289 0.430309,-0.1289 0.985345,-0.43946 v -0.80859 z"
       id="text23"
       style="font-size:12.38px;font-family:'Arial Black';-inkscape-font-specification:'Arial Black, ';stroke-width:1.03167"
       aria-label="G" />
    <path
       d="m 82.781312,358.0288 h 2.376055 v 1.01953 q 0.343001,-0.66211 0.704709,-0.90821 0.367946,-0.25195 0.904274,-0.25195 0.561272,0 1.228563,0.32813 l -0.785782,1.69922 q -0.449018,-0.17579 -0.710945,-0.17579 -0.49891,0 -0.773309,0.38672 -0.392891,0.54492 -0.392891,2.03906 v 2.08593 h -2.550674 z"
       id="text22"
       style="font-size:12.38px;font-family:'Arial Black';-inkscape-font-specification:'Arial Black, ';stroke-width:1.03167"
       aria-label="r" />
    <path
       d="m 88.518769,355.66162 h 2.538201 v 1.62304 h -2.538201 z m 0,2.36718 h 2.538201 v 6.22264 h -2.538201 z"
       id="text21"
       style="font-size:12.38px;font-family:'Arial Black';-inkscape-font-specification:'Arial Black, ';stroke-width:1.03167"
       aria-label="i" />
    <path
       d="m 99.650684,355.66162 v 8.58982 h -2.376061 v -0.91992 q -0.498908,0.58593 -0.910508,0.79101 -0.5488,0.26953 -1.222328,0.26953 -1.353291,0 -2.070473,-0.9668 -0.710946,-0.96679 -0.710946,-2.3496 0,-1.54687 0.785782,-2.36718 0.792018,-0.82031 2.00811,-0.82031 0.592454,0 1.072654,0.1875 0.486437,0.18751 0.860619,0.5625 v -2.97655 z m -2.544442,5.46092 q 0,-0.73243 -0.330527,-1.08985 -0.330527,-0.36327 -0.835673,-0.36327 -0.442782,0 -0.742128,0.3457 -0.299345,0.3457 -0.299345,1.16015 0,0.76172 0.305581,1.11914 0.311818,0.35156 0.767074,0.35156 0.486436,0 0.810726,-0.35742 0.324292,-0.35742 0.324292,-1.16601 z"
       id="text20"
       style="font-size:12.38px;font-family:'Arial Black';-inkscape-font-specification:'Arial Black, ';stroke-width:1.03167"
       aria-label="d" />
    <path
       d="m 7.3856824,22.314838 h 4.5661516 l 1.762105,6.833904 1.754445,-6.833904 h 4.550829 V 33.546345 H 17.184521 V 24.98098 l -2.198801,8.565365 h -2.566545 l -2.19114,-8.565365 v 8.565365 H 7.3856824 Z"
       id="text19"
       style="font-size:15.6904px;font-family:'Arial Black';-inkscape-font-specification:'Arial Black, ';stroke-width:1.30754"
       aria-label="M"
       transform="scale(1.3075294,0.76480114)" />
    <path
       d="m 22.1414,22.314838 h 3.118161 v 2.122188 H 22.1414 Z m 0,3.095176 h 3.118161 v 8.136331 H 22.1414 Z"
       id="text18"
       style="font-size:15.6904px;font-family:'Arial Black';-inkscape-font-specification:'Arial Black, ';stroke-width:1.30754"
       transform="scale(1.3075294,0.76480114)"
       aria-label="i" />
    <path
       d="m 33.319277,30.366894 2.964934,0.337098 q -0.245162,0.927021 -0.804439,1.608879 -0.559277,0.674197 -1.432668,1.049602 -0.86573,0.375405 -2.206463,0.375405 -1.294764,0 -2.160494,-0.237501 -0.858069,-0.245163 -1.478637,-0.781456 -0.620567,-0.543954 -0.972988,-1.27178 -0.352422,-0.727826 -0.352422,-1.930655 0,-1.256458 0.429035,-2.091542 0.314114,-0.612907 0.858069,-1.09557 0.543954,-0.490325 1.118553,-0.727827 0.911699,-0.375405 2.336706,-0.375405 1.991945,0 3.033886,0.712504 1.049601,0.712503 1.470975,2.083881 l -2.934289,0.390728 q -0.137904,-0.52097 -0.505648,-0.781456 -0.360082,-0.268146 -0.972988,-0.268146 -0.773795,0 -1.256458,0.559277 -0.475003,0.551615 -0.475003,1.677831 0,1.003634 0.475003,1.524604 0.475002,0.52097 1.21049,0.52097 0.612906,0 1.026618,-0.314114 0.421373,-0.314115 0.628228,-0.965327 z"
       id="text17"
       style="font-size:15.6904px;font-family:'Arial Black';-inkscape-font-specification:'Arial Black, ';stroke-width:1.30754"
       transform="scale(1.3075294,0.76480114)"
       aria-label="c" />
    <path
       d="m 37.747525,25.410014 h 2.918966 v 1.333071 q 0.421373,-0.86573 0.86573,-1.187506 0.452018,-0.329437 1.110893,-0.329437 0.689519,0 1.509281,0.429035 l -0.965327,2.221785 q -0.551616,-0.22984 -0.873392,-0.22984 -0.612906,0 -0.950004,0.505648 -0.482664,0.712503 -0.482664,2.666142 v 2.727433 h -3.133483 z"
       id="text16"
       style="font-size:15.6904px;font-family:'Arial Black';-inkscape-font-specification:'Arial Black, ';stroke-width:1.30754"
       transform="scale(1.3075294,0.76480114)"
       aria-label="r" />
    <path
       d="m 44.42437,29.501163 q 0,-1.861702 1.256458,-3.064531 1.256458,-1.21049 3.393968,-1.21049 2.443964,0 3.692761,1.417346 1.003634,1.141538 1.003634,2.811708 0,1.877025 -1.248797,3.079853 -1.241135,1.195168 -3.439936,1.195168 -1.9613,0 -3.17179,-0.995973 Q 44.42437,31.50077 44.42437,29.501163 Z m 3.125822,-0.0077 q 0,1.087909 0.436696,1.608879 0.444357,0.52097 1.110892,0.52097 0.674197,0 1.103232,-0.513309 0.436695,-0.513309 0.436695,-1.647185 0,-1.057263 -0.436695,-1.570572 -0.436696,-0.520971 -1.080248,-0.520971 -0.681858,0 -1.126215,0.528632 -0.444357,0.52097 -0.444357,1.593556 z"
       id="text15"
       style="font-size:15.6904px;font-family:'Arial Black';-inkscape-font-specification:'Arial Black, ';stroke-width:1.30754"
       transform="scale(1.3075294,0.76480114)"
       aria-label="o" />
    <path
       d="m 59.160938,22.314838 v 3.095176 h 1.716137 v 2.275415 h -1.716137 v 2.88832 q 0,0.520971 0.0996,0.68952 0.153227,0.260485 0.536293,0.260485 0.34476,0 0.965328,-0.199194 l 0.229839,2.152833 q -1.15686,0.252824 -2.160494,0.252824 -1.164522,0 -1.716138,-0.298792 -0.551615,-0.298792 -0.819762,-0.904037 -0.260485,-0.612906 -0.260485,-1.976623 V 27.685429 H 54.88592 v -2.275415 h 1.149199 v -1.493959 z"
       id="text14"
       style="font-size:15.6904px;font-family:'Arial Black';-inkscape-font-specification:'Arial Black, ';stroke-width:1.30754"
       transform="scale(1.3075294,0.76480114)"
       aria-label="t" />
    <path
       d="m 61.980305,29.501163 q 0,-1.861702 1.256458,-3.064531 1.256458,-1.21049 3.393968,-1.21049 2.443964,0 3.69276,1.417346 1.003634,1.141538 1.003634,2.811708 0,1.877025 -1.248796,3.079853 -1.241135,1.195168 -3.439936,1.195168 -1.9613,0 -3.17179,-0.995973 -1.486298,-1.233474 -1.486298,-3.233081 z m 3.125822,-0.0077 q 0,1.087909 0.436696,1.608879 0.444357,0.52097 1.110892,0.52097 0.674197,0 1.103232,-0.513309 0.436695,-0.513309 0.436695,-1.647185 0,-1.057263 -0.436695,-1.570572 -0.436696,-0.520971 -1.080248,-0.520971 -0.681858,0 -1.126215,0.528632 -0.444357,0.52097 -0.444357,1.593556 z"
       id="text13"
       style="font-size:15.6904px;font-family:'Arial Black';-inkscape-font-specification:'Arial Black, ';stroke-width:1.30754"
       transform="scale(1.3075294,0.76480114)"
       aria-label="o" />
    <path
       d="m 72.828742,25.410014 h 2.903643 v 1.32541 q 0.651213,-0.812101 1.317749,-1.156861 0.666535,-0.352421 1.624201,-0.352421 1.294765,0 2.022591,0.773794 0.735487,0.766133 0.735487,2.375012 v 5.171397 H 78.29893 v -4.474216 q 0,-0.766133 -0.283469,-1.080247 -0.283469,-0.321776 -0.796778,-0.321776 -0.566939,0 -0.91936,0.429034 -0.352421,0.429035 -0.352421,1.539927 v 3.907278 h -3.11816 z"
       id="text12"
       style="font-size:15.6904px;font-family:'Arial Black';-inkscape-font-specification:'Arial Black, ';stroke-width:1.30754"
       transform="scale(1.3075294,0.76480114)"
       aria-label="n" />
    <path
       d="m 86.136472,28.045511 -2.980256,-0.314114 q 0.168549,-0.781456 0.482663,-1.225813 0.321776,-0.452018 0.91936,-0.781455 0.429034,-0.237501 1.179844,-0.367744 0.75081,-0.130243 1.624202,-0.130243 1.402023,0 2.25243,0.160888 0.850408,0.153227 1.417346,0.651213 0.398389,0.34476 0.628229,0.98065 0.22984,0.628229 0.22984,1.202829 v 3.593163 q 0,0.574599 0.06895,0.904036 0.07661,0.321776 0.321775,0.827424 H 89.35423 q -0.17621,-0.314115 -0.22984,-0.475003 -0.05363,-0.168549 -0.107258,-0.52097 -0.612907,0.589922 -1.218152,0.842746 -0.827423,0.337099 -1.922993,0.337099 -1.455652,0 -2.214124,-0.674197 -0.75081,-0.674197 -0.75081,-1.662508 0,-0.927021 0.543954,-1.524605 0.543955,-0.597583 2.007268,-0.888714 1.754445,-0.352421 2.275415,-0.490325 0.52097,-0.145565 1.103231,-0.375405 0,-0.5746 -0.237501,-0.804439 -0.237501,-0.22984 -0.835085,-0.22984 -0.766133,0 -1.149199,0.245162 -0.298792,0.191533 -0.482664,0.720165 z m 2.704449,1.639524 q -0.643551,0.22984 -1.340732,0.406051 -0.950005,0.252824 -1.202829,0.497986 -0.260485,0.252824 -0.260485,0.5746 0,0.367743 0.252824,0.605245 0.260485,0.229839 0.758471,0.229839 0.520971,0 0.965328,-0.252823 0.452018,-0.252824 0.63589,-0.612907 0.191533,-0.367743 0.191533,-0.950004 z"
       id="text11"
       style="font-size:15.6904px;font-family:'Arial Black';-inkscape-font-specification:'Arial Black, ';stroke-width:1.30754"
       transform="scale(1.3075294,0.76480114)"
       aria-label="a" />
    <path
       d="M 93.866748,22.314838 H 96.99257 V 33.546345 H 93.866748 Z"
       id="text10"
       style="font-size:15.6904px;font-family:'Arial Black';-inkscape-font-specification:'Arial Black, ';stroke-width:1.30754"
       transform="scale(1.3075294,0.76480114)"
       aria-label="l" />
    <path
       d="M 6.3795245,44.211481 H 18.227998 v 3.054837 h -7.417496 v 2.274048 h 6.880704 v 2.918199 h -6.880704 v 2.8206 h 7.632213 V 58.51944 H 6.3795245 Z"
       id="text9"
       style="font-size:19.9882px;font-family:'Arial Black';-inkscape-font-specification:'Arial Black, ';fill:#2b1100;stroke-width:1.49911"
       transform="scale(1.4991175,0.66705913)"
       aria-label="E" />
    <path
       d="m 19.662698,48.154465 h 4.714013 l 1.649417,2.88892 1.912933,-2.88892 h 4.382179 l -3.533071,4.938491 3.786827,5.426484 H 27.939061 L 26.026128,55.181567 23.7716,58.51944 h -4.3041 l 3.767307,-5.426484 z"
       id="text8"
       style="font-size:19.9882px;font-family:'Arial Black';-inkscape-font-specification:'Arial Black, ';fill:#2b1100;stroke-width:1.49911"
       transform="scale(1.4991175,0.66705913)"
       aria-label="x" />
    <path
       d="m 44.804106,62.462424 h -4.011304 v -4.94825 q -0.585592,0.614871 -1.346861,0.927187 -0.75151,0.312315 -1.678697,0.312315 -1.893413,0 -3.132915,-1.356621 -1.239503,-1.36638 -1.239503,-3.903945 0,-1.698216 0.566072,-2.996278 0.566072,-1.298061 1.571338,-1.932452 1.005266,-0.644151 2.215489,-0.644151 1.044305,0 1.922693,0.458713 0.644151,0.341595 1.41518,1.307822 v -1.532299 h 3.718508 z m -3.982024,-9.096192 q 0,-1.337101 -0.507513,-1.932453 -0.497753,-0.595351 -1.268782,-0.595351 -0.71247,0 -1.200464,0.595351 -0.478233,0.585592 -0.478233,1.971493 0,1.239502 0.468474,1.815334 0.478233,0.566072 1.161423,0.566072 0.800309,0 1.307822,-0.595352 0.517273,-0.595351 0.517273,-1.825094 z"
       id="text7"
       style="font-size:19.9882px;font-family:'Arial Black';-inkscape-font-specification:'Arial Black, ';fill:#2b1100;stroke-width:1.49911"
       transform="scale(1.4991175,0.66705913)"
       aria-label="q" />
    <path
       d="m 58.14584,58.51944 h -3.708748 v -1.678697 q -0.829589,1.034546 -1.678697,1.47374 -0.839348,0.439193 -2.069091,0.439193 -1.639657,0 -2.576604,-0.975986 -0.927187,-0.985746 -0.927187,-3.025557 v -6.597668 h 3.991784 v 5.69976 q 0,0.975987 0.361115,1.385901 0.361115,0.409914 1.015026,0.409914 0.71247,0 1.161424,-0.546552 0.458713,-0.546553 0.458713,-1.961733 v -4.98729 h 3.972265 z"
       id="text6"
       style="font-size:19.9882px;font-family:'Arial Black';-inkscape-font-specification:'Arial Black, ';fill:#2b1100;stroke-width:1.49911"
       transform="scale(1.4991175,0.66705913)"
       aria-label="u" />
    <path
       d="m 60.702921,44.211481 h 3.972264 v 2.703482 h -3.972264 z m 0,3.942984 h 3.972264 V 58.51944 h -3.972264 z"
       id="text5"
       style="font-size:19.9882px;font-family:'Arial Black';-inkscape-font-specification:'Arial Black, ';fill:#2b1100;stroke-width:1.49911"
       transform="scale(1.4991175,0.66705913)"
       aria-label="i" />
    <path
       d="m 71.155231,55.06925 5.242492,-0.493106 q 0.324411,0.934306 0.908352,1.336576 0.583941,0.402271 1.557176,0.402271 1.06407,0 1.648011,-0.454177 0.454176,-0.337388 0.454176,-0.84347 0,-0.570964 -0.596917,-0.882399 -0.428224,-0.2206 -2.270882,-0.545012 -2.75101,-0.480129 -3.828057,-0.8824 -1.06407,-0.415246 -1.803728,-1.388481 -0.726682,-0.973235 -0.726682,-2.218976 0,-1.362529 0.791564,-2.34874 0.791564,-0.986211 2.180046,-1.46634 1.388482,-0.493106 3.724246,-0.493106 2.465528,0 3.63341,0.376317 1.180858,0.376318 1.959446,1.167882 0.791564,0.791565 1.310623,2.141117 l -5.008916,0.493106 q -0.194647,-0.6618 -0.648823,-0.973235 -0.62287,-0.415247 -1.50527,-0.415247 -0.895376,0 -1.310623,0.324412 -0.40227,0.311435 -0.40227,0.765611 0,0.506082 0.519058,0.765611 0.519059,0.25953 2.257905,0.467153 2.634223,0.298459 3.918893,0.830494 1.28467,0.532035 1.959446,1.518246 0.687753,0.986212 0.687753,2.16707 0,1.193835 -0.726682,2.322787 -0.713706,1.128952 -2.270882,1.803729 -1.544199,0.661799 -4.217351,0.661799 -3.776151,0 -5.385233,-1.077046 -1.596105,-1.077047 -2.050281,-3.062446 z"
       id="text4"
       style="font-size:26.5758px;font-family:'Arial Black';-inkscape-font-specification:'Arial Black, ';fill:#2b1100;stroke-width:1.99318"
       transform="scale(1.4012514,0.71364781)"
       aria-label="s" />
    <path
       style="font-size:8px;font-family:'Arial Black';-inkscape-font-specification:'Arial Black, ';fill:#ececec;fill-opacity:1"
       d="m 104.14301,266.21954 h 5.3789 v 1.41407 h -1.80469 v 4.3125 h -1.76953 v -4.3125 h -1.80468 z m 6.20312,0 h 2.62891 q 0.77734,0 1.2539,0.21094 0.48047,0.21094 0.79297,0.60547 0.3125,0.39453 0.45313,0.91797 0.14062,0.52344 0.14062,1.10937 0,0.91797 -0.21094,1.42578 -0.20703,0.50391 -0.57812,0.84766 -0.37109,0.33984 -0.79688,0.45313 -0.58203,0.15625 -1.05468,0.15625 h -2.62891 z m 1.76953,1.29688 v 3.1289 h 0.4336 q 0.55468,0 0.78906,-0.12109 0.23437,-0.125 0.36719,-0.42969 0.13281,-0.30859 0.13281,-0.99609 0,-0.91016 -0.29688,-1.24609 -0.29687,-0.33594 -0.98437,-0.33594 z m 7.60938,3.48437 h -2.01563 l -0.27734,0.94532 h -1.8086 l 2.15235,-5.72657 h 1.92969 l 2.15234,5.72657 h -1.85156 z m -0.3711,-1.23828 -0.63281,-2.05859 -0.62891,2.05859 z m 2.11719,-3.54297 h 5.37891 v 1.41407 h -1.80469 v 4.3125 h -1.76953 v -4.3125 h -1.80469 z"
       id="text2"
       aria-label="TDAT" />
  </g>
  <g
     id="ea3a177d-3d4f-428c-a0c9-a5628575e869"
     data-name="FND TXT">
    <g
       id="g87"
       transform="translate(0.44286115,48.307491)" />
    <g
       id="g133"
       transform="translate(0.44286115,48.307491)" />
    <g
       id="g163" />
    <g
       id="g171" />
    <g
       id="g179"
       transform="translate(94.973984,-1.1487889)">
      <text
         xml:space="preserve"
         style="font-size:8px;font-family:'Arial Black';-inkscape-font-specification:'Arial Black, ';fill:#483737;font-weight:normal;font-style:normal;font-stretch:normal;font-variant:normal"
         x="-35.409161"
         y="243.39384"
         id="text3"><tspan
           sodipodi:role="line"
           id="tspan1"
           x="-35.409161"
           y="243.39384" /></text>
      <path
         d="m -92.574314,296.63298 h 1.750645 l 1.218804,3.89648 1.200337,-3.89648 h 1.698938 l -2.009179,5.41444 h -1.813432 z m 7.220489,-0.0923 h 0.768215 l -1.359151,5.59541 h -0.760829 z m 1.089536,2.80325 q 0,-1.32591 0.738669,-2.06458 0.738669,-0.73867 2.057193,-0.73867 1.351764,0 2.083047,0.72759 0.731282,0.72389 0.731282,2.03134 0,0.94919 -0.321321,1.55859 -0.317628,0.60571 -0.923336,0.94549 -0.602016,0.3361 -1.503192,0.3361 -0.915949,0 -1.517964,-0.29178 -0.598322,-0.29177 -0.97135,-0.92333 -0.373028,-0.63156 -0.373028,-1.58075 z m 1.673085,0.007 q 0,0.81993 0.302855,1.17818 0.306547,0.35825 0.831002,0.35825 0.539228,0 0.834696,-0.35086 0.295468,-0.35087 0.295468,-1.25943 0,-0.76453 -0.310241,-1.11539 -0.306548,-0.35457 -0.834696,-0.35457 -0.505988,0 -0.812536,0.35826 -0.306548,0.35825 -0.306548,1.18556 z m 8.442986,0.48383 1.466258,0.4432 q -0.147734,0.61679 -0.465361,1.03045 -0.317628,0.41365 -0.790376,0.62417 -0.469055,0.21052 -1.196644,0.21052 -0.882709,0 -1.444098,-0.25484 -0.557695,-0.25853 -0.963962,-0.90487 -0.406268,-0.64633 -0.406268,-1.65462 0,-1.34437 0.712815,-2.06458 0.716509,-0.72389 2.023953,-0.72389 1.023057,0 1.606605,0.41365 0.587242,0.41366 0.871629,1.27051 l -1.477338,0.32871 q -0.07756,-0.24745 -0.162507,-0.36195 -0.140347,-0.19205 -0.343481,-0.29547 -0.203134,-0.10341 -0.454281,-0.10341 -0.568775,0 -0.87163,0.45798 -0.228987,0.33978 -0.228987,1.06737 0,0.90118 0.273308,1.23727 0.273307,0.3324 0.768215,0.3324 0.480135,0 0.723896,-0.26961 0.247454,-0.26961 0.358254,-0.78299 z m 1.89838,-3.20213 h 5.085735 v 1.33699 h -1.706325 v 4.07745 h -1.673085 v -4.07745 h -1.706325 z"
         id="text29"
         style="font-size:7.56397px;font-family:'Arial Black';-inkscape-font-specification:'Arial Black, ';fill:#483737;stroke-width:0.945496"
         transform="scale(0.94549611,1.0576458)"
         aria-label="V/OCT" />
      <path
         style="font-size:7.31331px;font-family:'Arial Black';-inkscape-font-specification:'Arial Black, ';fill:#ececec;stroke-width:0.914164"
         d="m 7.0719801,286.70236 h 2.1282876 l 0.8213193,3.18529 0.817748,-3.18529 h 2.121145 v 5.23502 h -1.321252 v -3.99233 l -1.024863,3.99233 H 9.4180957 l -1.0212923,-3.99233 v 3.99233 H 7.0719801 Z m 6.4027179,0 h 1.692631 l 1.178414,3.76736 1.16056,-3.76736 h 1.642638 l -1.942598,5.23502 h -1.753338 z m 6.981211,-0.0893 h 0.742759 l -1.314111,5.40999 h -0.735616 z m 1.053431,2.71035 q 0,-1.28197 0.714191,-1.99616 0.71419,-0.71419 1.98902,-0.71419 1.306969,0 2.014017,0.70348 0.707049,0.6999 0.707049,1.96402 0,0.91773 -0.310673,1.50694 -0.307102,0.58564 -0.892738,0.91417 -0.582065,0.32495 -1.453378,0.32495 -0.885596,0 -1.467661,-0.2821 -0.578494,-0.28211 -0.93916,-0.89274 -0.360667,-0.61063 -0.360667,-1.52837 z m 1.617642,0.007 q 0,0.79275 0.292818,1.13914 0.296389,0.34638 0.803464,0.34638 0.521359,0 0.807035,-0.33924 0.285676,-0.33924 0.285676,-1.2177 0,-0.73918 -0.29996,-1.07842 -0.296389,-0.34282 -0.807035,-0.34282 -0.48922,0 -0.785609,0.34639 -0.296389,0.34638 -0.296389,1.14627 z m 8.163196,0.4678 1.417668,0.42851 q -0.142838,0.59635 -0.44994,0.9963 -0.307102,0.39994 -0.764184,0.60349 -0.453511,0.20354 -1.156988,0.20354 -0.853458,0 -1.396243,-0.24639 -0.539213,-0.24997 -0.932018,-0.87489 -0.392805,-0.62491 -0.392805,-1.59978 0,-1.29983 0.689194,-1.99617 0.692765,-0.6999 1.956882,-0.6999 0.989153,0 1.553364,0.39994 0.567781,0.39995 0.842745,1.22841 l -1.428381,0.31782 q -0.07499,-0.23926 -0.157122,-0.34996 -0.135696,-0.18569 -0.332099,-0.28567 -0.196402,-0.1 -0.439227,-0.1 -0.549927,0 -0.842745,0.4428 -0.221399,0.32853 -0.221399,1.032 0,0.87132 0.264251,1.19627 0.26425,0.32139 0.742758,0.32139 0.464224,0 0.699907,-0.26068 0.239253,-0.26068 0.346382,-0.75704 z m 1.83547,-3.09602 h 4.917202 v 1.29269 h -1.64978 v 3.94233 h -1.617642 v -3.94233 h -1.64978 z"
         id="text29-4"
         transform="scale(0.91416402,1.0938956)"
         aria-label="MV/OCT" />
    </g>
  </g>
  <g
     id="fa53a534-7e67-46f9-bb82-6d4962d493ba"
     data-name="components"
     inkscape:groupmode="layer"
     style="display:none">
    <circle
       id="eeb44770-dee8-418f-8dcd-f36b7f0f00a1"
       data-name="Freq#SmallLight"
       cx="91.796944"
       cy="48.5079"
       r="3"
       style="fill:#ff00ff" />
    <circle
       id="a2b7d26d-cf28-4002-b799-20b6cfdb0d84"
       data-name="Soft#LEDButton"
       cx="83.509338"
       cy="286"
       r="5"
       style="fill:#ff0000" />
    <circle
       id="e0311624-14c1-4e8e-8557-36d615817f1d"
       data-name="Lfm#LEDButton"
       cx="51.509338"
       cy="286"
       r="5"
       style="fill:#ff0000" />
    <circle
       id="afe7ff05-809e-4034-9f5e-9a74f4549133"
       data-name="Sync#PJ301MPort"
       cx="83.509338"
       cy="334"
       r="5"
       style="fill:#00ff00" />
    <circle
       id="a315d13b-dc53-4eaf-bde6-30eac39fcbdf"
       data-name="Pitch#PJ301MPort"
       cx="51.509338"
       cy="334"
       r="5"
       style="fill:#00ff00" />
    <circle
       id="b3a627e6-2c38-4022-9965-f762a4bf17a9"
       data-name="Sqr#PJ301MPort"
       cx="115.50934"
       cy="334"
       r="5"
       style="fill:#0000ff" />
    <circle
       id="ac17fe1a-f789-4784-aa3a-781fc99ae73a"
       data-name="Freq#RoundHugeBlackKnob"
       cx="67.633141"
       cy="88.016998"
       r="5"
       style="fill:#ff0000" />
    <circle
       id="fe499126-b4fb-4162-8957-38fadff3f33e"
       data-name="Fm#PJ301MPort"
       cx="19.50939"
       cy="334"
       r="5"
       style="fill:#00ff00" />
    <circle
       id="acc0b878-9356-4555-9f39-64d69ce4b4b8"
       data-name="FmCv#Trimpot"
       cx="19.50939"
       cy="286"
       r="5"
       style="fill:#ff0000" />
    <circle
       id="acc0b878-9356-4555-9f39-64d69ce4b4b8-8"
       data-name="FmCv#Trimpot"
       cx="19.481524"
       cy="192.00938"
       r="5"
       style="display:inline;fill:#ff0000" />
    <circle
       id="acc0b878-9356-4555-9f39-64d69ce4b4b8-8-1"
       data-name="FmCv#Trimpot"
       cx="51.274563"
       cy="191.99997"
       r="5"
       style="display:inline;fill:#ff0000" />
    <circle
       id="acc0b878-9356-4555-9f39-64d69ce4b4b8-8-15"
       data-name="FmCv#Trimpot"
       cx="115.43307"
       cy="192.26537"
       r="5"
       style="display:inline;fill:#ff0000" />
    <circle
       id="acc0b878-9356-4555-9f39-64d69ce4b4b8-8-0"
       data-name="FmCv#Trimpot"
       cx="83.478394"
       cy="191.89803"
       r="5"
       style="display:inline;fill:#ff0000"
       inkscape:transform-center-x="27.838619"
       inkscape:transform-center-y="-1.2653918" />
    <circle
       id="acc0b878-9356-4555-9f39-64d69ce4b4b8-8-4"
       data-name="FmCv#Trimpot"
       cx="19.547802"
       cy="144.40167"
       r="5"
       style="display:inline;fill:#ff0000" />
    <circle
       id="acc0b878-9356-4555-9f39-64d69ce4b4b8-8-1-5"
       data-name="FmCv#Trimpot"
       cx="51.340839"
       cy="144.39226"
       r="5"
       style="display:inline;fill:#ff0000" />
    <circle
       id="acc0b878-9356-4555-9f39-64d69ce4b4b8-8-15-8"
       data-name="FmCv#Trimpot"
       cx="115.49933"
       cy="144.65765"
       r="5"
       style="display:inline;fill:#ff0000" />
    <circle
       id="acc0b878-9356-4555-9f39-64d69ce4b4b8-8-0-8"
       data-name="FmCv#Trimpot"
       cx="83.54467"
       cy="144.29031"
       r="5"
       style="display:inline;fill:#ff0000"
       inkscape:transform-center-x="27.838619"
       inkscape:transform-center-y="-1.2653918" />
  </g>
</svg>
