<?xml version="1.0" encoding="UTF-8" standalone="no"?>
<svg
   width="300"
   height="380"
   viewBox="0 0 300 380"
   version="1.1"
   id="svg214"
   sodipodi:docname="MicroExquis.svg"
   inkscape:version="1.3.2 (091e20e, 2023-11-25)"
   xmlns:inkscape="http://www.inkscape.org/namespaces/inkscape"
   xmlns:sodipodi="http://sodipodi.sourceforge.net/DTD/sodipodi-0.dtd"
   xmlns="http://www.w3.org/2000/svg"
   xmlns:svg="http://www.w3.org/2000/svg"
   xmlns:rdf="http://www.w3.org/1999/02/22-rdf-syntax-ns#"
   xmlns:cc="http://creativecommons.org/ns#"
   xmlns:dc="http://purl.org/dc/elements/1.1/">
  <metadata
     id="metadata218">
    <rdf:RDF>
      <cc:Work
         rdf:about="">
        <dc:format>image/svg+xml</dc:format>
        <dc:type
           rdf:resource="http://purl.org/dc/dcmitype/StillImage" />
      </cc:Work>
    </rdf:RDF>
  </metadata>
  <sodipodi:namedview
     pagecolor="#ffffff"
     bordercolor="#666666"
     borderopacity="1"
     objecttolerance="10"
     gridtolerance="10"
     guidetolerance="10"
     inkscape:pageopacity="0"
     inkscape:pageshadow="2"
     inkscape:window-width="2560"
     inkscape:window-height="1387"
     id="namedview216"
     showgrid="false"
     inkscape:zoom="3.5515576"
     inkscape:cx="59.551337"
     inkscape:cy="283.53757"
     inkscape:window-x="0"
     inkscape:window-y="25"
     inkscape:window-maximized="0"
     inkscape:current-layer="svg214"
     inkscape:showpageshadow="2"
     inkscape:pagecheckerboard="0"
     inkscape:deskcolor="#d1d1d1"
     showguides="true">
    <sodipodi:guide
       position="19.48589,101.44034"
       orientation="1,0"
       id="guide4"
       inkscape:locked="false" />
    <sodipodi:guide
       position="115.57245,163.4071"
       orientation="1,0"
       id="guide10"
       inkscape:locked="false" />
    <sodipodi:guide
       position="37.572933,45.85138"
       orientation="0,-1"
       id="guide11"
       inkscape:locked="false" />
    <sodipodi:guide
       position="65.322019,61.582835"
       orientation="0,-1"
       id="guide29"
       inkscape:locked="false" />
    <sodipodi:guide
       position="53.788295,341.16748"
       orientation="0,-1"
       id="guide2"
       inkscape:locked="false" />
    <sodipodi:guide
       position="74.516467,350.61322"
       orientation="0,-1"
       id="guide3"
       inkscape:locked="false" />
    <sodipodi:guide
       position="9.4141484,353.18394"
       orientation="1,0"
       id="guide1"
       inkscape:locked="false" />
    <sodipodi:guide
       position="187.03279,98.38053"
       orientation="1,0"
       id="guide5"
       inkscape:locked="false" />
    <sodipodi:guide
       position="70.146781,326.43831"
       orientation="0,-1"
       id="guide6"
       inkscape:locked="false" />
    <sodipodi:guide
       position="66.612253,270.97341"
       orientation="0,-1"
       id="guide7"
       inkscape:locked="false" />
    <sodipodi:guide
       position="58.532212,311.27561"
       orientation="0,-1"
       id="guide12"
       inkscape:locked="false" />
    <sodipodi:guide
       position="149.9888,189.10516"
       orientation="1,0"
       id="guide8"
       inkscape:locked="false" />
    <sodipodi:guide
       position="46.418932,355.00519"
       orientation="0,-1"
       id="guide9"
       inkscape:locked="false" />
    <sodipodi:guide
       position="280.43937,322.6374"
       orientation="1,0"
       id="guide13"
       inkscape:locked="false" />
    <sodipodi:guide
       position="249.25648,33.07721"
       orientation="0,-1"
       id="guide14"
       inkscape:locked="false" />
    <sodipodi:guide
       position="247.02662,92.735554"
       orientation="1,0"
       id="guide15"
       inkscape:locked="false" />
  </sodipodi:namedview>
  <defs
     id="defs7">
    <linearGradient
       id="e177933e-b46b-4a47-9930-05c1f1d4149c"
       x1="67.5"
       x2="67.5"
       y2="380"
       gradientUnits="userSpaceOnUse">
      <stop
         offset="0"
         stop-color="#ebebeb"
         id="stop2" />
      <stop
         offset="1"
         stop-color="#e1e1e1"
         id="stop4" />
    </linearGradient>
  </defs>
  <g
     id="ae8a9d53-7d51-4e2d-86b4-182b0f1636c5"
     data-name="FND BG"
     transform="scale(2.2222222,1)"
     style="display:inline">
    <rect
       width="135"
       height="380"
       fill="url(#e177933e-b46b-4a47-9930-05c1f1d4149c)"
       id="rect9"
       style="fill:#ffb319;fill-opacity:1"
       x="0"
       y="0" />
  </g>
  <g
     id="aa880d18-cfe8-4bd2-bda2-afb179f11477"
     data-name="FND GRAPH"
     style="display:inline"
     transform="translate(0,-0.26922717)">
    <rect
       x="265.1615"
       y="308.26425"
       width="30.832525"
       height="39.19244"
       rx="0.70115703"
       fill="#1f1f1f"
       id="rect12"
       style="stroke-width:0.497345" />
    <rect
       x="231.55962"
       y="308.26285"
       width="30.832525"
       height="39.19244"
       rx="0.70115703"
       fill="#1f1f1f"
       id="rect12-7"
       style="display:inline;stroke-width:0.497345" />
    <g
       id="g40">
      <circle
         cx="67.50634"
         cy="166.5"
         r="26.48818"
         fill="none"
         opacity="0.69"
         style="isolation:isolate"
         id="circle32" />
      <line
         x1="78.304573"
         y1="184.60266"
         x2="67.50634"
         y2="166.5"
         fill="none"
         id="line36" />
    </g>
    <path
       d="m 118.60605,365.29089 h 4.69599 q 1.53414,0 2.29498,0.68555 0.76707,0.68553 0.76707,1.95116 0,1.30078 -0.83567,2.0332 -0.82944,0.73241 -2.5382,0.73241 h -1.54662 v 3.1875 h -2.83755 z m 2.83755,3.6621 h 0.69224 q 0.81696,0 1.14749,-0.26367 0.33052,-0.26954 0.33052,-0.68555 0,-0.4043 -0.28687,-0.68554 -0.28687,-0.28125 -1.07889,-0.28125 h -0.80449 z"
       id="text28"
       style="font-size:12.38px;font-family:'Arial Black';-inkscape-font-specification:'Arial Black, ';stroke-width:1.03167"
       aria-label="P" />
    <path
       d="m 127.76728,365.29089 h 2.5382 v 1.62304 h -2.5382 z m 0,2.36718 h 2.5382 v 6.22264 h -2.5382 z"
       id="text27"
       style="font-size:12.38px;font-family:'Arial Black';-inkscape-font-specification:'Arial Black, ';stroke-width:1.03167"
       aria-label="i" />
    <path
       d="m 134.98898,365.29089 v 2.36718 h 1.39695 v 1.74022 h -1.39695 v 2.20899 q 0,0.39843 0.0811,0.52734 0.12473,0.19922 0.43655,0.19922 0.28064,0 0.78578,-0.15235 l 0.18709,1.64648 q -0.94169,0.19336 -1.75865,0.19336 -0.94793,0 -1.39695,-0.22852 -0.44902,-0.22851 -0.66729,-0.6914 -0.21204,-0.46875 -0.21204,-1.51172 v -2.1914 h -0.93545 v -1.74022 h 0.93545 v -1.14258 z"
       id="text26"
       style="font-size:12.38px;font-family:'Arial Black';-inkscape-font-specification:'Arial Black, ';stroke-width:1.03167"
       aria-label="t" />
    <path
       d="m 142.53499,371.44908 2.41347,0.2578 q -0.19956,0.70899 -0.65482,1.23047 -0.45525,0.51562 -1.1662,0.80273 -0.70471,0.28711 -1.79607,0.28711 -1.05395,0 -1.75866,-0.18164 -0.69847,-0.1875 -1.20361,-0.59765 -0.50515,-0.41602 -0.79202,-0.97266 -0.28688,-0.55664 -0.28688,-1.47656 0,-0.96093 0.34924,-1.5996 0.25569,-0.46875 0.69847,-0.83789 0.44279,-0.37499 0.91051,-0.55664 0.74213,-0.28711 1.90209,-0.28711 1.62146,0 2.4696,0.54492 0.85439,0.54493 1.19739,1.59375 l -2.38853,0.29883 q -0.11226,-0.39844 -0.4116,-0.59766 -0.29311,-0.20507 -0.79202,-0.20507 -0.62987,0 -1.02276,0.42773 -0.38666,0.42187 -0.38666,1.28319 0,0.76758 0.38666,1.16602 0.38665,0.39844 0.98534,0.39844 0.49891,0 0.83568,-0.24024 0.343,-0.24024 0.51138,-0.73827 z"
       id="text25"
       style="font-size:12.38px;font-family:'Arial Black';-inkscape-font-specification:'Arial Black, ';stroke-width:1.03167"
       aria-label="c" />
    <path
       d="m 146.00552,365.29089 h 2.5382 v 3.16405 q 0.51762,-0.5039 1.02901,-0.72069 0.51138,-0.21681 1.20985,-0.21681 1.03524,0 1.62769,0.5918 0.59869,0.5918 0.59869,1.8164 v 3.95507 h -2.55067 v -3.42187 q 0,-0.58594 -0.23075,-0.82617 -0.23074,-0.24609 -0.64858,-0.24609 -0.46149,0 -0.74836,0.32812 -0.28688,0.32812 -0.28688,1.17774 v 2.98827 h -2.5382 z"
       id="text24"
       style="font-size:12.38px;font-family:'Arial Black';-inkscape-font-specification:'Arial Black, ';stroke-width:1.03167"
       aria-label="h" />
    <path
       d="m 159.17985,370.76938 v -1.7871 h 4.36545 v 3.6621 q -1.25351,0.80273 -2.22015,1.0957 -0.9604,0.28711 -2.2825,0.28711 -1.6277,0 -2.6567,-0.52149 -1.02276,-0.52147 -1.59027,-1.55272 -0.56127,-1.03125 -0.56127,-2.36718 0,-1.40625 0.6174,-2.44335 0.6174,-1.04297 1.80854,-1.58203 0.92922,-0.41601 2.50079,-0.41601 1.51543,0 2.2638,0.25781 0.7546,0.25781 1.24727,0.80273 0.49891,0.53906 0.74836,1.37109 l -2.72529,0.45703 q -0.16838,-0.48633 -0.57374,-0.74414 -0.39913,-0.25782 -1.02277,-0.25782 -0.92922,0 -1.48425,0.60938 -0.5488,0.60351 -0.5488,1.91601 0,1.39453 0.55503,1.99218 0.56128,0.59765 1.5591,0.59765 0.47396,0 0.90427,-0.1289 0.43031,-0.1289 0.98534,-0.43946 v -0.80859 z"
       id="text23"
       style="font-size:12.38px;font-family:'Arial Black';-inkscape-font-specification:'Arial Black, ';stroke-width:1.03167"
       aria-label="G" />
    <path
       d="m 165.07945,367.65807 h 2.37605 v 1.01953 q 0.343,-0.66211 0.70471,-0.90821 0.36795,-0.25195 0.90428,-0.25195 0.56127,0 1.22856,0.32813 l -0.78578,1.69922 q -0.44902,-0.17579 -0.71095,-0.17579 -0.49891,0 -0.77331,0.38672 -0.39289,0.54492 -0.39289,2.03906 v 2.08593 h -2.55067 z"
       id="text22"
       style="font-size:12.38px;font-family:'Arial Black';-inkscape-font-specification:'Arial Black, ';stroke-width:1.03167"
       aria-label="r" />
    <path
       d="m 170.8169,365.29089 h 2.53821 v 1.62304 h -2.53821 z m 0,2.36718 h 2.53821 v 6.22264 h -2.53821 z"
       id="text21"
       style="font-size:12.38px;font-family:'Arial Black';-inkscape-font-specification:'Arial Black, ';stroke-width:1.03167"
       aria-label="i" />
    <path
       d="m 181.94882,365.29089 v 8.58982 h -2.37606 v -0.91992 q -0.49891,0.58593 -0.91051,0.79101 -0.5488,0.26953 -1.22233,0.26953 -1.35329,0 -2.07047,-0.9668 -0.71095,-0.96679 -0.71095,-2.3496 0,-1.54687 0.78579,-2.36718 0.79201,-0.82031 2.00811,-0.82031 0.59245,0 1.07265,0.1875 0.48644,0.18751 0.86062,0.5625 v -2.97655 z m -2.54444,5.46092 q 0,-0.73243 -0.33053,-1.08985 -0.33053,-0.36327 -0.83567,-0.36327 -0.44278,0 -0.74213,0.3457 -0.29935,0.3457 -0.29935,1.16015 0,0.76172 0.30559,1.11914 0.31181,0.35156 0.76707,0.35156 0.48644,0 0.81073,-0.35742 0.32429,-0.35742 0.32429,-1.16601 z"
       id="text20"
       style="font-size:12.38px;font-family:'Arial Black';-inkscape-font-specification:'Arial Black, ';stroke-width:1.03167"
       aria-label="d" />
    <path
       d="m 31.656997,17.066414 h 5.970377 l 2.304004,5.226577 2.293989,-5.226577 h 5.950343 v 8.589869 h -3.706444 v -6.550801 l -2.874997,6.550801 h -3.355833 l -2.86498,-6.550801 v 6.550801 h -3.716459 z"
       id="text19"
       style="font-size:15.6904px;font-family:'Arial Black';-inkscape-font-specification:'Arial Black, ';stroke-width:1.30754"
       aria-label="M" />
    <path
       d="m 50.950531,17.066414 h 4.077088 v 1.623051 h -4.077088 z m 0,2.367194 h 4.077088 v 6.222675 h -4.077088 z"
       id="text18"
       style="font-size:15.6904px;font-family:'Arial Black';-inkscape-font-specification:'Arial Black, ';stroke-width:1.30754"
       aria-label="i" />
    <path
       d="m 65.565934,23.224635 3.876739,0.257813 q -0.320557,0.708987 -1.051828,1.230473 -0.731271,0.515626 -1.873256,0.802736 -1.131967,0.287111 -2.885015,0.287111 -1.692942,0 -2.824909,-0.181641 -1.121951,-0.187501 -1.933362,-0.597659 -0.811409,-0.416017 -1.27221,-0.972659 -0.460802,-0.556642 -0.460802,-1.476567 0,-0.96094 0.560976,-1.599614 0.410713,-0.468752 1.12195,-0.837893 0.711236,-0.375001 1.462541,-0.556643 1.192073,-0.28711 3.055312,-0.28711 2.604527,0 3.966895,0.544924 1.372384,0.544923 1.923343,1.593755 l -3.836669,0.298829 q -0.180314,-0.398439 -0.66115,-0.597659 -0.470817,-0.205078 -1.27221,-0.205078 -1.01176,0 -1.642856,0.427736 -0.62108,0.421875 -0.62108,1.283207 0,0.76758 0.62108,1.166019 0.621079,0.398438 1.582751,0.398438 0.801393,0 1.342334,-0.240235 0.550957,-0.240235 0.821426,-0.738283 z"
       id="text17"
       style="font-size:15.6904px;font-family:'Arial Black';-inkscape-font-specification:'Arial Black, ';stroke-width:1.30754"
       aria-label="c" />
    <path
       d="m 71.355999,19.433608 h 3.816634 v 1.019534 q 0.550957,-0.662111 1.131967,-0.908206 0.591027,-0.251954 1.452525,-0.251954 0.901567,0 1.97343,0.328127 l -1.262194,1.699223 q -0.721254,-0.175782 -1.141986,-0.175782 -0.801392,0 -1.242158,0.386721 -0.631097,0.544923 -0.631097,2.039068 v 2.085944 h -4.097121 z"
       id="text16"
       style="font-size:15.6904px;font-family:'Arial Black';-inkscape-font-specification:'Arial Black, ';stroke-width:1.30754"
       aria-label="r" />
    <path
       d="m 80.08617,22.562523 q 0,-1.423832 1.642856,-2.343757 1.642855,-0.925784 4.437713,-0.925784 3.195554,0 4.828393,1.083988 1.312281,0.87305 1.312281,2.150397 0,1.435551 -1.632839,2.355476 -1.62282,0.914065 -4.497817,0.914065 -2.564458,0 -4.147209,-0.761721 -1.943378,-0.943362 -1.943378,-2.472664 z m 4.087104,-0.0059 q 0,0.832034 0.570993,1.230473 0.58101,0.398438 1.452524,0.398438 0.881532,0 1.442508,-0.392579 0.570992,-0.39258 0.570992,-1.259769 0,-0.808596 -0.570992,-1.201175 -0.570993,-0.39844 -1.412456,-0.39844 -0.891549,0 -1.472559,0.404299 -0.58101,0.398438 -0.58101,1.218753 z"
       id="text15"
       style="font-size:15.6904px;font-family:'Arial Black';-inkscape-font-specification:'Arial Black, ';stroke-width:1.30754"
       aria-label="o" />
    <path
       d="m 99.35467,17.066414 v 2.367194 h 2.24389 v 1.74024 h -2.24389 v 2.20899 q 0,0.398439 0.13023,0.527346 0.20034,0.199219 0.70121,0.199219 0.45079,0 1.2622,-0.152344 l 0.30052,1.646489 q -1.51263,0.19336 -2.82491,0.19336 -1.522646,0 -2.2439,-0.228516 -0.721253,-0.228517 -1.071863,-0.691409 -0.340591,-0.468751 -0.340591,-1.511723 v -2.191412 h -1.502612 v -1.74024 h 1.502612 v -1.142582 z"
       id="text14"
       style="font-size:15.6904px;font-family:'Arial Black';-inkscape-font-specification:'Arial Black, ';stroke-width:1.30754"
       aria-label="t" />
    <path
       d="m 103.04107,22.562523 q 0,-1.423832 1.64286,-2.343757 1.64285,-0.925784 4.43771,-0.925784 3.19555,0 4.82839,1.083988 1.31228,0.87305 1.31228,2.150397 0,1.435551 -1.63283,2.355476 -1.62283,0.914065 -4.49782,0.914065 -2.56446,0 -4.14721,-0.761721 -1.94338,-0.943362 -1.94338,-2.472664 z m 4.08711,-0.0059 q 0,0.832034 0.57099,1.230473 0.58101,0.398438 1.45252,0.398438 0.88153,0 1.44251,-0.392579 0.57099,-0.39258 0.57099,-1.259769 0,-0.808596 -0.57099,-1.201175 -0.57099,-0.39844 -1.41246,-0.39844 -0.89155,0 -1.47255,0.404299 -0.58101,0.398438 -0.58101,1.218753 z"
       id="text13"
       style="font-size:15.6904px;font-family:'Arial Black';-inkscape-font-specification:'Arial Black, ';stroke-width:1.30754"
       aria-label="o" />
    <path
       d="m 117.22572,19.433608 h 3.7966 v 1.013675 q 0.85148,-0.621096 1.723,-0.884769 0.87151,-0.269532 2.12369,-0.269532 1.69294,0 2.64459,0.591799 0.96167,0.585939 0.96167,1.816412 v 3.95509 h -4.09712 v -3.421886 q 0,-0.585939 -0.37064,-0.826174 -0.37065,-0.246094 -1.04181,-0.246094 -0.74129,0 -1.20209,0.328125 -0.4608,0.328127 -0.4608,1.177738 v 2.988291 h -4.07709 z"
       id="text12"
       style="font-size:15.6904px;font-family:'Arial Black';-inkscape-font-specification:'Arial Black, ';stroke-width:1.30754"
       aria-label="n" />
    <path
       d="m 134.62597,21.449239 -3.89677,-0.240235 q 0.22038,-0.597658 0.63109,-0.937503 0.42073,-0.345704 1.20209,-0.597658 0.56098,-0.181641 1.54268,-0.281251 0.98171,-0.09961 2.1237,-0.09961 1.83318,0 2.94511,0.123047 1.11194,0.117189 1.85323,0.498049 0.5209,0.263673 0.82142,0.750002 0.30053,0.48047 0.30053,0.919925 v 2.748055 q 0,0.439454 0.0901,0.691408 0.10017,0.246095 0.42073,0.632815 h -3.82665 q -0.2304,-0.240236 -0.30052,-0.363283 -0.0701,-0.128906 -0.14024,-0.398438 -0.8014,0.451173 -1.59277,0.644533 -1.08188,0.257813 -2.51437,0.257813 -1.90331,0 -2.89503,-0.515626 -0.98171,-0.515627 -0.98171,-1.271488 0,-0.708987 0.71124,-1.16602 0.71123,-0.457032 2.62456,-0.679689 2.29399,-0.269532 2.97517,-0.375001 0.68118,-0.111329 1.44251,-0.287111 0,-0.439454 -0.31054,-0.615236 -0.31054,-0.175781 -1.0919,-0.175781 -1.00174,0 -1.50261,0.1875 -0.39068,0.146484 -0.6311,0.550783 z m 3.53615,1.25391 q -0.84147,0.175782 -1.75305,0.310548 -1.24216,0.19336 -1.57273,0.38086 -0.3406,0.19336 -0.3406,0.439455 0,0.28125 0.33058,0.462892 0.34059,0.175781 0.99172,0.175781 0.68119,0 1.2622,-0.193359 0.59102,-0.19336 0.83144,-0.468752 0.25044,-0.28125 0.25044,-0.726564 z"
       id="text11"
       style="font-size:15.6904px;font-family:'Arial Black';-inkscape-font-specification:'Arial Black, ';stroke-width:1.30754"
       aria-label="a" />
    <path
       d="m 144.73353,17.066414 h 4.08711 v 8.589869 h -4.08711 z"
       id="text10"
       style="font-size:15.6904px;font-family:'Arial Black';-inkscape-font-specification:'Arial Black, ';stroke-width:1.30754"
       aria-label="l" />
    <path
       d="m 156.21381,17.139837 h 17.76226 v 1.873025 h -11.1197 v 1.394297 h 10.31498 v 1.789247 h -10.31498 v 1.729406 h 11.44158 v 1.986723 h -18.08414 z"
       id="text9"
       style="font-size:19.9882px;font-family:'Arial Black';-inkscape-font-specification:'Arial Black, ';fill:#2b1100;stroke-width:1.43724"
       aria-label="E" />
    <path
       d="m 176.12685,19.557416 h 7.06686 l 2.47267,1.771295 2.86771,-1.771295 h 6.5694 l -5.29649,3.027956 5.6769,3.327163 h -6.94981 l -2.86771,-2.046564 -3.3798,2.046564 h -6.45235 l 5.64763,-3.327163 z"
       id="text8"
       style="font-size:19.9882px;font-family:'Arial Black';-inkscape-font-specification:'Arial Black, ';fill:#2b1100;stroke-width:1.43724"
       aria-label="x" />
    <path
       d="m 213.81677,28.330113 h -6.01341 v -3.033941 q -0.87787,0.376998 -2.0191,0.568491 -1.12661,0.19149 -2.51657,0.19149 -2.83845,0 -4.69661,-0.83179 -1.85816,-0.837775 -1.85816,-2.393642 0,-1.041235 0.84861,-1.83712 0.84861,-0.795886 2.35562,-1.184853 1.50701,-0.394951 3.32128,-0.394951 1.56554,0 2.88234,0.281253 0.96566,0.209443 2.12152,0.80187 v -0.939504 h 5.57448 z m -5.96952,-5.577186 q 0,-0.819822 -0.76082,-1.184852 -0.74619,-0.36503 -1.90205,-0.36503 -1.06808,0 -1.79964,0.36503 -0.71693,0.359046 -0.71693,1.208789 0,0.759981 0.7023,1.113043 0.71693,0.347078 1.74111,0.347078 1.19976,0 1.96058,-0.36503 0.77545,-0.36503 0.77545,-1.119028 z"
       id="text7"
       style="font-size:19.9882px;font-family:'Arial Black';-inkscape-font-specification:'Arial Black, ';fill:#2b1100;stroke-width:1.43724"
       aria-label="q" />
    <path
       d="m 233.8176,25.912535 h -5.55985 v -1.029266 q -1.24365,0.634315 -2.51656,0.9036 -1.25828,0.269284 -3.10181,0.269284 -2.45804,0 -3.86263,-0.59841 -1.38997,-0.604395 -1.38997,-1.855073 v -4.045254 h 5.98416 v 3.494717 q 0,0.598411 0.54135,0.849742 0.54135,0.251333 1.52164,0.251333 1.06808,0 1.74111,-0.33511 0.68767,-0.33511 0.68767,-1.202805 v -3.057877 h 5.95489 z"
       id="text6"
       style="font-size:19.9882px;font-family:'Arial Black';-inkscape-font-specification:'Arial Black, ';fill:#2b1100;stroke-width:1.43724"
       aria-label="u" />
    <path
       d="m 237.65097,17.139837 h 5.95489 v 1.657597 h -5.95489 z m 0,2.417579 h 5.95489 v 6.355119 h -5.95489 z"
       id="text5"
       style="font-size:19.9882px;font-family:'Arial Black';-inkscape-font-specification:'Arial Black, ';fill:#2b1100;stroke-width:1.43724"
       aria-label="i" />
    <path
       d="m 246.35652,26.155306 7.34605,-0.323456 q 0.45458,0.612864 1.27283,0.876736 0.81825,0.263872 2.182,0.263872 1.49103,0 2.30927,-0.29792 0.63642,-0.221312 0.63642,-0.55328 0,-0.374527 -0.83643,-0.578815 -0.60005,-0.144705 -3.18208,-0.357505 -3.85486,-0.314944 -5.36407,-0.578815 -1.49103,-0.272384 -2.52748,-0.910784 -1.01826,-0.6384 -1.01826,-1.455551 0,-0.89376 1.10918,-1.540672 1.10918,-0.646912 3.05479,-0.961856 1.94562,-0.323456 5.21861,-0.323456 3.45482,0 5.09132,0.246848 1.65468,0.246849 2.74568,0.76608 1.10918,0.519232 1.83651,1.40448 l -7.01875,0.323456 q -0.27275,-0.434112 -0.90917,-0.6384 -0.87279,-0.272384 -2.10926,-0.272384 -1.25465,0 -1.83651,0.2128 -0.56368,0.204288 -0.56368,0.502207 0,0.331969 0.72733,0.502208 0.72733,0.170241 3.16389,0.306433 3.69121,0.195775 5.49136,0.544767 1.80014,0.348993 2.74567,0.995904 0.96372,0.646912 0.96372,1.421504 0,0.783103 -1.01827,1.523646 -1.00008,0.740545 -3.18207,1.183169 -2.16382,0.434111 -5.90957,0.434111 -5.29134,0 -7.54607,-0.706495 -2.23654,-0.706497 -2.87296,-2.008832 z"
       id="text4"
       style="font-size:26.5758px;font-family:'Arial Black';-inkscape-font-specification:'Arial Black, ';fill:#2b1100;stroke-width:1.91092"
       aria-label="s" />
    <path
       style="font-size:8px;font-family:'Arial Black';-inkscape-font-specification:'Arial Black, ';fill:#ececec;fill-opacity:1"
       d="m 269.08234,312.91468 h 5.3789 v 1.41407 h -1.80469 v 4.3125 h -1.76953 v -4.3125 h -1.80468 z m 6.20312,0 h 2.62891 q 0.77734,0 1.2539,0.21094 0.48047,0.21094 0.79297,0.60547 0.3125,0.39453 0.45313,0.91797 0.14062,0.52344 0.14062,1.10937 0,0.91797 -0.21094,1.42578 -0.20703,0.50391 -0.57812,0.84766 -0.37109,0.33984 -0.79688,0.45313 -0.58203,0.15625 -1.05468,0.15625 h -2.62891 z m 1.76953,1.29688 v 3.1289 h 0.4336 q 0.55468,0 0.78906,-0.12109 0.23437,-0.125 0.36719,-0.42969 0.13281,-0.30859 0.13281,-0.99609 0,-0.91016 -0.29688,-1.24609 -0.29687,-0.33594 -0.98437,-0.33594 z m 7.60938,3.48437 h -2.01563 l -0.27734,0.94532 h -1.8086 l 2.15235,-5.72657 h 1.92969 l 2.15234,5.72657 h -1.85156 z m -0.3711,-1.23828 -0.63281,-2.05859 -0.62891,2.05859 z m 2.11719,-3.54297 h 5.37891 v 1.41407 h -1.80469 v 4.3125 h -1.76953 v -4.3125 h -1.80469 z"
       id="text2"
       aria-label="TDAT" />
    <path
       style="font-size:8px;font-family:'Arial Black';-inkscape-font-specification:'Arial Black, ';fill:#483737"
       d="m 42.411888,346.87256 v -1.76953 h 4.316406 v -2.76172 h 1.410157 v 4.53125 z m 4.78125,-8.85938 v 2.01563 l 0.945313,0.27734 v 1.8086 l -5.726563,-2.15235 v -1.92969 l 5.726563,-2.15234 v 1.85156 z m -1.238281,0.3711 -2.058594,0.63281 2.058594,0.62891 z m -3.542969,-3.07422 v -3.3125 q 0,-0.82813 0.410156,-1.26953 0.410157,-0.44532 1.015625,-0.44532 0.507813,0 0.871094,0.31641 0.242188,0.21094 0.382813,0.61719 0.148437,-0.61719 0.511718,-0.90625 0.359375,-0.29297 0.90625,-0.29297 0.445313,0 0.800782,0.20703 0.355468,0.20703 0.5625,0.56641 0.128906,0.22265 0.1875,0.67187 0.07813,0.59766 0.07813,0.79297 v 3.05469 z m 2.246094,-1.78516 v -0.76953 q 0,-0.41406 -0.140625,-0.57422 -0.144531,-0.16406 -0.414063,-0.16406 -0.25,0 -0.390625,0.16406 -0.140625,0.16016 -0.140625,0.5625 v 0.78125 z m 2.25,0 v -0.90234 q 0,-0.45703 -0.160156,-0.64453 -0.164063,-0.1875 -0.4375,-0.1875 -0.253907,0 -0.40625,0.1875 -0.15625,0.18359 -0.15625,0.64843 v 0.89844 z m -4.496094,-4.42969 v -4.74218 h 1.222656 v 2.96875 h 0.910157 v -2.75391 h 1.167968 v 2.75391 h 1.128907 v -3.05469 h 1.296875 v 4.82812 z m 0,-5.78125 v -1.76953 h 4.316406 v -2.76172 h 1.410157 v 4.53125 z m 3.832031,-5.02734 -0.105468,-1.68359 q 0.410156,-0.0547 0.625,-0.22266 0.347656,-0.27344 0.347656,-0.78125 0,-0.37891 -0.175781,-0.58203 -0.179688,-0.20703 -0.414063,-0.20703 -0.222656,0 -0.398437,0.19531 -0.175782,0.19531 -0.332032,0.90625 -0.261718,1.16406 -0.695312,1.66016 -0.433594,0.5 -1.105469,0.5 -0.441406,0 -0.832031,-0.25391 -0.394531,-0.25781 -0.617188,-0.76953 -0.226562,-0.51563 -0.226562,-1.41016 0,-1.09765 0.410156,-1.67187 0.40625,-0.57813 1.296875,-0.6875 l 0.09766,1.66797 q -0.386718,0.0664 -0.5625,0.28125 -0.175781,0.21093 -0.175781,0.58593 0,0.3086 0.132813,0.46485 0.128906,0.15625 0.316406,0.15625 0.136719,0 0.246094,-0.12891 0.113281,-0.125 0.210937,-0.59375 0.25,-1.16015 0.507813,-1.66015 0.253906,-0.50391 0.632812,-0.73047 0.378906,-0.23047 0.847656,-0.23047 0.550782,0 1.015625,0.30469 0.464844,0.30468 0.707032,0.85156 0.238281,0.54687 0.238281,1.3789 0,1.46094 -0.5625,2.02344 -0.5625,0.5625 -1.429688,0.63672 z"
       id="text30"
       aria-label="LABELS" />
    <path
       style="font-size:8px;font-family:'Arial Black';-inkscape-font-specification:'Arial Black, ';fill:#483737"
       d="m 91.95089,312.75235 h 1.652343 l 2.156247,3.16797 v -3.16797 h 1.66797 v 5.72656 h -1.66797 l -2.144528,-3.14453 v 3.14453 H 91.95089 Z m 6.42969,2.86719 q 0,-1.40235 0.78125,-2.1836 0.78125,-0.78125 2.17578,-0.78125 1.42969,0 2.20312,0.76953 0.77344,0.76563 0.77344,2.14844 0,1.00391 -0.33984,1.64844 -0.33594,0.64062 -0.97657,1 -0.63671,0.35547 -1.58984,0.35547 -0.96875,0 -1.60547,-0.3086 -0.63281,-0.30859 -1.02734,-0.97656 -0.39453,-0.66797 -0.39453,-1.67187 z m 1.76953,0.008 q 0,0.86719 0.32031,1.24609 0.32422,0.37891 0.87891,0.37891 0.57031,0 0.88281,-0.37109 0.3125,-0.3711 0.3125,-1.33204 0,-0.80859 -0.32813,-1.17968 -0.32421,-0.375 -0.88281,-0.375 -0.53515,0 -0.85937,0.3789 -0.32422,0.37891 -0.32422,1.25391 z m 5.1289,-2.875 h 1.65235 l 2.15625,3.16797 v -3.16797 h 1.66797 v 5.72656 h -1.66797 l -2.14453,-3.14453 v 3.14453 h -1.66407 z m 6.64844,0 h 4.74219 v 1.22266 h -2.96875 v 0.91015 h 2.75391 v 1.16797 h -2.75391 v 1.12891 h 3.05469 v 1.29687 h -4.82813 z"
       id="text30-5"
       aria-label="NONE" />
    <path
       style="font-size:8px;font-family:'Arial Black';-inkscape-font-specification:'Arial Black, ';fill:#483737"
       d="m 91.950897,330.58472 1.683594,-0.10547 q 0.05469,0.41015 0.222656,0.625 0.273433,0.34765 0.781253,0.34765 0.3789,0 0.58203,-0.17578 0.20703,-0.17968 0.20703,-0.41406 0,-0.22266 -0.19531,-0.39844 -0.19532,-0.17578 -0.90625,-0.33203 -1.164065,-0.26172 -1.660159,-0.69531 -0.5,-0.43359 -0.5,-1.10547 0,-0.44141 0.253906,-0.83203 0.257813,-0.39453 0.769531,-0.61719 0.515625,-0.22656 1.410152,-0.22656 1.09766,0 1.67188,0.41016 0.57812,0.40625 0.6875,1.29687 l -1.66797,0.0977 q -0.0664,-0.38672 -0.28125,-0.5625 -0.21094,-0.17578 -0.58594,-0.17578 -0.30859,0 -0.46484,0.13281 -0.15625,0.1289 -0.15625,0.3164 0,0.13672 0.128906,0.2461 0.125004,0.11328 0.593754,0.21094 1.16015,0.25 1.66015,0.50781 0.50391,0.2539 0.73047,0.63281 0.23047,0.37891 0.23047,0.84766 0,0.55078 -0.30469,1.01562 -0.30469,0.46485 -0.85156,0.70703 -0.54688,0.23828 -1.37891,0.23828 -1.460934,0 -2.023434,-0.5625 -0.5625,-0.5625 -0.636719,-1.42968 z m 9.898433,-0.44532 1.55079,0.46875 q -0.15625,0.65235 -0.49219,1.08985 -0.33594,0.4375 -0.83594,0.66015 -0.49609,0.22266 -1.26562,0.22266 -0.9336,0 -1.52735,-0.26953 -0.58984,-0.27344 -1.01953,-0.95703 -0.42969,-0.6836 -0.42969,-1.75 0,-1.42188 0.75391,-2.1836 0.75781,-0.76562 2.14062,-0.76562 1.08204,0 1.69922,0.4375 0.6211,0.4375 0.92188,1.34375 l -1.5625,0.34766 q -0.082,-0.26172 -0.17188,-0.38282 -0.14843,-0.20312 -0.36328,-0.3125 -0.21484,-0.10937 -0.48047,-0.10937 -0.60156,0 -0.92187,0.48437 -0.24219,0.35938 -0.24219,1.12891 0,0.95312 0.28906,1.30859 0.28907,0.35157 0.8125,0.35157 0.50782,0 0.76563,-0.28516 0.26172,-0.28516 0.3789,-0.82813 z m 5.9336,1.39454 h -2.01563 l -0.27734,0.94531 h -1.80859 l 2.15234,-5.72656 h 1.92969 l 2.15234,5.72656 h -1.85156 z m -0.3711,-1.23829 -0.63281,-2.05859 -0.6289,2.05859 z m 3.07032,-3.54296 h 1.76953 v 4.3164 h 2.76172 v 1.41016 h -4.53125 z m 5.33203,0 h 4.74219 v 1.22265 h -2.96875 v 0.91016 h 2.7539 v 1.16797 h -2.7539 v 1.1289 h 3.05468 v 1.29688 h -4.82812 z"
       id="text30-5-4"
       aria-label="SCALE" />
    <path
       style="font-size:8px;font-family:'Arial Black';-inkscape-font-specification:'Arial Black, ';fill:#483737"
       d="m 95.97042,344.13971 1.55078,0.46875 q -0.15625,0.65234 -0.49219,1.08984 -0.33593,0.4375 -0.83593,0.66016 -0.4961,0.22266 -1.26563,0.22266 -0.933592,0 -1.527342,-0.26954 -0.589843,-0.27343 -1.019531,-0.95703 -0.429687,-0.68359 -0.429687,-1.75 0,-1.42187 0.753906,-2.18359 0.757812,-0.76563 2.140624,-0.76563 1.08203,0 1.69922,0.4375 0.62109,0.4375 0.92187,1.34375 l -1.5625,0.34766 q -0.082,-0.26172 -0.17187,-0.38281 -0.14844,-0.20313 -0.36328,-0.3125 -0.21485,-0.10938 -0.48047,-0.10938 -0.60156,0 -0.921875,0.48438 -0.242188,0.35937 -0.242188,1.1289 0,0.95313 0.289063,1.3086 0.28906,0.35156 0.8125,0.35156 0.50781,0 0.76562,-0.28516 0.26172,-0.28515 0.37891,-0.82812 z m 2.1875,-0.51953 q 0,-1.40235 0.78125,-2.1836 0.78125,-0.78125 2.17578,-0.78125 1.42969,0 2.20313,0.76954 0.77343,0.76562 0.77343,2.14843 0,1.00391 -0.33984,1.64844 -0.33594,0.64063 -0.97656,1 -0.63672,0.35547 -1.58985,0.35547 -0.96875,0 -1.60546,-0.30859 -0.63282,-0.3086 -1.02735,-0.97657 -0.39453,-0.66797 -0.39453,-1.67187 z m 1.76953,0.008 q 0,0.86719 0.32031,1.24609 0.32422,0.37891 0.87891,0.37891 0.57031,0 0.88281,-0.37109 0.3125,-0.3711 0.3125,-1.33203 0,-0.8086 -0.32812,-1.17969 -0.32422,-0.375 -0.88281,-0.375 -0.53516,0 -0.85938,0.3789 -0.32422,0.37891 -0.32422,1.25391 z m 4.89453,-0.008 q 0,-1.40235 0.78125,-2.1836 0.78125,-0.78125 2.17578,-0.78125 1.42969,0 2.20313,0.76954 0.77344,0.76562 0.77344,2.14843 0,1.00391 -0.33985,1.64844 -0.33593,0.64063 -0.97656,1 -0.63672,0.35547 -1.58984,0.35547 -0.96875,0 -1.60547,-0.30859 -0.63281,-0.3086 -1.02735,-0.97657 -0.39453,-0.66797 -0.39453,-1.67187 z m 1.76953,0.008 q 0,0.86719 0.32032,1.24609 0.32422,0.37891 0.8789,0.37891 0.57032,0 0.88282,-0.37109 0.3125,-0.3711 0.3125,-1.33203 0,-0.8086 -0.32813,-1.17969 -0.32422,-0.375 -0.88281,-0.375 -0.53516,0 -0.85938,0.3789 -0.32422,0.37891 -0.32422,1.25391 z m 5.14063,2.85156 v -5.72656 h 2.94922 q 0.82031,0 1.2539,0.14063 0.4336,0.14062 0.69922,0.52343 0.26563,0.37891 0.26563,0.92578 0,0.47657 -0.20313,0.82422 -0.20312,0.34375 -0.55859,0.5586 -0.22656,0.13672 -0.62109,0.22656 0.3164,0.10547 0.46093,0.21094 0.0977,0.0703 0.28125,0.30078 0.1875,0.23047 0.25,0.35547 l 0.85547,1.66015 h -2 l -0.94531,-1.75 q -0.17969,-0.33984 -0.32031,-0.4414 -0.19141,-0.13282 -0.4336,-0.13282 h -0.15625 v 2.32422 z m 1.77734,-3.40625 h 0.7461 q 0.12109,0 0.46875,-0.0781 0.17578,-0.0352 0.28515,-0.17969 0.11328,-0.14453 0.11328,-0.33203 0,-0.27734 -0.17578,-0.42578 -0.17578,-0.14844 -0.66015,-0.14844 h -0.77735 z m 4.44532,-2.32031 h 2.6289 q 0.77735,0 1.25391,0.21094 0.48047,0.21094 0.79297,0.60547 0.3125,0.39453 0.45312,0.91797 0.14063,0.52343 0.14063,1.10937 0,0.91797 -0.21094,1.42578 -0.20703,0.50391 -0.57813,0.84766 -0.37109,0.33984 -0.79687,0.45312 -0.58203,0.15625 -1.05469,0.15625 h -2.6289 z m 1.76953,1.29688 v 3.1289 h 0.43359 q 0.55469,0 0.78906,-0.12109 0.23438,-0.125 0.36719,-0.42969 0.13281,-0.30859 0.13281,-0.99609 0,-0.91016 -0.29687,-1.2461 -0.29688,-0.33593 -0.98438,-0.33593 z"
       id="text30-5-4-4"
       aria-label="COORD" />
  </g>
  <g
     id="ea3a177d-3d4f-428c-a0c9-a5628575e869"
     data-name="FND TXT"
     style="display:inline">
    <g
       id="g87"
       transform="translate(0.44286115,48.307491)" />
    <g
       id="g133"
       transform="translate(0.44286115,48.307491)" />
    <g
       id="g163" />
    <g
       id="g171" />
    <g
       id="g179"
       transform="translate(94.973984,-1.1487889)">
      <text
         xml:space="preserve"
         style="font-style:normal;font-variant:normal;font-weight:normal;font-stretch:normal;font-size:8px;font-family:'Arial Black';-inkscape-font-specification:'Arial Black, ';fill:#483737"
         x="-35.409161"
         y="243.39384"
         id="text3"><tspan
           sodipodi:role="line"
           id="tspan1"
           x="-35.409161"
           y="243.39384" /></text>
      <path
         d="m -92.574314,296.63298 h 1.750645 l 1.218804,3.89648 1.200337,-3.89648 h 1.698938 l -2.009179,5.41444 h -1.813432 z m 7.220489,-0.0923 h 0.768215 l -1.359151,5.59541 h -0.760829 z m 1.089536,2.80325 q 0,-1.32591 0.738669,-2.06458 0.738669,-0.73867 2.057193,-0.73867 1.351764,0 2.083047,0.72759 0.731282,0.72389 0.731282,2.03134 0,0.94919 -0.321321,1.55859 -0.317628,0.60571 -0.923336,0.94549 -0.602016,0.3361 -1.503192,0.3361 -0.915949,0 -1.517964,-0.29178 -0.598322,-0.29177 -0.97135,-0.92333 -0.373028,-0.63156 -0.373028,-1.58075 z m 1.673085,0.007 q 0,0.81993 0.302855,1.17818 0.306547,0.35825 0.831002,0.35825 0.539228,0 0.834696,-0.35086 0.295468,-0.35087 0.295468,-1.25943 0,-0.76453 -0.310241,-1.11539 -0.306548,-0.35457 -0.834696,-0.35457 -0.505988,0 -0.812536,0.35826 -0.306548,0.35825 -0.306548,1.18556 z m 8.442986,0.48383 1.466258,0.4432 q -0.147734,0.61679 -0.465361,1.03045 -0.317628,0.41365 -0.790376,0.62417 -0.469055,0.21052 -1.196644,0.21052 -0.882709,0 -1.444098,-0.25484 -0.557695,-0.25853 -0.963962,-0.90487 -0.406268,-0.64633 -0.406268,-1.65462 0,-1.34437 0.712815,-2.06458 0.716509,-0.72389 2.023953,-0.72389 1.023057,0 1.606605,0.41365 0.587242,0.41366 0.871629,1.27051 l -1.477338,0.32871 q -0.07756,-0.24745 -0.162507,-0.36195 -0.140347,-0.19205 -0.343481,-0.29547 -0.203134,-0.10341 -0.454281,-0.10341 -0.568775,0 -0.87163,0.45798 -0.228987,0.33978 -0.228987,1.06737 0,0.90118 0.273308,1.23727 0.273307,0.3324 0.768215,0.3324 0.480135,0 0.723896,-0.26961 0.247454,-0.26961 0.358254,-0.78299 z m 1.89838,-3.20213 h 5.085735 v 1.33699 h -1.706325 v 4.07745 h -1.673085 v -4.07745 h -1.706325 z"
         id="text29"
         style="font-size:7.56397px;font-family:'Arial Black';-inkscape-font-specification:'Arial Black, ';fill:#483737;stroke-width:0.945496"
         transform="scale(0.94549611,1.0576458)"
         aria-label="V/OCT" />
      <path
         style="font-size:7.31331px;font-family:'Arial Black';-inkscape-font-specification:'Arial Black, ';fill:#ececec;stroke-width:0.914164"
         d="m 137.76411,313.733 h 1.9456 l 0.75082,3.48437 0.74756,-3.48437 h 1.93907 v 5.72657 h -1.20784 v -4.3672 l -0.93689,4.3672 h -1.09359 l -0.93362,-4.3672 v 4.3672 h -1.21111 z m 5.85313,0 h 1.54735 l 1.07726,4.1211 1.06094,-4.1211 h 1.50164 l -1.77585,5.72657 h -1.60284 z m 6.38198,-0.0977 h 0.679 l -1.20131,5.91796 h -0.67248 z m 0.96301,2.96484 q 0,-1.40235 0.65288,-2.1836 0.65289,-0.78124 1.81829,-0.78124 1.19479,0 1.84115,0.76953 0.64635,0.76562 0.64635,2.14843 0,1.0039 -0.284,1.64844 -0.28074,0.64063 -0.81611,1 -0.5321,0.35546 -1.32863,0.35546 -0.80958,0 -1.34168,-0.30858 -0.52884,-0.3086 -0.85855,-0.97657 -0.3297,-0.66796 -0.3297,-1.67187 z m 1.47879,0.008 q 0,0.86719 0.26768,1.2461 0.27095,0.37891 0.7345,0.37891 0.4766,0 0.73776,-0.3711 0.26115,-0.37109 0.26115,-1.33203 0,-0.80859 -0.27421,-1.17968 -0.27095,-0.37501 -0.73776,-0.37501 -0.44723,0 -0.71818,0.37891 -0.27094,0.37891 -0.27094,1.2539 z m 7.4625,0.51173 1.29598,0.46874 q -0.13058,0.65235 -0.41132,1.08985 -0.28074,0.43749 -0.69859,0.66016 -0.41459,0.22265 -1.05768,0.22265 -0.7802,0 -1.27639,-0.26953 -0.49293,-0.27344 -0.85202,-0.95704 -0.35909,-0.68358 -0.35909,-1.74999 0,-1.42188 0.63004,-2.1836 0.6333,-0.76562 1.78891,-0.76562 0.90425,0 1.42003,0.43749 0.51904,0.43751 0.7704,1.34376 l -1.30577,0.34766 q -0.0686,-0.26173 -0.14364,-0.38282 -0.12404,-0.20313 -0.30359,-0.31249 -0.17954,-0.10939 -0.40152,-0.10939 -0.50273,0 -0.77041,0.48437 -0.2024,0.35938 -0.2024,1.1289 0,0.95314 0.24157,1.3086 0.24157,0.35157 0.67901,0.35157 0.42437,0 0.63983,-0.28516 0.21871,-0.28516 0.31664,-0.82812 z m 1.67792,-3.38673 h 4.49513 v 1.41407 h -1.50817 v 4.3125 h -1.4788 v -4.3125 h -1.50816 z"
         id="text29-4"
         aria-label="MV/OCT" />
    </g>
  </g>
  <g
     id="fa53a534-7e67-46f9-bb82-6d4962d493ba"
     data-name="components"
     inkscape:groupmode="layer"
     style="display:none">
    <circle
       id="eeb44770-dee8-418f-8dcd-f36b7f0f00a1"
       data-name="Freq#SmallLight"
       cx="91.796944"
       cy="48.5079"
       r="3"
       style="fill:#ff00ff" />
    <circle
       id="a2b7d26d-cf28-4002-b799-20b6cfdb0d84"
       data-name="Soft#LEDButton"
       cx="83.509338"
       cy="286"
       r="5"
       style="fill:#ff0000" />
    <circle
       id="e0311624-14c1-4e8e-8557-36d615817f1d"
       data-name="Lfm#LEDButton"
       cx="51.509338"
       cy="286"
       r="5"
       style="fill:#ff0000" />
    <circle
       id="afe7ff05-809e-4034-9f5e-9a74f4549133"
       data-name="Sync#PJ301MPort"
       cx="83.509338"
       cy="334"
       r="5"
       style="fill:#00ff00" />
    <circle
       id="a315d13b-dc53-4eaf-bde6-30eac39fcbdf"
       data-name="Pitch#PJ301MPort"
       cx="51.509338"
       cy="334"
       r="5"
       style="fill:#00ff00" />
    <circle
       id="b3a627e6-2c38-4022-9965-f762a4bf17a9"
       data-name="Sqr#PJ301MPort"
       cx="115.50934"
       cy="334"
       r="5"
       style="fill:#0000ff" />
    <circle
       id="ac17fe1a-f789-4784-aa3a-781fc99ae73a"
       data-name="Freq#RoundHugeBlackKnob"
       cx="67.633141"
       cy="88.016998"
       r="5"
       style="fill:#ff0000" />
    <circle
       id="fe499126-b4fb-4162-8957-38fadff3f33e"
       data-name="Fm#PJ301MPort"
       cx="19.50939"
       cy="334"
       r="5"
       style="fill:#00ff00" />
    <circle
       id="acc0b878-9356-4555-9f39-64d69ce4b4b8"
       data-name="FmCv#Trimpot"
       cx="19.50939"
       cy="286"
       r="5"
       style="fill:#ff0000" />
    <circle
       id="acc0b878-9356-4555-9f39-64d69ce4b4b8-8"
       data-name="FmCv#Trimpot"
       cx="19.481524"
       cy="192.00938"
       r="5"
       style="display:inline;fill:#ff0000" />
    <circle
       id="acc0b878-9356-4555-9f39-64d69ce4b4b8-8-1"
       data-name="FmCv#Trimpot"
       cx="51.274563"
       cy="191.99997"
       r="5"
       style="display:inline;fill:#ff0000" />
    <circle
       id="acc0b878-9356-4555-9f39-64d69ce4b4b8-8-15"
       data-name="FmCv#Trimpot"
       cx="115.43307"
       cy="192.26537"
       r="5"
       style="display:inline;fill:#ff0000" />
    <circle
       id="acc0b878-9356-4555-9f39-64d69ce4b4b8-8-0"
       data-name="FmCv#Trimpot"
       cx="83.478394"
       cy="191.89803"
       r="5"
       style="display:inline;fill:#ff0000"
       inkscape:transform-center-x="27.838619"
       inkscape:transform-center-y="-1.2653918" />
    <circle
       id="acc0b878-9356-4555-9f39-64d69ce4b4b8-8-4"
       data-name="FmCv#Trimpot"
       cx="19.547802"
       cy="144.40167"
       r="5"
       style="display:inline;fill:#ff0000" />
    <circle
       id="acc0b878-9356-4555-9f39-64d69ce4b4b8-8-1-5"
       data-name="FmCv#Trimpot"
       cx="51.340839"
       cy="144.39226"
       r="5"
       style="display:inline;fill:#ff0000" />
    <circle
       id="acc0b878-9356-4555-9f39-64d69ce4b4b8-8-15-8"
       data-name="FmCv#Trimpot"
       cx="115.49933"
       cy="144.65765"
       r="5"
       style="display:inline;fill:#ff0000" />
    <circle
       id="acc0b878-9356-4555-9f39-64d69ce4b4b8-8-0-8"
       data-name="FmCv#Trimpot"
       cx="83.54467"
       cy="144.29031"
       r="5"
       style="display:inline;fill:#ff0000"
       inkscape:transform-center-x="27.838619"
       inkscape:transform-center-y="-1.2653918" />
  </g>
  <path
     d="m -356.66891,134.04113 h 1.72125 v 2.10501 l 1.80484,-2.10501 h 2.28739 l -2.02902,2.10121 2.12022,3.46909 h -2.12022 l -1.17409,-2.29119 -0.88912,0.93092 v 1.36027 h -1.72125 z m 6.47083,0 h 4.61279 v 1.18929 h -2.88775 v 0.88532 h 2.67876 v 1.1361 h -2.67876 v 1.09811 h 2.97134 v 1.26148 h -4.69638 z m 5.06115,0 h 1.91123 l 1.1247,1.88083 1.1247,-1.88083 h 1.89983 l -2.16581,3.23731 v 2.33299 h -1.72505 v -2.33299 z m 6.59621,0 h 2.2646 l 0.87392,3.3893 0.87013,-3.3893 h 2.257 v 5.5703 h -1.40588 v -4.24802 l -1.0905,4.24802 h -1.27289 l -1.0867,-4.24802 v 4.24802 h -1.40968 z m 10.79105,4.65079 h -1.96063 l -0.26978,0.91951 h -1.75924 l 2.09361,-5.5703 h 1.87704 l 2.09361,5.5703 h -1.80104 z m -0.36097,-1.2045 -0.61555,-2.00242 -0.61174,2.00242 z m 2.97893,-3.44629 h 2.86115 q 0.93472,0 1.39828,0.44456 0.46735,0.44456 0.46735,1.26529 0,0.84352 -0.50915,1.31848 -0.50536,0.47496 -1.54646,0.47496 h -0.94232 v 2.06701 h -1.72885 z m 1.72885,2.37479 h 0.42176 q 0.49776,0 0.69914,-0.17099 0.20138,-0.17478 0.20138,-0.44456 0,-0.26217 -0.17478,-0.44456 -0.17479,-0.18238 -0.65734,-0.18238 h -0.49016 z"
     id="text31"
     style="font-size:7.78171px;font-family:'Arial Black';-inkscape-font-specification:'Arial Black, ';fill:#483737;stroke-width:0.972714"
     transform="matrix(0,-0.97271353,1.0280519,0,0,0)"
     aria-label="KEYMAP" />
  <path
     d="m 187.18544,312.22076 h 4.74219 v 1.22266 h -2.96875 v 0.91016 h 2.7539 v 1.16797 h -2.7539 v 1.1289 h 3.05469 v 1.29688 h -4.82813 z m 5.38672,0 h 1.94922 l 1.01562,1.76172 0.98438,-1.76172 h 1.92969 l -1.78125,2.77344 1.94921,2.95313 h -1.98828 l -1.1289,-1.83985 -1.13282,1.83985 h -1.97656 l 1.97656,-2.98438 z m 11.70312,4.89063 q 0.33204,0.23047 0.4336,0.28906 0.15234,0.0859 0.41015,0.19922 l -0.49218,0.99219 q -0.3711,-0.17969 -0.73438,-0.42969 -0.36328,-0.24609 -0.50781,-0.37109 -0.58594,0.2539 -1.46875,0.2539 -1.30469,0 -2.05859,-0.67968 -0.89063,-0.80469 -0.89063,-2.26172 0,-1.41407 0.77734,-2.19532 0.78125,-0.78515 2.17969,-0.78515 1.42578,0 2.19922,0.76562 0.77734,0.76563 0.77734,2.19141 0,1.26953 -0.625,2.03125 z m -1.35546,-0.90625 q 0.21093,-0.37891 0.21093,-1.13281 0,-0.86719 -0.32422,-1.23828 -0.32031,-0.3711 -0.88671,-0.3711 -0.52735,0 -0.85547,0.37891 -0.32813,0.3789 -0.32813,1.18359 0,0.9375 0.32031,1.31641 0.32032,0.3789 0.87891,0.3789 0.17969,0 0.33984,-0.0351 -0.22265,-0.21485 -0.70312,-0.40625 l 0.27734,-0.63672 q 0.23438,0.043 0.36328,0.10547 0.13282,0.0625 0.51172,0.32812 0.0898,0.0625 0.19532,0.12891 z m 6.66015,-3.98438 h 1.76563 v 3.41407 q 0,0.50781 -0.16016,0.96093 -0.15625,0.44922 -0.49609,0.78907 -0.33594,0.33593 -0.70703,0.47265 -0.51563,0.19141 -1.23829,0.19141 -0.41796,0 -0.91406,-0.0586 -0.49219,-0.0586 -0.82422,-0.23047 -0.33203,-0.17578 -0.60937,-0.4961 -0.27344,-0.32031 -0.375,-0.66015 -0.16406,-0.54688 -0.16406,-0.96875 v -3.41407 h 1.76562 v 3.4961 q 0,0.46875 0.25781,0.73437 0.26172,0.26172 0.72266,0.26172 0.45703,0 0.71484,-0.25781 0.26172,-0.26172 0.26172,-0.73828 z m 3.00781,0 h 1.77344 v 5.72657 h -1.77344 z m 2.73438,3.83204 1.68359,-0.10547 q 0.0547,0.41015 0.22266,0.625 0.27344,0.34765 0.78125,0.34765 0.37891,0 0.58203,-0.17578 0.20703,-0.17969 0.20703,-0.41406 0,-0.22266 -0.19531,-0.39844 -0.19531,-0.17578 -0.90625,-0.33203 -1.16406,-0.26172 -1.66016,-0.69531 -0.5,-0.4336 -0.5,-1.10547 0,-0.44141 0.25391,-0.83203 0.25781,-0.39453 0.76953,-0.61719 0.51563,-0.22656 1.41016,-0.22656 1.09765,0 1.67187,0.41015 0.57813,0.40625 0.6875,1.29688 l -1.66797,0.0977 q -0.0664,-0.38672 -0.28125,-0.5625 -0.21093,-0.17579 -0.58593,-0.17579 -0.3086,0 -0.46485,0.13282 -0.15625,0.1289 -0.15625,0.3164 0,0.13672 0.12891,0.2461 0.125,0.11328 0.59375,0.21093 1.16015,0.25 1.66015,0.50782 0.50391,0.2539 0.73047,0.63281 0.23047,0.37891 0.23047,0.84766 0,0.55078 -0.30469,1.01562 -0.30468,0.46484 -0.85156,0.70703 -0.54687,0.23828 -1.3789,0.23828 -1.46094,0 -2.02344,-0.5625 -0.5625,-0.5625 -0.63672,-1.42968 z"
     id="text32"
     style="font-size:8px;font-family:'Arial Black';-inkscape-font-specification:'Arial Black, ';fill:#483737"
     aria-label="EXQUIS" />
  <path
     d="m 187.37334,327.09698 h 2.9414 q 0.96094,0 1.4375,0.45704 0.48047,0.45703 0.48047,1.30078 0,0.86718 -0.52344,1.35547 -0.51953,0.48828 -1.58984,0.48828 h -0.96875 v 2.125 h -1.77734 z m 1.77734,2.44141 h 0.43359 q 0.51172,0 0.71875,-0.17578 0.20704,-0.17969 0.20704,-0.45703 0,-0.26953 -0.17969,-0.45703 -0.17969,-0.1875 -0.67578,-0.1875 h -0.50391 z m 4.07813,-2.44141 h 1.77343 v 5.72657 h -1.77343 z m 6.5664,4.78125 h -2.01562 l -0.27735,0.94532 h -1.80859 l 2.15234,-5.72657 h 1.92969 l 2.15234,5.72657 h -1.85156 z m -0.37109,-1.23828 -0.63281,-2.05859 -0.62891,2.05859 z m 3.08203,-3.54297 h 1.65234 l 2.15625,3.16797 v -3.16797 h 1.66797 v 5.72657 h -1.66797 l -2.14453,-3.14453 v 3.14453 h -1.66406 z m 6.42969,2.86719 q 0,-1.40234 0.78125,-2.18359 0.78125,-0.78125 2.17578,-0.78125 1.42969,0 2.20312,0.76953 0.77344,0.76562 0.77344,2.14844 0,1.0039 -0.33984,1.64843 -0.33594,0.64063 -0.97657,1 -0.63671,0.35547 -1.58984,0.35547 -0.96875,0 -1.60547,-0.30859 -0.63281,-0.30859 -1.02734,-0.97656 -0.39453,-0.66797 -0.39453,-1.67188 z m 1.76953,0.008 q 0,0.86719 0.32031,1.2461 0.32422,0.3789 0.87891,0.3789 0.57031,0 0.88281,-0.37109 0.3125,-0.37109 0.3125,-1.33203 0,-0.80859 -0.32813,-1.17969 -0.32421,-0.375 -0.88281,-0.375 -0.53515,0 -0.85937,0.37891 -0.32422,0.3789 -0.32422,1.2539 z"
     id="text33"
     style="font-size:8px;font-family:'Arial Black';-inkscape-font-specification:'Arial Black, ';fill:#483737"
     aria-label="PIANO" />
  <path
     d="m 187.08545,340.51956 h 2.94141 q 0.96093,0 1.4375,0.45703 0.48046,0.45703 0.48046,1.30078 0,0.86719 -0.52343,1.35547 -0.51953,0.48828 -1.58985,0.48828 h -0.96875 v 2.125 h -1.77734 z m 1.77734,2.44141 h 0.4336 q 0.51172,0 0.71875,-0.17578 0.20703,-0.17969 0.20703,-0.45703 0,-0.26954 -0.17969,-0.45704 -0.17969,-0.1875 -0.67578,-0.1875 h -0.50391 z m 4.07813,-2.44141 h 1.77344 v 5.72656 h -1.77344 z m 6.5664,4.78125 h -2.01562 l -0.27734,0.94531 h -1.8086 l 2.15235,-5.72656 h 1.92968 l 2.15235,5.72656 h -1.85157 z m -0.37109,-1.23828 -0.63281,-2.05859 -0.62891,2.05859 z m 3.08203,-3.54297 h 1.65235 l 2.15625,3.16797 v -3.16797 h 1.66796 v 5.72656 h -1.66796 l -2.14454,-3.14453 v 3.14453 h -1.66406 z m 6.42969,2.86719 q 0,-1.40234 0.78125,-2.18359 0.78125,-0.78125 2.17578,-0.78125 1.42969,0 2.20313,0.76953 0.77343,0.76562 0.77343,2.14843 0,1.00391 -0.33984,1.64844 -0.33594,0.64063 -0.97656,1 -0.63672,0.35547 -1.58985,0.35547 -0.96875,0 -1.60547,-0.30859 -0.63281,-0.3086 -1.02734,-0.97657 -0.39453,-0.66796 -0.39453,-1.67187 z m 1.76953,0.008 q 0,0.86719 0.32031,1.2461 0.32422,0.3789 0.87891,0.3789 0.57031,0 0.88281,-0.37109 0.3125,-0.3711 0.3125,-1.33203 0,-0.8086 -0.32812,-1.17969 -0.32422,-0.375 -0.88282,-0.375 -0.53515,0 -0.85937,0.37891 -0.32422,0.3789 -0.32422,1.2539 z m 7.19531,-2.875 h 1.67969 l 0.60547,3.19922 0.88281,-3.19922 h 1.67578 l 0.88672,3.19922 0.60547,-3.19922 h 1.67188 l -1.26172,5.72656 h -1.73438 l -1.0039,-3.60546 -1,3.60546 h -1.73438 z"
     id="text34"
     style="font-size:8px;font-family:'Arial Black';-inkscape-font-specification:'Arial Black, ';fill:#483737"
     aria-label="PIANO W" />
</svg>
